<?xml version="1.0" encoding="utf-8"?>
<!-- Generator: Adobe Illustrator 28.0.0, SVG Export Plug-In . SVG Version: 6.00 Build 0)  -->
<svg version="1.1" id="uuid-78438a46-7f62-4553-bb1a-b81f5ee50938"
	 xmlns="http://www.w3.org/2000/svg" xmlns:xlink="http://www.w3.org/1999/xlink" x="0px" y="0px" viewBox="0 0 394.9 517.8"
	 style="enable-background:new 0 0 394.9 517.8;" xml:space="preserve">
<style type="text/css">
	.st0{fill-rule:evenodd;clip-rule:evenodd;fill:#F5DDB6;stroke:#BC9775;stroke-width:8;stroke-miterlimit:10;}
</style>
<path id="cor1" class="st0" d="M47.6,8.4c-2.4,0.4-5,0.4-14,0.1c-6.6-0.2-7.3-0.2-9,0.5c-1,0.4-2.8,0.9-4,1
	c-5.3,0.6-9.6,5.7-8.9,10.8c0.8,6,0.8,6.6-0.4,8.1c-1.1,1.4-1.1,1.7-1.3,6.9c-0.1,3-0.3,5.7-0.5,6c-0.2,0.5,0,2,1.2,7.5
	c0.1,0.5-0.2,2.4-0.6,4.2c-1.7,7.3-1.7,7.6-1.4,11.4c0.6,9.1,0.6,17.6,0,19.7c-0.7,2.6-0.8,33-0.1,35.6c0.8,2.9,0.8,5.4,0,8.6
	c-0.8,3.3-0.8,13.4,0,12.3c0.2-0.3,0.3-0.1,0.1,0.6c-1.2,5.4-1.3,11.4-0.2,15.4c0.8,3,0.8,3.5,0.6,17.1c-0.3,18.6-0.3,32.5,0.2,35.4
	c0.3,1.8,0.3,2.6-0.2,3.6c-0.6,1.6-0.8,8.8-0.2,10.4c0.3,0.8,0.2,1.6-0.2,3.1c-0.8,2.5-1,11.3-0.3,10.3c0.2-0.3,0.4-0.4,0.4-0.2
	s-0.3,0.7-0.7,1.1c-0.6,0.6-0.7,1.9-0.9,8.9c-0.1,4.5-0.3,8.4-0.5,8.8c-0.4,0.8,1.1,5.8,1.9,6.5s0.8,6.3,0,9.1
	c-0.4,1.5-0.6,4.1-0.7,9.3c-0.1,3.9-0.2,9-0.4,11.2c-0.2,3.8-0.2,4.2,0.7,6.4c1.3,3.3,1.6,6,0.8,8.4c-0.3,1.1-0.8,4.4-1,7.7
	c-0.4,6.1-1,11.9-1.3,12.5c-0.1,0.2,0.1,1.4,0.4,2.8c1,3.9,1.1,5.5,0.3,7.1c-0.4,0.8-0.6,2.1-0.6,3c0.1,6.3,0,10.9-0.3,14.2
	C6,358.4,6,381.1,6.6,381.1c0.2,0,0.2,0.2-0.1,0.5C5.6,382.7,6.1,490,7,492.4c0.5,1.3,0.8,3.5,1,6.6c0.3,5.6,0.6,6.2,4.3,8.1
	c2.7,1.4,2.8,1.5,10.4,1c4.2-0.3,4.7-0.2,7.6,0.7l3.2,1h36.6c32.3,0,36.8,0,38.1-0.6c1.1-0.5,2.4-0.6,5.3-0.4
	c14.9,0.8,37.2,0.9,144.3,1h119.5l2.1-1.3c2.2-1.4,3.1-2.5,3.5-4.2c0.1-0.6,0.5-1.8,0.8-2.6s0.5-2.4,0.5-3.6s0.3-3.2,0.8-4.5
	c1.7-5.4,2.3-13.1,1.2-15.8c-0.3-0.7-0.4-3.7-0.4-8.4c0-4.4-0.2-7.9-0.4-8.8c-0.3-1.1-0.3-2,0-3.5c0.4-1.8,0.9-18,0.8-24.7
	c-0.1-5.4,0-15.9,0.2-23.6c0.2-5.6,0.1-8.6-0.2-10.5c-0.4-2.1-0.4-3,0-4.7c0.4-1.6,0.4-3.5,0.1-8.4c-0.2-3.9-0.2-6.7,0-7.4
	c0.7-2.3,0.4-12.2-0.5-14.6s-0.9-2.6,0.6-6.5c1.1-2.9,1.1-4.7,0-6c-0.9-1-1.2-9-0.7-21.9c0.2-5.8,0.2-6.6-0.6-9
	c-0.9-2.8-0.9-2.6-0.1-15.1c0.2-2.7,0.6-6.1,0.9-7.5c1.1-4.7,1.6-10.1,1.7-19.3c0-5.6,0.2-9.6,0.5-10.3c1-2.9,0.1-7.7-1.6-9.2
	c-0.8-0.7-0.8-4.2,0-7.4c0.5-1.8,0.7-4.4,0.7-10.1c0.1-4.2,0.1-8.2,0.2-8.8c0-0.6-0.2-1.7-0.6-2.6c-0.6-1.3-0.6-1.8-0.2-4
	c0.4-2.1,0.3-2.9-0.2-5.1c-0.3-1.4-0.5-3.1-0.4-3.7c0.1-0.7,0.5-2.9,0.8-4.9s0.9-4.6,1.2-5.7c0.5-1.6,0.6-2.8,0.4-5.2
	c-0.3-4.1-0.3-4.3,0-6.8c0.2-1.6,0.1-2.5-0.4-3.7c-1.2-2.7-1.3-4-0.7-5.7c0.5-1.2,0.6-3.1,0.6-8.3c0-3.7,0.3-8.4,0.5-10.4
	c0.5-3.6,0.5-117.1,0-121.4c-0.2-1.9-1.7-6.5-2.2-7.1c-1-1-0.4-4.1,1.2-6.3c2.8-4,2.1-10.1-1.6-14.2c-0.4-0.5-1.2-1.6-1.8-2.5
	c-4.3-7.4-0.2-6.8-42.7-6.6C321.7,8,305,8.1,304.2,8c-35.5-0.8-54.9,0-59.4,2.7l-1.7,1L241,10l-1.8-1.9l-12-0.1
	c-9.4,0-12.5,0.1-14.2,0.5c-1.2,0.3-3.3,0.7-4.8,0.8s-4,0.7-5.5,1.2c-6.1,2.1-9.5,2.1-13.4,0.1c-0.8-0.4-2.8-1.2-4.4-1.7l-2.9-1
	L168.7,8c-21.6,0.1-32.9,0.4-32.9,0.9c0,0.7-3.3,1.3-4.1,0.7c-0.6-0.4-0.4-0.5,1.6-0.6l2.3-0.1l-2.5-0.3c-4.7-0.5-11.9-0.4-14.7,0.2
	c-2,0.5-5.2,0.6-12.2,0.7c-5.3,0.1-10.3,0.2-11.1,0.4c-0.9,0.2-2,0.1-2.7-0.2C91.3,9.4,86.9,9,77.7,8.5c-3.3-0.2-4-0.1-4.4,0.4
	c-0.5,0.6-2.2,0.9-4.5,0.6l-1.3-0.1L69,9.2l1.5-0.3h-1.7c-0.9,0-2.7,0.3-3.8,0.7c-3.4,1.3-3.8,1.3-4.7,0.4C58.1,8,53.4,7.4,47.6,8.4
	"/>
</svg>
