<?xml version="1.0" encoding="UTF-8"?><svg id="a" xmlns="http://www.w3.org/2000/svg" viewBox="0 0 385.89 517.58"><defs><style>.e{fill:#f5ddb6;}.e,.f{fill-rule:evenodd;stroke-width:0px;}.f{fill:#c8813d;}</style></defs><g id="b"><path id="c" class="e" d="m256.49,20.52c-1.85.83-3.98,1.79-4.74,2.14-.76.35-1.91.61-2.57.59-.65-.03-1.98.25-2.95.62-1.23.47-2.91.66-5.58.65-4.2-.02-4.38-.06-7.33-1.49-2.68-1.3-4.87-1.59-6.09-.81-2.06,1.31-4.12,1.27-4.69-.11-1.13-2.73-5.51-3.45-7.18-1.18-.8,1.09-1.04,1.18-2.4.95-.83-.14-1.99-.08-2.58.13-.58.22-2.17.71-3.53,1.09-2.26.64-3.43,1.77-1.84,1.77.34,0,.54.22.44.5-.1.27-.42.43-.72.34-.3-.08-1.16-.3-1.92-.48s-1.89-.45-2.5-.6c-.87-.21-1.76.07-3.97,1.24l-2.85,1.51-1.8-1.25c-.99-.69-1.91-1.51-2.03-1.84s-1.23-.89-2.45-1.24c-1.22-.36-2.58-1.06-3.01-1.56-.58-.67-1.39-.98-3.02-1.17-1.23-.14-2.68-.34-3.22-.44-.78-.15-1.12.06-1.66,1.01-.57,1.02-.91,1.19-2.26,1.19s-1.85.26-2.95,1.37c-1.29,1.3-1.47,1.36-3.37,1.13-1.37-.16-2-.1-2,.21,0,.85-1.49.47-1.74-.44-.42-1.55-2.9-3.09-4.95-3.08-.99,0-2.33-.02-2.99-.05-.98-.05-2.18.07-4.21.41-.15.02-.39.62-.54,1.33-.53,2.5-2.99,3.52-4.67,1.93-1.06-1-2.22-1.07-3.87-.21-.79.41-1.64.54-2.45.37-.68-.14-1.76-.24-2.41-.22s-1.95-.37-2.89-.87l-1.71-.9-.77.95c-.42.52-1.17,1-1.65,1.05-.48.06-1.38.37-1.99.69-1.08.57-2.45.51-2.84-.13-.59-.95-1.77.17-1.77,1.68,0,2.08-3.98,5.95-6.3,6.14-.55.04-1.39.54-1.87,1.09-.65.76-1.25,1.01-2.41,1.01-2.23,0-4.02.74-4.44,1.83-.39,1.02-1.56,1.3-1.56.37,0-2.03-5.56-2.19-7.7-.22-1.63,1.5-2.67,1.98-4.32,1.98-.94,0-1.41.18-1.41.55,0,.3-.44.66-.98.8-.63.16-1.19.74-1.56,1.63-.32.76-.83,1.38-1.15,1.38s-.92.59-1.34,1.31-1.33,1.74-2.03,2.28c-3.15,2.43-4.15,3.43-4.65,4.63-.69,1.65-1.29,1.63-2.41-.1-1.24-1.92-2.08-1.66-3.49,1.07-.54,1.06-.76,1.16-1.86.93-3.22-.66-3.68-.65-5.49.13-1.5.65-1.87,1-1.87,1.77,0,1.17-.66,1.76-2.36,2.1-.88.18-1.5.64-1.93,1.44-.35.65-1.04,1.67-1.53,2.28-1.04,1.28-1.11,2.26-.3,4.21.95,2.28-.77,3.1-2.35,1.12-1.69-2.12-5.4-1.61-5.54.77-.2,3.26-5.77,5.58-7.64,3.19-1.16-1.48-3.95.24-3.98,2.46,0,.46-.27,1.46-.58,2.21s-.66,2.6-.77,4.11-.21,2.78-.22,2.82-.4.13-.86.2c-.56.09-1.05.66-1.48,1.76-.74,1.89-1.52,2.93-2.2,2.93-.9,0-2.08,1.78-2.5,3.77-1.67,7.87-3.47,10.8-6.67,10.88-1.15.03-1.41.55-.87,1.75.45,1,.18,3.99-.8,8.78-1.07,5.22-1.05,5.57.46,6.9,2.09,1.84,2.21,3.3.49,5.81-1.73,2.52-1.48,4.62,1,8.46,1.65,2.57,3.76,7.47,3.38,7.86-.13.13-.86.04-1.63-.19-1.64-.51-2.3.17-2.77,2.87-.15.87-.71,2.8-1.24,4.29-.84,2.35-.92,3.05-.64,5.35.43,3.55.41,3.63-1.63,6.62-2.18,3.2-2.5,4.3-1.66,5.73.77,1.3.38,4.74-.66,5.9-.47.52-.64,1.39-.6,3.1.03,1.31-.15,2.75-.39,3.21-.57,1.07-.57,2.95,0,4.21.32.7.33,1.32.03,2.17-.63,1.83,1.33,3.49,5.25,4.45,2.34.57,3.75,1.72,3.75,3.06,0,.6.53,1.45,1.38,2.24,1.08.99,1.38,1.58,1.38,2.67,0,1.54.48,2.1,3.02,3.49,1.54.85,1.69.86,2.55.26,1.31-.92,2.28-.8,2.71.35.49,1.29,1.34,1.26,2.28-.1,1.64-2.35,1.45-5.33-.4-6.29-1.13-.59-1.17-.7-.93-2.51.19-1.44.11-2.01-.35-2.39-.72-.6-.79-1.97-.11-2.03,1.04-.1,1.7.15,2.41.91.47.5,1.04.71,1.58.58,2.17-.53,4.43,3.52,4.03,7.2-.22,1.99-.17,2.16,1.09,3.37.73.7,1.61,1.74,1.96,2.32.58.94.81,1.02,2.44.84,1.87-.21,2.51.62,1.36,1.76-.32.32-.23.64.31,1.19,3.89,3.9,2.46,10.41-2.76,12.6-1.65.69-2.39,1.78-3.48,5.14-.79,2.43-2.86,4.21-2.21,1.9.11-.38.26-.96.34-1.29.09-.38-.45-.88-1.55-1.39-1.73-.81-2.07-2.22-.74-3.06.92-.58-.61-2.49-1.99-2.49-.75,0-1.62-.36-2.22-.93-1.46-1.37-2.24-.98-3.19,1.58-2.03,5.47-3.81,5.1-3.42-.71.07-1.03-.09-1.28-.92-1.49-.56-.14-1.28-.78-1.61-1.44-.76-1.48-.96-1.47-2.39.03-1.13,1.18-1.16,1.33-1.16,5.22,0,2.85-.14,4.05-.49,4.17-.66.22-.6,1.31.11,2.26.37.49.56,1.58.53,3-.03,1.23.17,2.65.44,3.16,1.04,1.94-.07,6.79-1.93,8.49-.46.42-.83,1-.83,1.3s-.99,1.54-2.21,2.75c-1.93,1.92-2.19,2.36-2.03,3.44.1.68-.07,1.84-.38,2.57-.53,1.27-.49,1.47.71,3.78,1.74,3.35,1.8,9.42.12,13.1-.74,1.63-.97,2.63-.8,3.51.17.83-.01,1.76-.57,2.91-.78,1.62-.79,1.77-.17,4.16.63,2.43.62,2.5-.23,3.66-.48.65-.96,1.94-1.06,2.87-.14,1.25-.43,1.81-1.12,2.18-1.24.67-.98,4.54.47,6.81,1.15,1.8,1.18,3.02.15,6.16-.64,1.97-.72,2.77-.41,4.33.21,1.05.58,2.95.82,4.21.32,1.65.33,2.44.02,2.82-2.09,2.54-2.74,5.13-1.71,6.93.66,1.15.66,1.27-.02,2.54-.55,1.02-.74,2.44-.85,6.06-.07,2.6-.25,5.2-.4,5.78-.18.7-.05,1.39.39,2.06.37.57.53,1.23.35,1.51-.17.27-.32,2.43-.33,4.79-.03,4.89-.41,4.43,4.12,4.83,3.94.34,7.1,3.53,7.1,7.15,0,1.13.28,2.05.86,2.78,1.28,1.64.4,3.09-2.06,3.37l-1.76.2-.23,3.17c-.52,6.96-3.43,8.23-6.81,2.96-1.72-2.67-2.95-3.23-2.38-1.08.44,1.68.26,8.07-.27,9.71-.36,1.1-.27,1.62.59,3.52,1.18,2.59,1.23,3.51.42,8.08-.32,1.85-.59,3.96-.59,4.67s-.37,1.81-.83,2.43c-1.6,2.18,0,3.61,1.77,1.59,1.34-1.52,2.25-1.37,2.71.42.47,1.84,1.55,2.94,3.67,3.76.96.37,1.75.83,1.75,1.03s.34.36.76.36c2.81,0,4.65,4.07,2.46,5.43-1.29.8-2.35.14-4.01-2.5-1.66-2.65-2.54-3.1-3.72-1.91-.79.79-.8,2.3-.03,2.94.75.63.74.98-.05,1.78-.59.6-.59.74.06,1.95.88,1.64.59,2.92-1.03,4.51l-1.23,1.21,1.06,1.81c.58,1,.94,1.99.81,2.21-.76,1.24-.98,5.19-.41,7.4.76,2.95.75,6.44-.03,7.48-1.23,1.64-1.57-.4-.74-4.46.35-1.73-.35-1.68-2.05.13-2.17,2.32-2.04,4.25.47,6.77.51.51,1.12,1.69,1.35,2.62.23.92.59,1.95.8,2.28s.64,1.17.96,1.88c.46,1.03.81,1.29,1.75,1.29.81,0,1.47.36,2.13,1.15.53.63,1.3,1.21,1.71,1.29,1.11.21,1.28,3.65.25,5.06-.41.56-.97,1.87-1.26,2.9-.29,1.07-1.09,2.49-1.85,3.3-.83.89-1.33,1.81-1.33,2.48,0,.58-.3,2.35-.66,3.93l-.67,2.87,1.2,1.49c1.12,1.4,2.89,2.22,2.89,1.35s1.31-1.64,2.82-1.64c2.69,0,5.47-3.28,5.47-6.46,0-2.17,1.44-2.85,3.76-1.79.8.37,1.2.37,1.79,0,1.21-.76,2.61-.56,4.85.72,1.48.84,2.57,1.17,3.69,1.13,2.08-.08,4.83,2.03,4.84,3.72,0,1.4,1.59,1.9,3.13.98,1.45-.86,2.89.48,4.55,4.21,1.28,2.88,3.77,4.12,3.77,1.88,0-1.7,2.31-2.36,3.79-1.08,1.04.9,1.07,1.01.5,1.9-1.61,2.52-.63,4.55,1.86,3.86,1.13-.31,1.55-.27,2.1.23.84.77,1.39.77,4.08.07,4.98-1.3,12.37.21,14.59,2.99,2.48,3.1,6.07,2.11,8.17-2.23,1.26-2.61,2.58-3.77,4.3-3.77.43,0,1.2-.49,1.7-1.09,1.47-1.74,4.04-2.72,5.61-2.15,1.71.62,2.81.59,3.38-.1.49-.59,1.6-.43,1.6.24,0,.46-2.58,3.16-2.8,2.94-.5-.5.22,4.05.73,4.63.53.6.54.91.11,2.24-.59,1.81-.42,2.24,1.06,2.55.67.14,1.35.7,1.77,1.44.74,1.33,1.61,1.51,3.67.76.98-.36,1.76-.32,3.77.19l2.53.64,1.59-1.54c2.27-2.19,5.34-3.36,5.34-2.02,0,.22.27.4.59.4s.59.16.59.36.37.26.82.14c.63-.16.7-.3.3-.55-.34-.22-.36-.34-.07-.34.27,0,.37-.35.24-.84-.39-1.52,4.64.29,7.99,2.86,4.32,3.32,7.87,5.55,9.38,5.89,4.92,1.11,8.83,4.66,6.64,6.03-1.65,1.04-.48,1.37,4.51,1.29,2.71-.05,5.02.07,5.14.27.43.69,1.8.35,2.76-.7.9-.97,1.08-1.02,2.45-.62,3.39,1,6.89,1.67,8.75,1.67,3.24,0,10.53-3.07,11.33-4.76.26-.55.7-1.5.99-2.12.55-1.19,1.63-1.28,5.18-.42.94.23,1.35,0,3-1.72,1.23-1.27,2.39-2.09,3.25-2.27,2.55-.55,3.2-1.64,1.93-3.26-1.32-1.68-1.05-2.78.78-3.28,2.19-.59,2.92-1.99,2.09-4.06-1.12-2.81,1.26-10.06,4.16-12.69,1.8-1.63,2.6-1.77,5.22-.92.96.31,2.23.67,2.83.8,1.22.27,2.27,1.96,2.28,3.67,0,1.93.79,2.28,6.11,2.7.87.07,2.76.32,4.19.55,1.44.24,3.16.32,3.83.19.86-.17,1.6,0,2.56.59,1.86,1.15,4,1.09,5.47-.15,1.18-1,2.16-1.16,6.19-1,1.57.06,1.86-.09,3.41-1.75,2.91-3.14,6.63-3.43,9.8-.77,1.37,1.15,2.85,1.21,3.42.14.51-.96.87-.98,2.62-.15.9.43,1.9.57,2.97.43,1.36-.18,1.75-.07,2.5.74,1.35,1.46,3.5,1.34,4.15-.23.27-.65.54-1.19.59-1.19.17,0,6.28,2.76,6.94,3.13.4.23,1.37.09,2.76-.41,1.65-.59,3.14-.75,6.48-.72,2.46.02,4.94-.17,5.72-.44.76-.26,2.35-.59,3.53-.72,2.01-.23,2.17-.32,2.48-1.52.44-1.7,1.61-2.33,2.77-1.51,1.96,1.38,3.27-.18,1.82-2.16-.89-1.21-.81-1.67.34-1.84.36-.05.79-.35.96-.65,1.01-1.82,1.87-2.47,2.59-1.97,1.42.99,1.8,1.01,2.44.17.35-.47,1.26-.96,2.02-1.11s1.74-.58,2.18-.98c.44-.4,1.43-.99,2.2-1.31,2.88-1.21,3.4-4.62.76-5-1.98-.29-1.82-3.17.18-3.17.56,0,2.18-2.15,2.18-2.89,0-.85-.43-1.08-1.23-.65-.55.3-1.07.17-2.11-.51-2.09-1.36-1.67-1.82,1.96-2.16,2.69-.25,6.07-1.55,6.95-2.67.66-.85.95-.91,3.41-.73,3.08.22,4.24-.44,3.33-1.91-1.06-1.7-.11-2.75,2.48-2.75,3.09,0,4.28-1.83,2.97-4.56-.98-2.04-.97-2.53.07-3.64.68-.73.84-1.33.77-2.9-.07-1.5.05-1.98.48-1.98.54,0,1.05-.8,1.05-1.64,0-.21-.4-.33-.89-.26-.77.11-.88-.04-.8-1.07.05-.65.14-2.4.2-3.88.1-2.41.22-2.76,1.17-3.38,1.84-1.21,2.78-2.72,2.5-4.02-.21-.95-.08-1.28.73-1.81,1.22-.8,1.55-1.63,1.04-2.58-.27-.51-.25-1.06.08-1.78.62-1.38-.52-3.66-2.02-4.03-2-.49-2.09-1.59-.29-3.38.73-.72,1.43-1.74,1.56-2.26.46-1.84-1.18-3.27-2.01-1.77-.23.41-.45.49-.62.22-.14-.23.06-.75.46-1.14.39-.39.93-1.21,1.18-1.81.26-.6.73-1.09,1.05-1.09s.81.49,1.09,1.09c1.17,2.47,5.85,3.88,6.6,1.99,1.82-4.57,1.78-6.16-.17-6.16-2.19,0-4.01-2.53-2.27-3.14,1.48-.52,2.52-1.98,3.32-4.6.61-2.03,1.06-2.83,1.76-3.15.65-.3.94-.76.94-1.48,0-.58.36-1.79.79-2.69.96-1.99.98-2.85.14-4.76-.5-1.14-.68-3.06-.77-8.53l-.13-7.06,1.13-2.26c1.38-2.76,2.35-6.15,2.29-8.01-.02-.76.09-2.2.24-3.18.26-1.69.2-1.87-1.11-3.15-1.8-1.75-1.76-2.72.19-5.33,1.71-2.27,2.51-4.72,2.96-9.04.15-1.47.52-2.87.83-3.12,1.09-.9.37-4.45-1.87-9.32-.78-1.69-1.07-2.75-.83-3.06,1.42-1.82,2.06-6.65,1.06-7.98-.32-.42-.58-1.11-.58-1.53s-.48-1.61-1.06-2.65l-1.06-1.9,1.02-2.32c.7-1.59.96-2.74.82-3.62-.11-.71-.02-1.51.2-1.78.97-1.19.59-4.86-.78-7.7-.23-.48-.32-1.24-.2-1.69.12-.46.06-1.4-.12-2.11-.72-2.7-1.1-10.34-.59-11.6.31-.77.37-1.53.15-2.13-.6-1.64.7-3.88,2.7-4.64,1.4-.54,1.77-.9,2.09-2.09.61-2.22.42-3.35-1.22-7.09-1-2.28-.94-3.36.29-4.82.86-1.03.99-1.47.77-2.71-.46-2.59-.35-3.39.91-6.91,1.65-4.6,1.47-8.37-.54-11.2-1.25-1.77-1.27-1.86-1.08-5.27.15-2.65.04-3.83-.44-5-.81-1.93-.8-2.82.02-5.39.73-2.28.07-5.56-1.49-7.35-.38-.44-1.13-1.69-1.68-2.78-.54-1.09-1.45-2.39-2-2.87-1.42-1.24-1.48-4.3-.1-4.83,2.45-.94,3.94-3.8,2.6-5.02-.62-.57-.78-1.06-.62-2.03.3-1.84-.39-3.92-1.62-4.89-.88-.69-1.05-1.13-1-2.5.14-3.78.38-5.62.73-5.64.2,0,1.41-.16,2.68-.33,1.57-.21,2.68-.16,3.47.17,1.8.75,1.77.21-.1-1.99-1.48-1.73-1.87-1.98-2.78-1.78-2.04.44-3.76-2.62-1.8-3.2,1.63-.49,3.86-2.28,4.49-3.6.34-.72.96-1.42,1.37-1.55,1.9-.61,1.95-3.61.06-3.83-1.55-.18-1.53-1.66.02-1.84,2.26-.26,3.27-5.01,2.05-9.65-.24-.91-.11-1.15.91-1.68,1.52-.79,1.91-2.37,1.02-4.16-.46-.93-.59-1.87-.43-3.19.17-1.45.05-2.13-.54-3.03-.42-.64-.76-1.67-.76-2.29,0-1.84-1.22-5.53-2.23-6.73-1.14-1.37-1.18-2.09-.14-2.36.46-.12.79-.54.79-1.01,0-1.04-.58-1.39-1.51-.89-2.27,1.22-5.44-5.27-3.42-7.02,1.31-1.15,1.25-1.55-.49-3.35-1.34-1.38-1.48-1.74-1.53-3.78-.03-1.24-.07-3.03-.1-3.96-.04-1.32-.29-1.93-1.13-2.7-.6-.55-1.75-1.64-2.56-2.43-1.76-1.72-3.85-2.61-6.14-2.64-1.87-.02-2.8-1.73-2.27-4.16.17-.77,0-1.35-.57-2.01-.44-.51-.8-1.1-.8-1.31s-.44-.91-.99-1.56c-1.08-1.29-1.18-1.85-.61-3.67.21-.67.48-1.73.61-2.35.14-.67.55-1.22,1-1.33,1.37-.36.61-3.44-.97-3.91-1.17-.35-2.91-2.06-4.02-3.96-.53-.9-1.83-2.19-2.93-2.9-1.09-.71-2.17-1.65-2.4-2.09-.34-.64-.69-.75-1.68-.57-1.25.23-1.55.1-5.5-2.46-.78-.5-1.78-1.54-2.23-2.3l-.81-1.38-1.19.71c-1.98,1.18-3.73-.9-2.2-2.61,1.59-1.77-3.42-7.59-5.85-6.79-1.07.36-1.42.69-1.42,1.36,0,1.34-.39,1.48-1.63.59-1.39-1-1.44-1.55-.14-1.55.72,0,.99-.21.99-.79,0-.8-1.31-1.15-1.74-.46-.11.18-1.18.25-2.38.15-1.61-.13-2.84.05-4.73.73-2.87,1.02-3.52.82-3.92-1.18-.23-1.17-2.05-3.15-3.7-4.04-.75-.41-1.3-.37-3.09.19-2.55.81-4.53-.04-4.53-1.95,0-1.25-1.52-1.66-3.83-1.03-.94.25-2.07.46-2.51.46-.53,0-.94.39-1.21,1.16-1.1,3.16-3.91,2.91-5.6-.5-.61-1.23-1.36-2.24-1.67-2.24-1.08,0-4.12.96-4.12,1.3,0,.19-.28.06-.62-.28-.79-.8-1.93-.79-3.29.01-.98.58-1.22.58-2.94,0-2.81-.96-3.29-.86-3.59.75-.33,1.77-.6,1.74-2.14-.18-1.08-1.35-1.22-1.78-1.02-3.09.28-1.74-.1-2.21-2.2-2.76-1.04-.27-1.41-.59-1.51-1.32-.3-2.28-1.22-2.34-5.6-.37m-178.13,28.74c.13.33.47.59.76.59.32,0,.44-.25.31-.59-.13-.33-.47-.59-.76-.59-.32,0-.44.25-.31.59m-20.77,24.5c0,.49-.25,1.25-.55,1.68-.3.44-.75,1.54-1,2.44-.82,3.07-4.64,4.49-5.79,2.16-.25-.5-.95-1.44-1.55-2.07-.83-.87-1.11-1.56-1.14-2.85l-.03-1.7,2.17-.29c1.19-.16,3.15-.43,4.34-.61,2.52-.38,3.55-.03,3.55,1.22m303.89,1.66c0,.33.18.59.39.59s.39-.27.39-.59-.18-.59-.39-.59-.39.27-.39.59m-309.95,11.73c.56,1.91-.09,2.46-1.79,1.51-1.32-.74-1.5-2.05-.42-3.14,1.04-1.04,1.53-.68,2.21,1.63m-1.52,7.57c-.24.74-1.09.86-1.09.16,0-.34.28-.63.62-.63s.55.21.47.47m-10.27,90.8c-.25.75-1.48.86-1.48.13,0-.37.34-.62.82-.62s.75.21.66.5m-4.92,20.17c-.33.33-.28.82.2,1.88.93,2.07,2.12,3.36,2.52,2.73,1.28-2.02-1.17-6.17-2.72-4.61m6.21,21.34c0,.21.8.85,1.78,1.43,2.38,1.4,3.25,2.99,1.93,3.5-1.14.44-2.47-.19-2.88-1.36-.22-.62-.76-1.45-1.21-1.84-.95-.82-1.09-2.11-.22-2.11.33,0,.59.17.59.38m11.64,4.18c0,1.18-1.54,1.06-1.71-.13-.11-.77.02-.9.79-.79.61.09.92.4.92.92m-2.03,4.36c-.13.33-.47.59-.78.59s-.55-.27-.55-.59.35-.59.78-.59c.53,0,.7.19.55.59m-4.77,97.12c-.11.5-2.08.77-2.08.29,0-.61.53-.92,1.37-.8.44.06.77.29.72.51m-13.61,62.91c1.15,1.15.56,1.9-1.5,1.9-1.09,0-1.97-.08-1.97-.17,0-1.83,2.25-2.95,3.47-1.73m-5.62,13.17c.33,1.31-.63,3.2-1.61,3.2-1.19,0-1.28-2-.15-3.21,1.12-1.2,1.46-1.19,1.77.01m25.43,16.85c0,1.44-.61,1.89-1.16.86-.49-.92-.16-2.02.61-2.02.35,0,.55.43.55,1.17m-6.21.52c.36.28.7,1.2.77,2.08.15,2,2,2.19,3.87.39l1.11-1.07.46.86c1.01,1.89-.53,5.35-2.66,5.94-1.87.52-1.91.52-2.54-.09-.29-.28-1.1-.92-1.8-1.41-1.29-.91-1.74-2.5-.86-3.05.26-.16.32-.86.17-1.79-.37-2.2.17-2.87,1.49-1.86m-27.23,2.08c0,.87.08,1.18.18.69.09-.49.09-1.21,0-1.59-.1-.38-.18.02-.17.9m36.23,10.96c.46,1.11.43,1.3-.24,1.8-1.21.89-2.32.51-2.47-.84-.25-2.2,1.9-2.95,2.72-.96m4.32,1.71c0,.84-.63,1.09-1.16.45-.35-.42-.34-.6.05-.76.87-.35,1.1-.29,1.1.3m266.76,6c-.36.44-.61.48-.93.16-.31-.32-.22-.6.35-1.02.92-.68,1.33-.06.57.86m-291.65,3.7c1.07,1.52,1.03,2.47-.17,3.61-.54.51-.99,1.26-.99,1.66,0,.98-1.27.93-2.18-.08-.66-.73-.68-.98-.2-2.87.94-3.71,2.04-4.42,3.54-2.31m298.78,3.78c0,.31.16.67.35.79.41.25.9-.77.54-1.12-.42-.43-.89-.25-.89.33m-272.56,8.2c.7.82.69.87-.09,1.66l-.81.81-.43-1.13c-.76-2.01.06-2.83,1.33-1.34m145.72.15c-.13.33-.35.86-.48,1.19-.13.33-.04.59.21.59.48,0,.57.06,2.89,2.01,2.3,1.94,1.38,3.06-1.23,1.5-2.51-1.5-3.66-5.89-1.55-5.89.22,0,.29.27.15.59m-138.76,2.81c0,.35-.21.56-.47.47-.73-.24-.85-1.1-.16-1.1.34,0,.62.28.62.63m68.74,25.4c.08.4.46.79.86.87.52.1.68-.06.58-.59-.08-.4-.46-.79-.86-.87-.52-.1-.68.06-.58.59m5.13,1.2c.19.99,1.11,1.13,1.11.16,0-.49-.25-.83-.62-.83s-.57.27-.49.66"/><path id="d" class="f" d="m232.91.18c.38.1,1,.1,1.38,0s.07-.18-.69-.18-1.07.08-.69.18M62.91,1.1l-1.58.28,1.38.13c2.02.19,4.09,0,4.52-.44.43-.43-1.89-.41-4.32.03m66.3-.03c-1.95.19-2.24.31-1.64.66.79.47,4.21-.09,4.21-.7,0-.18-.04-.3-.1-.26s-1.16.17-2.47.3m146.94,7.37c-.11.11-3.7.3-7.97.42-5.67.16-8.22.38-9.43.84-.91.34-3.38.74-5.47.89-3.63.25-3.9.33-5.7,1.74-1.15.9-2.13,1.39-2.5,1.24-.34-.13-1.72-.48-3.07-.77s-2.93-.9-3.51-1.35c-.64-.51-1.63-.83-2.53-.83-.81,0-2.16-.24-3.01-.54-3.12-1.09-11.53-.62-14.23.81l-2.31,1.21-1.79-.94c-1.63-.86-1.99-.91-3.94-.52-1.18.23-3.32.31-4.75.17-2.33-.23-2.83-.14-4.7.81-2.05,1.05-2.18,1.06-7.65.82-7.74-.33-8.12-.33-8.65.08-3.37,2.65-7.77,2-11.71-1.73-1.77-1.67-2.98-1.95-5.15-1.19-.96.34-2.58.62-3.59.62-1.52,0-2.19.28-3.94,1.59-2.5,1.89-3.9,2.09-3.9.57,0-2.56-3.85-3.38-8.17-1.73-.52.2-3.12.4-5.76.45-4.54.08-4.85.14-5.56,1.02-.69.87-.93.92-3.09.67-2.85-.33-2.69.51.43,2.3,3.05,1.74,4.26,3.08,3.38,3.73-1.04.76-1.99.66-3.85-.43-2.69-1.57-7.52-2.4-9.45-1.62-1.84.74-2.78.53-3.35-.74-.47-1.04-4-1.7-6.54-1.22-1.04.2-1.65.03-2.84-.78-1.71-1.16-2.15-1.29-5.6-1.54-1.86-.14-2.57-.04-2.94.41-.35.43-.88.52-1.89.33-2.37-.45-4.18-.32-5.55.39-1.35.7-2.51.67-6.31-.17-.98-.22-3.05-.4-4.61-.41-1.56,0-2.95-.2-3.08-.41-.39-.64-2.24-.46-2.76.27-.86,1.18-4.79,1.18-8.19,0-3.88-1.35-7.25-.58-8.85,2.02-1.45,2.35-2.84,2.61-6.68,1.25-5.01-1.78-6.88-.83-4.75,2.41,1.55,2.35,1.2,3.57-1.04,3.57-1.53,0-2.7-2.44-1.7-3.54.92-1.02.78-2.01-.29-2.01s-1.85.69-1.85,1.73c0,.43-.26,1.07-.58,1.42-1.21,1.34-.95,3.3.48,3.6,1.52.32,2.47,1.04,2.47,1.86,0,.33.64,1.18,1.43,1.91,1.34,1.23,1.4,1.39.99,2.58-.34.99-.32,1.49.12,2.31.31.57.65,1.36.77,1.74.31.99,1.63.86,2.49-.24.52-.67,1.29-1,2.69-1.17,1.08-.13,2.78-.36,3.78-.5,1.44-.2,2.47-.03,4.93.85,1.97.7,4.06,1.14,5.68,1.19,5.93.19,7.38,1.05,5.15,3.08-1.78,1.62-1.88,1.65-3.44.97-.61-.27-2.98-.5-5.25-.53-2.28-.02-4.73-.19-5.44-.36-.96-.23-1.48-.15-1.99.31-.48.44-1.67.66-4.03.74l-3.34.12-1.25,2.37c-1.46,2.76-2.55,3.77-4.06,3.77-1.98,0-4.75,2.54-4.75,4.36,0,.85-.19,1.66-.42,1.8-.9.56-3.92,5.15-3.92,5.95,0,1.4-1.22,2.16-3.45,2.16h-2l-1.2,2.13c-1.55,2.75-2.9,3.82-4.74,3.75-1.71-.06-4.89,1.92-5.75,3.59-.31.59-1.01,1.29-1.57,1.55-1.37.63-1.27,1.53.37,3.61,1.64,2.08,1.66,2.28.39,4.01-.54.74-.99,1.71-.99,2.16s-.33,1.35-.72,2c-1.3,2.16-1.64,3.61-1.14,4.93.46,1.21-.38,3.4-2.77,7.21-.61.97-.61,1.19.01,3.12,1.34,4.17.69,9.72-1.74,14.86-1.24,2.63-1.31,3.01-1.39,7.73-.05,3.3-.3,5.69-.74,7.14-1.31,4.31-1.57,6.55-.99,8.32.43,1.3.44,2.01.08,3.49-.25,1.02-.48,3.56-.5,5.63s-.23,4.6-.47,5.61c-.35,1.52-.3,2.33.3,4.56.83,3.13.85,3.38.47,10.24-.15,2.83-.27,7.65-.25,10.7s.02,6.89,0,8.52c0,1.64.23,3.69.54,4.56s.76,3.37,1.01,5.55c.25,2.18.83,5.2,1.29,6.72,1.2,3.98,1.04,6.49-.34,5.34-1.59-1.33-2.27,2.45-1.14,6.3.67,2.25.93,2.45,1.67,1.26.67-1.07,1.21-1,1.51.21.17.69.03,1.26-.45,1.78-.86.96-1.27.98-1.44.1-.11-.59-.25-.55-1.02.28-1.09,1.17-.93,1.82.4,1.68,1.34-.14,1.9,3.3.92,5.66-.34.81-.62,2.04-.63,2.72,0,.68-.28,1.59-.6,2.02-2.14,2.84-3.58,11.9-2.69,16.87.49,2.75.65,2.99,2.54,3.97,2,1.03,2.6,2.04,2.92,4.94.14,1.31.54,3.56.87,5.01,1.04,4.47-.57,11.35-3.38,14.41-2.38,2.6-3.07,5.37-3.22,13.08-.24,11.92-.27,11.64,1.32,14.84,1.9,3.82,1.86,6.33-.11,6.96-1.6.51-2.18,4.63-1.14,8.11.34,1.13.26,2.02-.4,4.53-.94,3.6-1.56,15.98-.94,18.68.22.93.25,5.17.07,10.31-.24,7.23-.19,9.19.32,11.49.5,2.27.53,3.31.18,5.75-.26,1.82-.3,3.65-.1,4.71.38,1.97-.04,6.23-.75,7.57-1.58,2.96-2.09,14.44-.83,18.45.65,2.07.68,2.49.2,3.24-1.95,3.07-2.45,8.67-1.18,13.41.29,1.09.64,2.63.78,3.42.14.79.76,2.16,1.4,3.03,1.54,2.13,1.68,3.06.46,3.06-.52,0-1.08.27-1.25.59-1.99,3.81-2.05,4.09-1.8,7.45.16,2.13.59,4.11,1.22,5.61l.97,2.31-.81,2.92c-1.33,4.77-1.59,7.4-.87,8.8.53,1.03.55,1.5.12,3.27-.42,1.76-.4,2.36.13,3.99.35,1.06,1.01,3.17,1.47,4.7s1.3,3.67,1.86,4.76c.56,1.09,1.34,3.05,1.72,4.36.83,2.83,2.52,7.91,3.6,10.81.43,1.15.67,2.37.54,2.72-.53,1.38,1.05,4.92,3.9,8.73.27.36.07.84-.69,1.64-2.25,2.35-1.33,5.74,2.02,7.44,1.23.63,2.84,1.55,3.57,2.05,1.57,1.07,4.18,1.22,5.2.29.83-.76,2.68-1,3.66-.49.83.44,2.63.1,2.63-.49,0-.21-.33-.39-.74-.39-1.21,0-1.82-1.04-1.3-2.2.4-.87.3-1.16-.88-2.47-3.21-3.6-3.19-6.13.03-4.74.82.36,2.24.84,3.15,1.07,1.08.27,2.04.89,2.76,1.76.61.73,1.94,1.73,2.96,2.2,1.02.48,2.3,1.46,2.85,2.19.75.99,1.41,1.39,2.69,1.59.93.15,2.66.69,3.85,1.2,4.99,2.13,7.46,2.61,10.06,1.98,3.09-.75,5.01-.75,6.82.01.81.34,2.98.95,4.83,1.37,1.85.41,3.94,1,4.65,1.29,1.45.61,5.36-.11,7.21-1.33,1.44-.95,5.58-1.21,7.47-.46,1.41.56,1.86.55,4.82-.03,3.1-.61,12.17-.39,13.32.33.19.11,1.19.02,2.24-.2,1.3-.28,3.8-.28,7.83-.01,13.46.9,29.1,1.2,42.82.83,5.35-.14,10.73.28,11.77.92,2.05,1.27,35.22,1.48,48.22.3,2.5-.23,5.87-.54,7.5-.69s3.47-.56,4.1-.92c.63-.35,1.5-.85,1.93-1.1.56-.32,1.11-.34,1.82-.07s1.47.25,2.48-.09c1.11-.37,1.72-.37,2.57-.03,1.48.61,2.45.62,6.57.12,2.45-.3,4.07-.31,5.41-.02,1.21.26,2.77.29,4.2.07,1.33-.2,3.03-.19,4.06.02,1.38.28,2.23.2,3.83-.34,1.61-.55,2.69-.64,5.05-.42,3.21.29,4.89-.07,11.83-2.58l3.14-1.13,1.99,1.12c1.09.62,2.8,1.23,3.79,1.36s2.65.61,3.68,1.05c2.97,1.28,6.81,1.49,8.7.48,1.15-.62,1.95-.77,3.18-.6,1.45.2,1.82.08,3.05-1.01,1.65-1.46,1.68-1.46,2.77-.44.98.92,1.99,1.02,2.62.26,1.31-1.59,15.71-2.08,17.29-.59.89.84.94.84,2.2.16s1.41-.67,5.23.27c4.72,1.16,4.87,1.13,6.23-1.13,1.71-2.84,3.47-3.36,5.17-1.55.72.77,1.5,1.4,1.73,1.4.99,0,4.19-1.68,4.87-2.55,1.71-2.19,6.68-1.64,7.29.8.25,1.01,1.49,1.75,2.94,1.75.87,0,4.32-4.18,4.32-5.23s-1.57-1.91-3.39-1.91c-1.48,0-1.74-.16-2.7-1.61-.58-.89-1.66-1.97-2.4-2.41-1.22-.73-2.56-3.56-2.56-5.43,0-1.72,2.92-2.14,4.66-.66,1.93,1.63,2.92,1.09,1.84-1.01-.75-1.45-.58-2.16.6-2.47.69-.18.96.03,1.4,1.08,1.38,3.31,3.69,2.63,2.65-.78-.22-.72-.31-2.13-.2-3.12.18-1.61.07-1.96-1.07-3.26-1.05-1.2-1.23-1.67-1.03-2.69.14-.68.39-2.8.56-4.71.27-3.03.48-3.72,1.63-5.35,1.42-2.02,2.36-4.94,2.37-7.34,0-.82.25-2.1.56-2.83.74-1.77.89-8.52.27-11.5-.61-2.92-.26-5.53.97-7.15,1.07-1.41.9-7.72-.29-10.52-1.86-4.38-1.77-8.02.37-14.07.59-1.68,1.11-4.34,1.32-6.74.19-2.18.49-5.67.68-7.75s.46-4,.62-4.26c.31-.5.78-21.6.58-25.65-.19-3.74-.14-7.34.23-15.74.31-6.95.27-8.01-.33-9.59-.56-1.48-.6-2.05-.22-3.46s.32-2.27-.36-5.28c-.44-1.98-1-4.93-1.24-6.57s-.62-3.99-.86-5.23c-.5-2.69-.25-3.9,1.29-6.24,1.27-1.94,1.45-3.56.61-5.63-2.05-5.06-2.06-8.89-.04-15.61,2.66-8.85,2.59-8.43,2.47-14.5l-.11-5.72-1.96-.99c-2.11-1.07-2.47-1.73-2.54-4.65-.02-.92-.29-2.35-.59-3.17-1.99-5.38-2.24-7.56-1.03-9.12.52-.67.79-1.61.79-2.8,0-1.64.17-1.95,1.95-3.61,1.48-1.39,2.01-2.2,2.22-3.41.15-.87.45-1.93.67-2.35,1.51-2.92.01-22.06-1.95-25-.99-1.48-.65-3.35.85-4.73,1.96-1.8,2.48-4.31,1.88-9.09-.4-3.23-.37-3.93.3-6.32.69-2.48.74-3.97.61-19.62l-.13-16.94-.99-2.12c-.84-1.79-.93-2.31-.58-3.37.23-.69.54-3.21.7-5.61.15-2.4.65-5.7,1.11-7.33,1.78-6.42,2-13.09.59-18.32-.36-1.33-.5-2.8-.35-3.57.14-.72.4-2.16.57-3.2.17-1.04.52-2.1.77-2.36.77-.78.53-2.16-.74-4.16-1.13-1.77-1.19-2.06-.96-4.48.19-1.95.09-3.02-.42-4.36-.37-.98-.75-2.49-.86-3.37-.11-.87-.35-1.76-.55-1.96-.44-.47-.46-6.58-.02-7.27.72-1.14,1.4.59.9,2.29-.6,2-.19,4.85.67,4.69.88-.17,2.13-4.56,1.59-5.57-.23-.44-.29-1.58-.14-2.7.29-2.13-1.01-5.43-2.89-7.33-1.35-1.36-1.33-3.89.05-5.89,1.01-1.46,1.3-2.78,1.1-4.97-.05-.53.2-2.94.55-5.36.69-4.79.26-8.53-1.17-10.12-.35-.39-.82-1.4-1.05-2.24-.23-.84-1.35-2.78-2.5-4.31-3.79-5.05-5.43-8.7-5.16-11.5.17-1.75.01-3.22-.59-5.55-.45-1.74-1.07-4.24-1.37-5.54-.3-1.31-.85-3.06-1.23-3.89-.57-1.26-.6-1.73-.22-2.81.71-1.96.57-3.35-.42-4.27-1.53-1.43-5.16-3.51-6.2-3.56-2.25-.11-3.62.06-5.01.65-1.06.44-2.09.55-3.71.36-1.48-.17-2.33-.1-2.51.19-.46.75-1.32.5-2.79-.8-1.74-1.53-3.96-2.02-5.76-1.26-1.18.5-1.4.48-2.37-.24-1-.74-1.36-.77-5.54-.41-2.46.21-8.2.36-12.76.33s-10.6-.04-13.42-.03c-18.62.09-19.56.06-21.05-.71-1.16-.6-1.79-.67-3.22-.4-1.01.19-3.13.18-4.93-.02-3.66-.42-4.33-.44-4.61-.16m-147.9,3.53c-.37.45-.31.65.32.99,1.85,1,3.38.26,1.73-.83-1.32-.87-1.46-.88-2.05-.16m-6.13,1.16c-1.4,1.03-.48,1.9,1.86,1.76,1.94-.11,2.08-.19,2.2-1.21.14-1.26-2.59-1.63-4.06-.55m-9.32,3.88c.63.68,1.07.8,2.24.61,1.61-.26,2.92.24,2.92,1.12,0,1-1.69,1.59-4.59,1.59-3.16,0-4.25.61-4.69,2.6-.46,2.08-2.64,3.54-5.29,3.54-1.39,0-3.5.39-5.33.99-1.66.55-3.47.99-4.02.99-.77,0-1.13.32-1.58,1.4-.41,1-1.29,1.85-3.04,2.96-1.35.85-3.06,2.01-3.8,2.56-1.46,1.09-2.76,1.29-3.51.53-.79-.79-.54-1.45.81-2.15.71-.37,2.08-1.33,3.06-2.15.98-.81,2.4-1.79,3.16-2.17.76-.38,2-1.18,2.76-1.78,1.81-1.43,8.22-4.81,11.37-5.99,1.37-.52,3.48-1.74,4.69-2.72,1.86-1.51,3.63-2.75,3.96-2.77.05,0,.44.38.87.84m148.52,2.42c.35.27.7.93.77,1.46.1.73.46,1.06,1.51,1.32,2.1.54,2.48,1.01,2.2,2.76-.21,1.31-.07,1.74,1.02,3.09,1.54,1.93,1.81,1.95,2.14.18.3-1.61.78-1.71,3.59-.75,1.71.58,1.95.58,2.94,0,1.36-.8,2.5-.81,3.29-.01.34.34.62.47.62.28,0-.34,3.05-1.3,4.12-1.3.31,0,1.06,1.01,1.67,2.24,1.69,3.41,4.51,3.66,5.6.5.27-.77.67-1.16,1.21-1.16.44,0,1.57-.21,2.51-.46,2.31-.62,3.83-.21,3.83,1.03,0,1.91,1.97,2.76,4.53,1.95,1.79-.56,2.33-.6,3.09-.19,1.65.89,3.47,2.87,3.7,4.04.4,2,1.05,2.2,3.92,1.18,1.9-.67,3.12-.86,4.73-.73,1.2.1,2.27.03,2.38-.15.42-.69,1.74-.34,1.74.46,0,.58-.26.79-.99.79-1.3,0-1.25.55.14,1.55,1.25.89,1.63.75,1.63-.59,0-.67.35-1.01,1.42-1.36,2.43-.8,7.44,5.02,5.85,6.79-1.54,1.71.21,3.78,2.2,2.61l1.19-.71.81,1.38c.45.76,1.45,1.8,2.23,2.3,3.96,2.56,4.25,2.69,5.5,2.46.99-.18,1.34-.06,1.68.57.23.44,1.32,1.38,2.4,2.09,1.1.71,2.4,2.01,2.93,2.9,1.11,1.89,2.85,3.6,4.02,3.96,1.58.48,2.34,3.55.97,3.91-.45.12-.87.67-1,1.33-.13.62-.4,1.68-.61,2.35-.57,1.82-.48,2.37.61,3.67.54.65.99,1.35.99,1.56s.36.8.8,1.31c.57.66.74,1.24.57,2.01-.53,2.43.4,4.14,2.27,4.16,2.29.03,4.38.93,6.14,2.64.81.79,1.96,1.88,2.56,2.43.84.77,1.1,1.38,1.13,2.7.02.94.07,2.72.1,3.96.05,2.04.2,2.41,1.53,3.78,1.75,1.8,1.81,2.2.49,3.35-2.01,1.76,1.15,8.25,3.42,7.02.93-.5,1.51-.15,1.51.89,0,.47-.33.89-.79,1.01-1.04.27-1,.99.14,2.36,1,1.2,2.22,4.89,2.23,6.73,0,.62.34,1.65.76,2.29.59.89.71,1.58.54,3.03-.15,1.32-.03,2.26.43,3.19.89,1.79.5,3.37-1.02,4.16-1.02.53-1.15.77-.91,1.68,1.22,4.64.21,9.39-2.05,9.65-1.55.18-1.57,1.66-.02,1.84,1.89.22,1.84,3.22-.06,3.83-.41.13-1.03.83-1.37,1.55-.63,1.33-2.86,3.11-4.49,3.6-1.96.58-.24,3.65,1.8,3.2.91-.2,1.3.06,2.78,1.78,1.87,2.19,1.9,2.73.1,1.99-.79-.33-1.9-.38-3.47-.17-1.27.17-2.47.32-2.68.33-.35.02-.59,1.86-.73,5.64-.05,1.37.12,1.8,1,2.5,1.23.97,1.91,3.05,1.62,4.89-.16.97,0,1.46.62,2.03,1.34,1.21-.15,4.08-2.6,5.02-1.38.53-1.32,3.59.1,4.83.56.49,1.46,1.78,2,2.87s1.3,2.34,1.68,2.78c1.56,1.79,2.22,5.07,1.49,7.35-.83,2.57-.83,3.45-.02,5.39.49,1.17.59,2.35.44,5-.19,3.41-.17,3.5,1.08,5.27,2.01,2.84,2.19,6.6.54,11.2-1.26,3.52-1.37,4.31-.91,6.91.22,1.24.09,1.68-.77,2.71-1.22,1.46-1.29,2.54-.29,4.82,1.64,3.74,1.84,4.87,1.22,7.09-.33,1.19-.69,1.55-2.09,2.09-2,.77-3.3,3.01-2.7,4.64.22.6.17,1.36-.15,2.13-.51,1.26-.13,8.9.59,11.6.19.7.24,1.65.12,2.11-.12.45-.03,1.22.2,1.69,1.38,2.84,1.75,6.51.78,7.7-.22.27-.31,1.07-.2,1.78.14.88-.12,2.03-.82,3.62l-1.02,2.32,1.06,1.9c.58,1.04,1.06,2.24,1.06,2.65s.26,1.1.58,1.53c1,1.33.36,6.16-1.06,7.98-.24.31.04,1.36.83,3.06,2.24,4.86,2.95,8.42,1.87,9.32-.3.25-.67,1.65-.83,3.12-.45,4.33-1.25,6.77-2.96,9.04-1.96,2.61-1.99,3.57-.19,5.33,1.31,1.28,1.38,1.46,1.11,3.15-.15.99-.26,2.42-.24,3.18.05,1.86-.92,5.25-2.29,8.01l-1.13,2.26.13,7.06c.1,5.47.27,7.39.77,8.53.84,1.92.82,2.77-.14,4.76-.43.9-.79,2.11-.79,2.69,0,.72-.29,1.19-.94,1.48-.7.32-1.15,1.12-1.76,3.15-.79,2.62-1.84,4.08-3.32,4.6-1.74.62.08,3.14,2.27,3.14,1.95,0,1.99,1.58.17,6.16-.75,1.89-5.44.48-6.6-1.99-.28-.6-.78-1.09-1.09-1.09s-.79.49-1.05,1.09c-.26.6-.79,1.41-1.18,1.81-.39.39-.6.91-.46,1.14.17.27.39.19.62-.22.84-1.5,2.47-.07,2.01,1.77-.13.53-.83,1.55-1.56,2.26-1.8,1.79-1.71,2.89.29,3.38,1.49.37,2.64,2.66,2.02,4.03-.33.72-.35,1.27-.08,1.78.51.96.18,1.78-1.04,2.58-.8.53-.93.85-.73,1.81.28,1.3-.65,2.81-2.5,4.02-.94.62-1.06.97-1.17,3.38-.07,1.48-.16,3.22-.2,3.88-.07,1.03.04,1.17.8,1.07.49-.07.89.05.89.26,0,.85-.51,1.64-1.05,1.64-.43,0-.55.48-.48,1.98.07,1.57-.09,2.17-.77,2.9-1.04,1.12-1.05,1.6-.07,3.64,1.31,2.73.12,4.56-2.97,4.56-2.59,0-3.54,1.05-2.48,2.75.91,1.47-.25,2.13-3.33,1.91-2.46-.18-2.75-.12-3.41.73-.88,1.12-4.26,2.42-6.95,2.67-3.63.34-4.05.8-1.96,2.16,1.05.68,1.56.81,2.11.51.79-.43,1.23-.2,1.23.65,0,.75-1.62,2.89-2.18,2.89-2,0-2.16,2.89-.18,3.17,2.64.38,2.12,3.79-.76,5-.77.33-1.77.91-2.2,1.31-.44.4-1.42.84-2.18.98s-1.67.64-2.02,1.11c-.64.85-1.03.82-2.44-.17-.72-.5-1.57.15-2.59,1.97-.17.31-.6.6-.96.65-1.15.17-1.23.63-.34,1.84,1.45,1.97.14,3.53-1.82,2.16-1.17-.82-2.34-.18-2.77,1.51-.31,1.2-.46,1.29-2.48,1.52-1.18.13-2.77.46-3.53.72-.78.27-3.26.46-5.72.44-3.34-.03-4.83.14-6.48.72-1.39.49-2.36.64-2.76.41-.66-.37-6.77-3.13-6.94-3.13-.06,0-.32.54-.59,1.19-.65,1.57-2.8,1.69-4.15.23-.75-.81-1.14-.93-2.5-.74-1.07.14-2.07,0-2.97-.43-1.75-.83-2.1-.81-2.62.15-.57,1.07-2.05,1.01-3.42-.14-3.18-2.67-6.89-2.38-9.8.77-1.54,1.66-1.84,1.82-3.41,1.75-4.03-.16-5,0-6.19,1-1.48,1.25-3.62,1.31-5.47.15-.96-.6-1.7-.77-2.56-.59-.67.13-2.39.05-3.83-.19s-3.33-.49-4.19-.55c-5.32-.42-6.1-.77-6.11-2.7,0-1.71-1.06-3.41-2.28-3.67-.59-.13-1.86-.49-2.83-.8-2.63-.84-3.42-.7-5.22.92-2.91,2.63-5.28,9.88-4.16,12.69.82,2.06.1,3.46-2.09,4.06-1.84.5-2.1,1.6-.78,3.28,1.27,1.62.62,2.72-1.93,3.26-.86.18-2.02,1-3.25,2.27-1.66,1.72-2.06,1.95-3,1.72-3.55-.85-4.64-.76-5.18.42-.29.62-.73,1.58-.99,2.12-.79,1.69-8.09,4.76-11.33,4.76-1.86,0-5.36-.67-8.75-1.67-1.36-.4-1.55-.36-2.45.62-.96,1.04-2.34,1.39-2.76.7-.12-.2-2.43-.32-5.14-.27-4.99.09-6.17-.25-4.51-1.29,2.19-1.37-1.72-4.93-6.64-6.03-1.51-.34-5.06-2.57-9.38-5.89-3.35-2.57-8.38-4.37-7.99-2.86.13.49.03.84-.24.84-.29,0-.27.13.07.34.4.25.33.39-.3.55-.45.12-.82.05-.82-.14s-.27-.36-.59-.36-.59-.18-.59-.4c0-1.33-3.07-.17-5.34,2.02l-1.59,1.54-2.53-.64c-2-.51-2.78-.55-3.77-.19-2.06.75-2.93.56-3.67-.76-.41-.74-1.1-1.3-1.77-1.44-1.48-.31-1.66-.74-1.06-2.55.44-1.32.42-1.64-.11-2.24-.51-.58-1.23-5.14-.73-4.63.22.22,2.8-2.48,2.8-2.94,0-.66-1.11-.83-1.6-.24-.57.69-1.67.73-3.38.1-1.57-.57-4.14.41-5.61,2.15-.51.6-1.27,1.09-1.7,1.09-1.72,0-3.04,1.16-4.3,3.77-2.1,4.35-5.7,5.33-8.17,2.23-2.22-2.78-9.61-4.29-14.59-2.99-2.69.7-3.24.69-4.08-.07-.55-.5-.97-.54-2.1-.23-2.49.69-3.47-1.33-1.86-3.86.57-.89.54-1-.5-1.9-1.48-1.28-3.79-.62-3.79,1.08,0,2.25-2.49,1.01-3.77-1.88-1.66-3.73-3.1-5.06-4.55-4.21-1.55.92-3.12.42-3.13-.98,0-1.69-2.76-3.8-4.84-3.72-1.13.04-2.21-.29-3.69-1.13-2.24-1.27-3.63-1.48-4.85-.72-.59.37-.99.37-1.79,0-2.32-1.06-3.76-.38-3.76,1.79,0,3.17-2.78,6.46-5.47,6.46-1.51,0-2.82.76-2.82,1.64s-1.77.05-2.89-1.35l-1.2-1.49.67-2.87c.37-1.58.67-3.35.66-3.93,0-.67.49-1.59,1.33-2.48.75-.8,1.55-2.23,1.85-3.3.28-1.04.85-2.34,1.26-2.9,1.02-1.41.85-4.85-.25-5.06-.41-.08-1.18-.66-1.71-1.29-.66-.79-1.33-1.15-2.13-1.15-.94,0-1.28-.26-1.75-1.29-.32-.71-.75-1.56-.96-1.88s-.57-1.35-.8-2.28c-.23-.92-.84-2.1-1.35-2.62-2.51-2.52-2.65-4.46-.47-6.77,1.7-1.81,2.4-1.86,2.05-.13-.83,4.06-.5,6.1.74,4.46.78-1.03.79-4.53.03-7.48-.57-2.21-.36-6.16.41-7.4.14-.22-.22-1.22-.81-2.21l-1.06-1.81,1.23-1.21c1.62-1.59,1.91-2.87,1.03-4.51-.65-1.21-.65-1.35-.06-1.95.8-.8.81-1.15.05-1.78-.77-.64-.76-2.16.03-2.94,1.18-1.19,2.06-.74,3.72,1.91,1.66,2.64,2.72,3.3,4.01,2.5,2.19-1.36.35-5.43-2.46-5.43-.42,0-.76-.16-.76-.36s-.79-.66-1.75-1.03c-2.13-.82-3.2-1.92-3.67-3.76-.46-1.8-1.37-1.94-2.71-.42-1.78,2.01-3.38.58-1.77-1.59.46-.62.83-1.71.83-2.43s.27-2.82.59-4.67c.8-4.58.75-5.5-.42-8.08-.87-1.9-.95-2.42-.59-3.52.54-1.65.72-8.03.27-9.71-.57-2.15.66-1.59,2.38,1.08,3.38,5.26,6.3,3.99,6.81-2.96l.23-3.17,1.76-.2c2.46-.28,3.34-1.73,2.06-3.37-.58-.74-.86-1.65-.86-2.78,0-3.62-3.17-6.81-7.1-7.15-4.53-.4-4.15.06-4.12-4.83.01-2.36.16-4.52.33-4.79.17-.28.02-.94-.35-1.51-.44-.67-.57-1.36-.39-2.06.15-.58.33-3.18.4-5.78.1-3.62.3-5.04.85-6.06.68-1.27.68-1.39.02-2.54-1.03-1.8-.38-4.39,1.71-6.93.31-.37.3-1.16-.02-2.82-.25-1.26-.62-3.16-.82-4.21-.31-1.56-.23-2.36.41-4.33,1.03-3.14,1-4.36-.15-6.16-1.45-2.27-1.72-6.14-.47-6.81.69-.37.98-.94,1.12-2.18.1-.93.58-2.22,1.06-2.87.86-1.16.86-1.23.23-3.66-.62-2.39-.61-2.54.17-4.16.55-1.15.73-2.08.57-2.91-.17-.87.05-1.88.8-3.51,1.68-3.68,1.62-9.75-.12-13.1-1.2-2.31-1.24-2.51-.71-3.78.31-.74.48-1.89.38-2.57-.16-1.08.1-1.52,2.03-3.44,1.22-1.21,2.21-2.45,2.21-2.75s.37-.89.83-1.3c1.86-1.69,2.97-6.54,1.93-8.49-.27-.51-.47-1.93-.44-3.16.03-1.42-.16-2.51-.53-3-.72-.95-.77-2.04-.11-2.26.35-.12.49-1.32.49-4.17,0-3.89.03-4.04,1.16-5.22,1.43-1.51,1.63-1.51,2.39-.03.34.66,1.06,1.3,1.61,1.44.83.21.99.46.92,1.49-.39,5.81,1.39,6.18,3.42.71.95-2.57,1.74-2.96,3.19-1.58.6.56,1.47.93,2.22.93,1.38,0,2.91,1.91,1.99,2.49-1.33.84-.99,2.25.74,3.06,1.09.51,1.64,1,1.55,1.39-.08.33-.23.91-.34,1.29-.65,2.3,1.42.52,2.21-1.9,1.1-3.36,1.84-4.45,3.48-5.14,5.22-2.19,6.65-8.7,2.76-12.6-.54-.55-.63-.87-.31-1.19,1.14-1.15.5-1.97-1.36-1.76-1.62.18-1.86.1-2.44-.84-.35-.57-1.23-1.62-1.96-2.32-1.25-1.21-1.31-1.38-1.09-3.37.41-3.67-1.86-7.73-4.03-7.2-.53.13-1.11-.08-1.58-.58-.71-.76-1.37-1.01-2.41-.91-.69.07-.62,1.43.11,2.03.45.38.54.95.35,2.39-.24,1.81-.2,1.92.93,2.51,1.85.96,2.04,3.94.4,6.29-.94,1.36-1.79,1.39-2.28.1-.43-1.15-1.4-1.27-2.71-.35-.86.61-1.02.59-2.55-.26-2.54-1.4-3.02-1.96-3.02-3.49,0-1.09-.3-1.68-1.38-2.67-.86-.79-1.38-1.64-1.38-2.24,0-1.34-1.41-2.49-3.75-3.06-3.92-.96-5.88-2.62-5.25-4.45.29-.85.28-1.47-.03-2.17-.57-1.25-.57-3.14,0-4.21.24-.46.42-1.9.39-3.21-.04-1.71.13-2.58.6-3.1,1.04-1.16,1.43-4.59.66-5.9-.84-1.43-.52-2.53,1.66-5.73,2.04-2.99,2.06-3.07,1.63-6.62-.28-2.3-.19-3,.64-5.35.53-1.49,1.09-3.42,1.24-4.29.48-2.71,1.13-3.38,2.77-2.87.77.24,1.5.32,1.63.19.38-.38-1.73-5.28-3.38-7.86-2.48-3.85-2.72-5.95-1-8.46s1.6-3.97-.49-5.81c-1.51-1.33-1.54-1.68-.46-6.9.98-4.8,1.26-7.78.8-8.78-.54-1.2-.29-1.72.87-1.75,3.2-.08,5-3.01,6.67-10.88.42-1.98,1.61-3.77,2.5-3.77.68,0,1.46-1.04,2.2-2.93.43-1.09.92-1.67,1.48-1.76.46-.07.85-.16.86-.2s.11-1.31.22-2.82.45-3.36.77-4.11c.31-.75.58-1.75.58-2.21.03-2.22,2.82-3.94,3.98-2.46,1.88,2.4,7.45.07,7.64-3.19.14-2.38,3.85-2.89,5.54-.77,1.58,1.98,3.3,1.17,2.35-1.12-.81-1.95-.74-2.92.3-4.21.49-.6,1.18-1.63,1.53-2.28.43-.8,1.05-1.26,1.93-1.44,1.7-.34,2.36-.93,2.36-2.1,0-.76.38-1.12,1.87-1.77,1.82-.78,2.27-.79,5.49-.13,1.11.23,1.32.12,1.86-.93,1.41-2.74,2.25-3,3.49-1.07,1.11,1.73,1.72,1.75,2.41.1.5-1.21,1.5-2.2,4.65-4.63.69-.54,1.6-1.56,2.03-2.28.42-.72,1.03-1.31,1.34-1.31s.83-.62,1.15-1.38c.37-.89.93-1.47,1.56-1.63.54-.14.98-.5.98-.8,0-.37.47-.55,1.41-.55,1.65,0,2.69-.48,4.32-1.98,2.14-1.97,7.7-1.81,7.7.22,0,.93,1.17.65,1.56-.37.41-1.09,2.21-1.83,4.44-1.83,1.16,0,1.75-.25,2.41-1.01.48-.55,1.32-1.05,1.87-1.09,2.32-.19,6.3-4.06,6.3-6.14,0-1.51,1.18-2.64,1.77-1.68.39.64,1.77.7,2.84.13.61-.32,1.51-.64,1.99-.69.48-.06,1.23-.53,1.65-1.05l.77-.95,1.71.9c.94.5,2.24.89,2.89.87s1.74.08,2.41.22c.8.17,1.65.04,2.45-.37,1.65-.86,2.81-.79,3.87.21,1.68,1.59,4.14.57,4.67-1.93.15-.71.39-1.31.54-1.33,2.03-.34,3.23-.45,4.21-.41.65.03,1.99.06,2.99.05,2.05-.01,4.53,1.53,4.95,3.08.25.91,1.74,1.29,1.74.44,0-.31.63-.38,2-.21,1.89.22,2.07.16,3.37-1.13,1.11-1.11,1.67-1.37,2.95-1.37,1.35,0,1.68-.18,2.26-1.19.53-.95.88-1.16,1.66-1.01.54.1,1.99.3,3.22.44,1.63.19,2.45.5,3.02,1.17.43.5,1.79,1.2,3.01,1.56,1.22.36,2.33.92,2.45,1.24.12.33,1.04,1.15,2.03,1.84l1.8,1.25,2.85-1.51c2.21-1.17,3.1-1.45,3.97-1.24.62.15,1.74.42,2.5.6s1.63.39,1.92.48c.3.08.62-.07.72-.34s-.1-.5-.44-.5c-1.59,0-.42-1.12,1.84-1.77,1.36-.39,2.95-.88,3.53-1.09.58-.22,1.74-.28,2.58-.13,1.37.23,1.6.14,2.4-.95,1.67-2.27,6.06-1.56,7.18,1.18.57,1.37,2.63,1.42,4.69.11,1.22-.78,3.41-.49,6.09.81,2.95,1.43,3.14,1.47,7.33,1.49,2.67.02,4.34-.18,5.58-.65.97-.37,2.3-.65,2.95-.62.65.03,1.81-.24,2.57-.59,8.41-3.88,8.63-3.96,9.57-3.23m-217.7,7.27c-.13.34-.24.93-.24,1.3,0,.97-4.28,4.49-5.13,4.22-1.18-.38-1.7.77-1.41,3.1l.26,2.12-1.11-.14c-1.46-.19-2.56.5-1.7,1.06,1.71,1.13,5.15-.08,5.64-1.98.45-1.78.96-2.38,2.01-2.38,2.46,0,4.56-2.32,4.58-5.04.02-2.51-2.16-4.2-2.9-2.26m-5.14.42c-.14.36-.17.73-.07.83.31.32,1.02-.32,1.02-.91,0-.78-.65-.72-.95.08m-4.95,1.12c-.6.73-.22,2.53.59,2.85.99.38,2.62-.22,2.48-.92-.24-1.2-2.51-2.62-3.07-1.93m3.74,19.04c-.43.31-1.81.71-3.05.91-1.75.27-2.45.6-3.11,1.44-.47.6-1.22,1.25-1.68,1.44-.46.2-1.32.75-1.91,1.23-.91.73-1.23.8-2.07.41-.88-.4-1.07-.34-1.62.51-.35.53-1.23,1.32-1.98,1.76-1.66.99-1.96,3.78-.56,5.19.95.95,1.09.96,2.9.2.78-.33,2.05-.59,2.83-.59,1.51,0,4.2-1.18,5.58-2.45.47-.43,1.43-1.08,2.14-1.44,1.16-.6,1.38-1,2.15-3.95.47-1.81,1.06-3.5,1.31-3.75,1.12-1.13.4-1.82-.93-.89m42.17,1.98c.13.35,0,.59-.31.59s-.64-.27-.76-.59c-.13-.35,0-.59.31-.59s.64.27.76.59m-25.4,23.28c-1.19.18-3.15.46-4.34.61l-2.17.29.03,1.7c.03,1.29.3,1.97,1.14,2.85.6.63,1.3,1.57,1.55,2.07,1.15,2.33,4.97.9,5.79-2.16.24-.91.69-2.01,1-2.44,1.53-2.2.29-3.4-3-2.9m308.23,2.88c0,.33-.18.59-.39.59s-.39-.27-.39-.59.18-.59.39-.59.39.27.39.59m-312.95,10.09c-1.08,1.09-.91,2.4.42,3.14,1.7.96,2.35.41,1.79-1.51-.68-2.31-1.17-2.67-2.21-1.63m-.41,9.36c0,.7.85.58,1.09-.16.09-.26-.12-.47-.47-.47s-.62.28-.62.63M.21,137.68c-.14.35-.23,1.12-.21,1.7.03.85.11.76.4-.49.37-1.59.25-2.37-.19-1.21m38.04,47.98c0,.37.27.57.66.5.99-.19,1.13-1.12.16-1.12-.48,0-.82.26-.82.62m-1.36,20.57c.64.64.97,1.42.96,2.28,0,2-.49,2.48-1.42,1.41-2.57-2.96-2.16-6.31.45-3.69m2.94,21.14c0,.39.37,1.02.82,1.41s.99,1.21,1.21,1.84c.41,1.17,1.73,1.8,2.88,1.36,1.32-.51.44-2.1-1.93-3.5-.98-.58-1.78-1.22-1.78-1.43s-.27-.38-.59-.38-.59.32-.59.7m11.12,3.72c.09.62.39.92.92.92,1.18,0,1.06-1.55-.13-1.72-.77-.11-.9.02-.79.79m-1.65,4.49c0,.33.25.59.55.59s.65-.27.78-.59c.15-.4-.02-.59-.55-.59-.43,0-.78.27-.78.59m-5.24,96.78c-.15.15-.28.44-.28.64,0,.48,1.98.21,2.08-.29.1-.47-1.4-.76-1.8-.35m-14.89,63.8c-.21.56-.38,1.09-.38,1.19s.89.17,1.97.17c1.64,0,1.97-.12,1.97-.71,0-1.86-2.9-2.39-3.56-.65m-4.29,12.62c-1.13,1.21-1.03,3.21.15,3.21.98,0,1.94-1.89,1.61-3.2-.3-1.21-.65-1.21-1.77-.01m25.85,16.32c-.29.77.45,2.26.96,1.94.6-.37.45-2.56-.17-2.56-.3,0-.66.28-.79.62m-6.37.98c-.14.23-.14,1.1,0,1.94.16.94.09,1.63-.17,1.79-.88.55-.43,2.14.86,3.05.71.5,1.52,1.13,1.8,1.41.63.61.67.61,2.54.09,2.12-.59,3.67-4.05,2.66-5.94l-.46-.86-1.11,1.07c-1.87,1.8-3.72,1.61-3.87-.39-.15-1.93-1.56-3.29-2.26-2.17m-25.56,2.85c-.09.49-.18.18-.18-.69s.07-1.28.17-.9.1,1.09,0,1.59m33.9,9.54c-.98.72-.73,2.81.36,2.97,1.54.22,2.38-.83,1.79-2.24-.56-1.35-1.07-1.52-2.15-.73m5.37,2.13c-.39.16-.4.34-.05.76.52.63,1.16.39,1.16-.45,0-.59-.23-.65-1.1-.3m267.29,5.44c-.57.42-.67.7-.35,1.02.31.32.56.28.93-.16.76-.92.35-1.55-.57-.86m-293.66,4.1c-1.12,1.8-1.52,4.79-.76,5.64.91,1.01,2.18,1.06,2.18.08,0-.4.44-1.14.99-1.66,1.2-1.13,1.25-2.09.17-3.61-.92-1.3-1.95-1.48-2.58-.46m302.26,3.9c.36.36-.13,1.38-.54,1.12-.19-.12-.35-.48-.35-.79,0-.58.47-.76.89-.33m-275.01,8.22c-.11.29,0,1.03.23,1.66l.43,1.13.81-.81c.79-.79.79-.84.09-1.66-.83-.97-1.27-1.06-1.56-.32m146.49.5c-.83,2.19-.13,3.88,2.18,5.26,2.61,1.56,3.53.44,1.23-1.5-2.31-1.95-2.41-2.01-2.89-2.01-.25,0-.35-.27-.21-.59.13-.33.35-.86.48-1.19.13-.33.06-.59-.15-.59s-.5.28-.63.63m-139.07,2.62c.24.74,1.09.86,1.09.16,0-.34-.28-.63-.62-.63s-.55.21-.47.47m71.27,25.83c.1.52-.06.69-.58.59-.4-.08-.78-.47-.86-.87-.1-.52.06-.69.58-.59.4.08.78.47.86.87m4.8,1.08c0,.97-.92.83-1.11-.16-.08-.39.13-.66.49-.66s.62.34.62.83m95.21,25.22c.38.1,1,.1,1.38,0s.07-.18-.69-.18-1.07.08-.69.18"/></g></svg>