<?xml version="1.0" encoding="utf-8"?>
<!-- Generator: Adobe Illustrator 28.0.0, SVG Export Plug-In . SVG Version: 6.00 Build 0)  -->
<svg version="1.1" id="svg" xmlns="http://www.w3.org/2000/svg" xmlns:xlink="http://www.w3.org/1999/xlink" x="0px" y="0px"
	 viewBox="0 0 400 522.7" style="enable-background:new 0 0 400 522.7;" xml:space="preserve">
<style type="text/css">
	.st0{fill-rule:evenodd;clip-rule:evenodd;fill:#924414;}
	.st1{fill-rule:evenodd;clip-rule:evenodd;fill:#F5DDB6;}
	.st2{fill-rule:evenodd;clip-rule:evenodd;fill:#C8813D;}
</style>
<g id="svgg">
	<path id="path0" class="st0" d="M43.4,61.3c-2.5,0.3-5.2,0.3-14.6,0.1c-6.9-0.2-7.6-0.1-9.4,0.4c-1.1,0.3-3,0.7-4.2,0.8
		c-5.6,0.5-10,4.6-9.3,8.6c0.8,4.8,0.8,5.2-0.4,6.5C4.3,78.8,4.3,79,4,83.1c-0.1,2.4-0.4,4.5-0.5,4.8c-0.2,0.4,0,1.6,1.3,6
		c0.1,0.4-0.2,1.9-0.6,3.4c-1.7,5.8-1.8,6-1.5,9.1c0.6,7.2,0.6,14,0,15.7c-0.8,2-0.8,26.3-0.1,28.4c0.8,2.4,0.8,4.3,0,6.9
		c-0.9,2.6-0.8,10.7,0,9.8c0.2-0.3,0.3-0.1,0.1,0.5c-1.3,4.3-1.4,9-0.2,12.2c0.8,2.4,0.9,2.8,0.6,13.6c-0.3,14.8-0.3,25.9,0.2,28.2
		c0.3,1.4,0.3,2.1-0.2,2.9c-0.7,1.3-0.8,7-0.2,8.3c0.3,0.6,0.3,1.2-0.2,2.4c-0.7,1.8-0.9,8.9-0.2,8.1c0.2-0.3,0.4-0.3,0.4-0.2
		c0,0.2-0.3,0.5-0.7,0.9c-0.6,0.5-0.7,1.5-0.9,7.1c-0.1,3.6-0.4,6.7-0.5,7c-0.4,0.6,1.1,4.6,1.9,5.2c0.8,0.5,0.8,5,0,7.3
		c-0.5,1.2-0.7,3.3-0.8,7.4c-0.1,3.1-0.2,7.2-0.4,8.9c-0.3,3-0.2,3.4,0.7,5.1c1.4,2.6,1.7,4.8,0.9,6.7c-0.4,0.9-0.8,3.5-1,6.1
		c-0.4,4.8-1,9.5-1.4,9.9c-0.1,0.1,0.1,1.1,0.4,2.2c1,3.1,1.1,4.4,0.3,5.7c-0.4,0.6-0.7,1.7-0.7,2.4c0.1,5.1,0,8.7-0.3,11.4
		c-0.5,3.8-0.4,21.9,0.1,21.9c0.2,0,0.2,0.2-0.1,0.4c-0.9,0.8-0.4,86.4,0.5,88.2c0.5,1,0.8,2.8,1,5.3c0.3,4.5,0.6,4.9,4.5,6.5
		c2.8,1.1,3,1.2,10.8,0.8c4.4-0.2,4.9-0.2,8,0.6l3.3,0.8l38.3,0c33.8,0,38.5,0,39.8-0.5c1.2-0.4,2.5-0.4,5.5-0.3
		c15.6,0.6,38.9,0.8,150.8,0.8l124.9,0l2.2-1.1c2.3-1.1,3.2-2,3.6-3.4c0.1-0.5,0.5-1.4,0.8-2.1c0.3-0.6,0.6-1.9,0.6-2.9
		s0.4-2.6,0.8-3.6c1.8-4.3,2.4-10.5,1.3-12.6c-0.3-0.6-0.5-3-0.5-6.7c0-3.5-0.2-6.3-0.5-7c-0.4-0.9-0.3-1.6,0-2.8
		c0.4-1.5,1-14.4,0.8-19.7c-0.1-4.3,0-12.7,0.2-18.8c0.2-4.5,0.1-6.9-0.2-8.3c-0.4-1.7-0.4-2.4,0-3.7c0.4-1.3,0.4-2.8,0.1-6.7
		c-0.2-3.1-0.2-5.4,0-5.9c0.8-1.9,0.4-9.7-0.6-11.6c-0.9-1.9-0.9-2.1,0.6-5.2c1.2-2.3,1.1-3.8,0-4.8c-1-0.8-1.2-7.1-0.8-17.4
		c0.2-4.6,0.2-5.2-0.6-7.1c-0.9-2.2-0.9-2-0.1-12c0.2-2.2,0.6-4.9,1-6c1.2-3.7,1.7-8.1,1.7-15.4c0-4.5,0.2-7.6,0.5-8.2
		c1-2.3,0.2-6.1-1.7-7.3c-0.9-0.6-0.9-3.3,0-5.9c0.5-1.4,0.7-3.5,0.8-8.1c0.1-3.4,0.1-6.5,0.2-7c0-0.5-0.2-1.4-0.6-2
		c-0.6-1-0.6-1.5-0.2-3.2c0.4-1.7,0.4-2.4-0.2-4c-0.4-1.1-0.6-2.4-0.5-3c0.1-0.5,0.5-2.3,0.8-3.9c0.3-1.6,0.9-3.7,1.3-4.6
		c0.5-1.3,0.6-2.3,0.4-4.1c-0.3-3.3-0.3-3.4,0-5.4c0.2-1.3,0.1-2-0.4-2.9c-1.2-2.2-1.4-3.2-0.7-4.5c0.5-1,0.6-2.5,0.7-6.6
		c0-2.9,0.3-6.7,0.5-8.3c0.5-2.9,0.5-93.3,0-96.8c-0.2-1.5-1.8-5.2-2.3-5.7c-1-0.8-0.4-3.3,1.2-5c3-3.2,2.2-8.1-1.7-11.3
		c-0.5-0.4-1.3-1.3-1.9-2c-4.5-5.9-0.2-5.4-44.6-5.3c-20.4,0.1-37.9,0.1-38.8,0.1c-37.1-0.7-57.4,0-62.1,2.1l-1.7,0.8l-1.9-1.5
		l-1.9-1.5l-12.6,0c-9.8,0-13.1,0.1-14.8,0.4c-1.2,0.2-3.5,0.5-5,0.7c-1.5,0.1-4.1,0.6-5.8,1c-6.4,1.6-10,1.7-14,0.1
		c-0.8-0.3-2.9-1-4.6-1.4l-3.1-0.8l-13.8,0c-22.6,0.1-34.4,0.3-34.4,0.8c0,0.6-3.5,1.1-4.3,0.6c-0.6-0.4-0.4-0.4,1.7-0.5l2.4-0.1
		l-2.6-0.2c-4.9-0.4-12.4-0.3-15.4,0.2c-2.1,0.4-5.4,0.5-12.8,0.6c-5.5,0-10.7,0.2-11.6,0.3c-1,0.1-2.1,0.1-2.8-0.2
		c-1.1-0.4-5.7-0.7-15.3-1.1c-3.4-0.1-4.2-0.1-4.6,0.3c-0.5,0.5-2.3,0.7-4.7,0.5l-1.4-0.1l1.6-0.2l1.6-0.2l-1.8,0
		c-1,0-2.8,0.2-4,0.6c-3.5,1-4,1-4.9,0.4C54.4,60.9,49.5,60.5,43.4,61.3 M286.5,67.6c1.8,0.2,4,0.2,5,0c1.4-0.2,2.1-0.2,3.3,0.3
		c1.5,0.6,2.5,0.6,21.3,0.5c2.9,0,9,0,13.6,0c4.6,0,10.4-0.1,12.9-0.3c4.2-0.3,4.6-0.3,5.6,0.3c1,0.6,1.2,0.6,2.4,0.2
		c1.8-0.6,4.1-0.2,5.8,1c1.5,1,2.4,1.2,2.8,0.6c0.2-0.2,1-0.3,2.5-0.1c1.6,0.1,2.7,0.1,3.8-0.3c1.4-0.5,2.8-0.6,5.1-0.5
		c1.1,0,4.7,1.6,6.3,2.7c1,0.7,1.1,1.8,0.4,3.3c-0.4,0.8-0.4,1.2,0.2,2.2c0.4,0.6,0.9,2,1.2,3c0.3,1,0.9,2.9,1.4,4.3
		c0.6,1.8,0.8,2.9,0.6,4.3c-0.3,2.2,1.4,5,5.2,8.9c1.2,1.2,2.3,2.7,2.5,3.3c0.2,0.7,0.7,1.4,1.1,1.7c1.4,1.2,1.9,4.1,1.2,7.8
		c-0.4,1.9-0.6,3.7-0.6,4.1c0.2,1.7-0.1,2.7-1.1,3.8c-1.4,1.5-1.4,3.5,0,4.5c1.9,1.5,3.2,4,2.9,5.7c-0.2,0.9-0.1,1.7,0.1,2.1
		c0.5,0.8-0.7,4.2-1.6,4.3c-0.9,0.1-1.3-2.1-0.7-3.6c0.5-1.3-0.2-2.6-0.9-1.8c-0.4,0.5-0.4,5.3,0,5.6c0.2,0.2,0.4,0.8,0.6,1.5
		c0.1,0.7,0.5,1.8,0.9,2.6c0.5,1,0.6,1.9,0.4,3.4c-0.2,1.9-0.2,2.1,1,3.5c1.3,1.5,1.5,2.6,0.8,3.2c-0.3,0.2-0.6,1-0.8,1.8
		c-0.2,0.8-0.4,1.9-0.6,2.5c-0.2,0.6,0,1.7,0.4,2.8c1.4,4,1.2,9.2-0.6,14.2c-0.5,1.3-1,3.8-1.1,5.7c-0.2,1.9-0.5,3.8-0.7,4.3
		c-0.4,0.8-0.3,1.2,0.6,2.6l1,1.6l0.1,13.1c0.1,12.1,0.1,13.2-0.6,15.2c-0.7,1.8-0.7,2.4-0.3,4.9c0.6,3.7,0.1,5.6-1.9,7
		c-1.5,1.1-1.9,2.5-0.9,3.7c2,2.3,3.5,17.1,2,19.3c-0.2,0.3-0.5,1.1-0.7,1.8c-0.2,0.9-0.8,1.6-2.3,2.6c-1.8,1.3-2,1.5-2,2.8
		c0,0.9-0.3,1.6-0.8,2.2c-1.2,1.2-1,2.9,1,7c0.3,0.6,0.6,1.7,0.6,2.5c0.1,2.3,0.4,2.8,2.6,3.6l2,0.8l0.1,4.4
		c0.1,4.7,0.2,4.4-2.5,11.2c-2,5.2-2,8.1,0,12.1c0.9,1.6,0.7,2.9-0.6,4.4c-1.6,1.8-1.8,2.7-1.3,4.8c0.2,1,0.6,2.8,0.9,4
		c0.2,1.3,0.8,3.5,1.3,5.1c0.7,2.3,0.7,3,0.4,4.1c-0.4,1.1-0.3,1.5,0.2,2.7c0.6,1.2,0.6,2,0.3,7.4c-0.4,6.5-0.4,9.3-0.2,12.2
		c0.2,3.1-0.3,19.4-0.6,19.8c-0.2,0.2-0.4,1.7-0.6,3.3c-0.2,1.6-0.5,4.3-0.7,6c-0.2,1.9-0.7,3.9-1.3,5.2c-2.2,4.7-2.3,7.5-0.4,10.9
		c1.2,2.2,1.4,7,0.3,8.1c-1.2,1.3-1.6,3.3-1,5.5c0.6,2.3,0.5,7.5-0.3,8.9c-0.3,0.6-0.6,1.6-0.6,2.2c0,1.8-1,4.1-2.4,5.7
		c-1.2,1.3-1.4,1.8-1.6,4.1c-0.2,1.5-0.4,3.1-0.6,3.6c-0.2,0.8,0,1.1,1,2.1c1.1,1,1.3,1.3,1.1,2.5c-0.1,0.8,0,1.8,0.2,2.4
		c1.1,2.6-1.3,3.2-2.7,0.6c-0.4-0.8-0.7-1-1.4-0.8c-1.2,0.2-1.4,0.8-0.6,1.9c1.1,1.6,0.1,2-1.9,0.8c-1.8-1.1-4.7-0.8-4.7,0.5
		c0,1.4,1.4,3.6,2.6,4.2c0.7,0.3,1.8,1.2,2.4,1.9c1,1.1,1.2,1.2,2.7,1.2c1.8,0,3.4,0.7,3.4,1.5c0,0.8-3.5,4-4.4,4
		c-1.5,0-2.7-0.6-3-1.4c-0.6-1.9-5.6-2.3-7.4-0.6c-0.7,0.7-3.9,2-4.9,2c-0.2,0-1-0.5-1.8-1.1c-1.7-1.4-3.5-1-5.2,1.2
		c-1.4,1.7-1.5,1.8-6.3,0.9c-3.9-0.7-4-0.7-5.3-0.2c-1.3,0.5-1.3,0.5-2.2-0.1c-1.6-1.1-16.2-0.8-17.5,0.5c-0.6,0.6-1.7,0.5-2.7-0.2
		c-1.1-0.8-1.1-0.8-2.8,0.3c-1.2,0.8-1.6,0.9-3.1,0.8c-1.3-0.1-2.1,0-3.2,0.5c-1.9,0.8-5.8,0.6-8.8-0.4c-1-0.3-2.7-0.7-3.7-0.8
		c-1-0.1-2.7-0.6-3.8-1.1l-2-0.9l-3.2,0.9c-7,1.9-8.7,2.2-12,2c-2.4-0.2-3.5-0.1-5.1,0.3c-1.6,0.4-2.5,0.5-3.9,0.3
		c-1-0.2-2.8-0.2-4.1,0c-1.5,0.2-3,0.1-4.3-0.1c-1.4-0.2-3-0.2-5.5,0c-4.2,0.4-5.2,0.4-6.7-0.1c-0.9-0.3-1.5-0.3-2.6,0
		c-1,0.3-1.8,0.3-2.5,0.1c-0.7-0.2-1.3-0.2-1.8,0.1c-0.4,0.2-1.3,0.6-2,0.9c-0.6,0.3-2.5,0.6-4.1,0.7c-1.6,0.1-5.1,0.4-7.6,0.5
		c-13.2,0.9-46.8,0.7-48.8-0.2c-1.1-0.5-6.5-0.8-11.9-0.7c-13.9,0.3-29.7,0-43.4-0.6c-4.1-0.2-6.6-0.2-7.9,0
		c-1.1,0.2-2.1,0.2-2.3,0.2c-1.2-0.6-10.4-0.7-13.5-0.3c-3,0.4-3.5,0.5-4.9,0c-1.9-0.6-6.1-0.4-7.6,0.4c-1.9,0.9-5.8,1.5-7.3,1
		c-0.7-0.2-2.8-0.7-4.7-1c-1.9-0.3-4.1-0.8-4.9-1.1c-1.8-0.6-3.8-0.6-6.9,0c-2.6,0.5-5.1,0.1-10.2-1.5c-1.2-0.4-3-0.8-3.9-0.9
		c-1.3-0.2-2-0.5-2.7-1.2c-0.6-0.6-1.9-1.3-2.9-1.7c-1-0.4-2.4-1.1-3-1.7c-0.7-0.7-1.7-1.1-2.8-1.4c-0.9-0.2-2.4-0.6-3.2-0.8
		c-3.3-1.1-3.3,0.9,0,3.7c1.2,1,1.3,1.2,0.9,1.9c-0.5,0.9,0.1,1.7,1.3,1.7c0.4,0,0.8,0.1,0.8,0.3c0,0.5-1.8,0.7-2.7,0.4
		c-1-0.4-2.9-0.2-3.7,0.4c-1,0.7-3.7,0.6-5.3-0.2c-0.7-0.4-2.4-1.1-3.6-1.6c-3.4-1.3-4.3-3.9-2-5.7c0.8-0.6,1-1,0.7-1.3
		c-2.9-2.9-4.5-5.7-3.9-6.7c0.1-0.3-0.1-1.2-0.5-2.1c-1.1-2.2-2.8-6.2-3.6-8.3c-0.4-1-1.2-2.5-1.7-3.4c-0.6-0.8-1.4-2.5-1.9-3.7
		c-0.5-1.2-1.1-2.8-1.5-3.6c-0.5-1.3-0.6-1.7-0.1-3.1c0.4-1.4,0.4-1.7-0.1-2.5c-0.7-1.1-0.5-3.1,0.9-6.8l0.8-2.3l-1-1.8
		c-0.6-1.2-1.1-2.7-1.2-4.3c-0.3-2.6-0.2-2.8,1.8-5.8c0.2-0.3,0.7-0.5,1.3-0.5c1.2,0,1.1-0.7-0.5-2.4c-0.6-0.7-1.3-1.7-1.4-2.3
		c-0.1-0.6-0.5-1.8-0.8-2.6c-1.3-3.7-0.8-8,1.2-10.4c0.5-0.6,0.5-0.9-0.2-2.5c-1.3-3.1-0.8-12,0.8-14.3c0.7-1,1.1-4.3,0.8-5.8
		c-0.2-0.8-0.2-2.2,0.1-3.6c0.4-1.9,0.3-2.7-0.2-4.4C9,338,9,336.5,9.2,330.9c0.2-4,0.1-7.2-0.1-8c-0.6-2.1,0-11.6,0.9-14.4
		c0.7-1.9,0.7-2.6,0.4-3.5c-1.1-2.7-0.5-5.9,1.2-6.3c2-0.5,2-2.4,0.1-5.4c-1.5-2.3-1.5-2.3-1.4-5.8c0.1-11.8,0.5-13.4,3.4-15.8
		c2.8-2.4,4.5-7.7,3.4-11.1c-0.3-1.1-0.7-2.9-0.9-3.9c-0.3-2.2-0.9-3-3-3.8c-1.9-0.7-2.1-0.9-2.6-3.1c-0.9-3.8,0.6-10.8,2.7-13
		c0.3-0.3,0.6-1,0.6-1.6c0-0.5,0.3-1.5,0.6-2.1c1-1.8,0.4-4.5-0.9-4.4c-1.3,0.1-1.5-0.4-0.4-1.3c0.8-0.6,0.9-0.7,1-0.2
		c0.2,0.7,0.6,0.7,1.5-0.1c0.5-0.4,0.6-0.8,0.5-1.4c-0.3-0.9-0.9-1-1.5-0.2c-0.7,0.9-1,0.8-1.7-1c-1.2-3-0.5-5.9,1.2-4.9
		c1.4,0.9,1.6-1,0.3-4.1c-0.5-1.2-1-3.5-1.3-5.2c-0.3-1.7-0.7-3.6-1-4.3c-0.3-0.7-0.6-2.3-0.5-3.5c0-1.3,0-4.2,0-6.6
		c0-2.4,0.1-6.1,0.3-8.3c0.4-5.3,0.4-5.5-0.5-7.9c-0.6-1.7-0.7-2.3-0.3-3.5c0.2-0.8,0.5-2.7,0.5-4.3c0-1.6,0.2-3.6,0.5-4.3
		c0.4-1.1,0.4-1.7-0.1-2.7c-0.6-1.4-0.3-3.1,1-6.4c0.4-1.1,0.7-3,0.8-5.5c0.1-3.6,0.1-3.9,1.4-6c2.5-4,3.1-8.3,1.8-11.5
		c-0.6-1.5-0.6-1.7,0-2.4c2.4-2.9,3.3-4.6,2.8-5.6c-0.5-1-0.2-2.1,1.2-3.8c0.4-0.5,0.7-1.2,0.7-1.5c0-0.3,0.5-1.1,1-1.7
		c1.3-1.3,1.3-1.5-0.4-3.1c-1.7-1.6-1.8-2.3-0.4-2.8c0.6-0.2,1.3-0.7,1.6-1.2c0.9-1.3,4.1-2.8,5.8-2.8c1.9,0.1,3.2-0.8,4.8-2.9
		l1.2-1.6h2c2.3,0,3.5-0.6,3.5-1.7c0-0.6,3.1-4.2,4-4.6c0.2-0.1,0.4-0.7,0.4-1.4c0-1.4,2.8-3.4,4.8-3.4c1.5,0,2.6-0.8,4.1-2.9
		l1.3-1.8l3.4-0.1c2.4-0.1,3.6-0.2,4.1-0.6c0.5-0.4,1-0.4,2-0.2c0.7,0.1,3.2,0.3,5.5,0.3c2.3,0,4.7,0.2,5.3,0.4
		c1.6,0.5,1.7,0.5,3.5-0.7c2.3-1.6,0.8-2.2-5.2-2.4c-1.6,0-3.8-0.4-5.8-0.9c-2.5-0.7-3.5-0.8-5-0.7c-1,0.1-2.7,0.3-3.8,0.4
		c-1.4,0.1-2.2,0.4-2.7,0.9c-0.9,0.8-2.2,0.9-2.5,0.2c-0.1-0.3-0.5-0.9-0.8-1.3c-0.4-0.6-0.5-1-0.1-1.8c0.4-0.9,0.4-1-1-2
		c-0.8-0.6-1.4-1.2-1.4-1.5c0-0.6-1-1.2-2.5-1.4c-1.4-0.2-1.7-1.7-0.5-2.8c0.3-0.3,0.6-0.8,0.6-1.1c0-0.8,0.8-1.3,1.9-1.3
		c1.1,0,1.2,0.8,0.3,1.6c-1,0.9,0.2,2.7,1.7,2.7c2.3,0,2.6-0.9,1-2.8c-2.2-2.5-0.3-3.2,4.8-1.9c3.9,1.1,5.3,0.9,6.8-1
		c1.6-2,5-2.6,9-1.6c3.4,0.9,7.4,0.9,8.3,0c0.5-0.6,2.4-0.7,2.8-0.2c0.1,0.2,1.5,0.3,3.1,0.3c1.6,0,3.7,0.2,4.7,0.3
		c3.9,0.6,5,0.7,6.4,0.1c1.4-0.6,3.2-0.7,5.6-0.3c1,0.1,1.6,0.1,1.9-0.3c0.4-0.3,1.1-0.4,3-0.3c3.5,0.2,3.9,0.3,5.7,1.2
		c1.2,0.6,1.8,0.8,2.9,0.6c2.6-0.4,6.1,0.1,6.6,0.9c0.6,1,1.5,1.1,3.4,0.6c2-0.6,6.9,0,9.6,1.3c1.9,0.8,2.9,0.9,3.9,0.3
		c0.9-0.5-0.3-1.5-3.4-2.9c-3.2-1.4-3.3-2-0.4-1.8c2.2,0.2,2.4,0.2,3.1-0.5c0.7-0.7,1-0.7,5.6-0.8c2.7,0,5.3-0.2,5.8-0.3
		c4.4-1.3,8.3-0.6,8.3,1.3c0,1.2,1.4,1,3.9-0.4c1.8-1,2.4-1.2,4-1.2c1,0,2.7-0.2,3.6-0.5c2.2-0.6,3.4-0.4,5.2,0.9
		c4,2.9,8.4,3.4,11.9,1.3c0.5-0.3,0.9-0.3,8.8-0.1c5.5,0.2,5.7,0.2,7.8-0.6c1.9-0.7,2.4-0.8,4.8-0.6c1.5,0.1,3.6,0,4.8-0.1
		c2-0.3,2.3-0.3,4,0.4l1.8,0.7l2.3-0.9c2.7-1.1,11.3-1.5,14.4-0.6c0.9,0.2,2.2,0.4,3,0.4c0.9,0,1.9,0.3,2.6,0.6
		c0.6,0.4,2.2,0.8,3.6,1c1.4,0.2,2.8,0.5,3.1,0.6c0.4,0.1,1.4-0.3,2.5-1c1.8-1.1,2.1-1.2,5.8-1.3c2.1-0.1,4.6-0.4,5.5-0.7
		c1.2-0.4,3.8-0.5,9.6-0.6c4.3-0.1,8-0.2,8.1-0.3C282.1,67.3,282.8,67.3,286.5,67.6 M134.1,70.4c1.7,0.8,0.1,1.4-1.8,0.6
		c-0.6-0.3-0.7-0.4-0.3-0.8C132.6,69.7,132.8,69.7,134.1,70.4 M129.9,71.6c-0.2,1.1-4.1,1.5-4.6,0.5c-0.4-0.8,0.9-1.3,3-1.3
		C130,70.7,130,70.8,129.9,71.6 M114.6,73.9c-0.5,0.2-1.9,1-3.1,1.8c-1.2,0.8-3.4,1.7-4.8,2.1c-3.2,0.9-9.7,3.5-11.5,4.6
		c-0.8,0.5-2,1.1-2.8,1.4c-0.8,0.3-2.2,1.1-3.2,1.7c-1,0.6-2.4,1.4-3.1,1.7c-1.4,0.5-1.6,1.1-0.8,1.7c0.8,0.6,2.1,0.4,3.6-0.4
		c0.7-0.4,2.5-1.3,3.8-2c1.8-0.9,2.7-1.5,3.1-2.3c0.5-0.8,0.8-1.1,1.6-1.1c0.6,0,2.4-0.3,4.1-0.8c1.8-0.5,4-0.8,5.4-0.8
		c2.7,0,4.9-1.1,5.4-2.7c0.4-1.5,1.5-2,4.7-2c2.9,0,4.7-0.5,4.7-1.2c0-0.7-1.3-1.1-3-0.9c-1.2,0.1-1.6,0.1-2.3-0.5
		C115.4,73.4,115.6,73.4,114.6,73.9 M48.5,81.5c2.7,1.1-0.4,5.8-3.9,5.8c-1.1,0-1.6,0.5-2,1.8c-0.5,1.5-4,2.4-5.7,1.5
		c-0.9-0.4,0.2-1,1.7-0.8l1.1,0.1l-0.3-1.6c-0.3-1.8,0.2-2.7,1.4-2.4c0.9,0.2,5.2-2.5,5.2-3.3C46,81.2,46.9,80.8,48.5,81.5 M42,81.9
		c0,0.5-0.7,0.9-1,0.7c-0.3-0.2,0.3-1.1,0.7-1.1C41.9,81.5,42,81.6,42,81.9 M39.2,84.3c0.1,0.5-1.5,1-2.5,0.7
		c-0.8-0.2-1.2-1.6-0.6-2.2C36.6,82.3,38.9,83.4,39.2,84.3 M41.2,97.5c0,0.2-0.2,0.6-0.5,0.8c-0.3,0.2-0.8,1.5-1.3,2.9
		c-0.8,2.3-1,2.6-2.2,3.1c-0.7,0.3-1.7,0.8-2.2,1.1c-1.4,1-4.1,1.9-5.7,1.9c-0.8,0-2.1,0.2-2.9,0.5c-1.8,0.6-2,0.6-2.9-0.2
		c-1.4-1.1-1.1-3.2,0.6-4c0.8-0.3,1.7-1,2-1.4c0.6-0.7,0.8-0.7,1.6-0.4c0.9,0.3,1.2,0.3,2.1-0.3c0.6-0.4,1.5-0.8,1.9-0.9
		c0.5-0.2,1.2-0.7,1.7-1.1c0.7-0.6,1.4-0.9,3.2-1.1c1.3-0.2,2.7-0.5,3.1-0.7C40.9,97,41.2,97,41.2,97.5"/>
	<path id="path1" class="st1" d="M261.9,76.9c-1.9,0.6-4,1.4-4.8,1.7c-0.8,0.3-1.9,0.5-2.6,0.5c-0.7,0-2,0.2-3,0.5
		c-1.3,0.4-2.9,0.5-5.6,0.5c-4.3,0-4.4,0-7.4-1.2c-2.7-1-4.9-1.2-6.2-0.6c-2.1,1-4.2,1-4.7-0.1c-1.1-2.1-5.6-2.7-7.3-0.9
		c-0.8,0.8-1.1,0.9-2.4,0.7c-0.8-0.1-2-0.1-2.6,0.1c-0.6,0.2-2.2,0.5-3.6,0.8c-2.3,0.5-3.5,1.4-1.9,1.4c0.3,0,0.6,0.2,0.4,0.4
		c-0.1,0.2-0.4,0.3-0.7,0.3c-0.3-0.1-1.2-0.2-1.9-0.4c-0.8-0.1-1.9-0.3-2.5-0.5c-0.9-0.2-1.8,0.1-4,1l-2.9,1.2l-1.8-1
		c-1-0.5-1.9-1.2-2.1-1.4c-0.1-0.3-1.2-0.7-2.5-1c-1.2-0.3-2.6-0.8-3.1-1.2c-0.6-0.5-1.4-0.8-3.1-0.9c-1.2-0.1-2.7-0.3-3.3-0.3
		c-0.8-0.1-1.1,0-1.7,0.8c-0.6,0.8-0.9,0.9-2.3,0.9c-1.3,0-1.9,0.2-3,1.1c-1.3,1-1.5,1-3.4,0.9c-1.4-0.1-2-0.1-2,0.2
		c0,0.7-1.5,0.4-1.8-0.3c-0.4-1.2-2.9-2.4-5-2.4c-1,0-2.4,0-3,0c-1,0-2.2,0.1-4.3,0.3c-0.1,0-0.4,0.5-0.5,1c-0.5,1.9-3,2.7-4.7,1.5
		c-1.1-0.8-2.3-0.8-3.9-0.2c-0.8,0.3-1.7,0.4-2.5,0.3c-0.7-0.1-1.8-0.2-2.4-0.2c-0.7,0-2-0.3-2.9-0.7l-1.7-0.7l-0.8,0.7
		c-0.4,0.4-1.2,0.8-1.7,0.8c-0.5,0-1.4,0.3-2,0.5c-1.1,0.4-2.5,0.4-2.9-0.1c-0.6-0.7-1.8,0.1-1.8,1.3c0,1.6-4,4.6-6.4,4.7
		c-0.6,0-1.4,0.4-1.9,0.8c-0.7,0.6-1.3,0.8-2.4,0.8c-2.3,0-4.1,0.6-4.5,1.4c-0.4,0.8-1.6,1-1.6,0.3c0-1.6-5.6-1.7-7.8-0.2
		c-1.7,1.2-2.7,1.5-4.4,1.5c-1,0-1.4,0.1-1.4,0.4c0,0.2-0.4,0.5-1,0.6c-0.6,0.1-1.2,0.6-1.6,1.3c-0.3,0.6-0.8,1.1-1.2,1.1
		c-0.3,0-0.9,0.5-1.4,1c-0.4,0.6-1.4,1.3-2.1,1.8c-3.2,1.9-4.2,2.6-4.7,3.6c-0.7,1.3-1.3,1.3-2.4-0.1c-1.3-1.5-2.1-1.3-3.5,0.8
		c-0.6,0.8-0.8,0.9-1.9,0.7c-3.3-0.5-3.7-0.5-5.6,0.1c-1.5,0.5-1.9,0.8-1.9,1.4c0,0.9-0.7,1.4-2.4,1.6c-0.9,0.1-1.5,0.5-2,1.1
		c-0.4,0.5-1.1,1.3-1.5,1.8c-1.1,1-1.1,1.7-0.3,3.3c1,1.8-0.8,2.4-2.4,0.9c-1.7-1.6-5.5-1.2-5.6,0.6c-0.2,2.5-5.8,4.3-7.7,2.5
		c-1.2-1.1-4,0.2-4,1.9c0,0.4-0.3,1.1-0.6,1.7c-0.3,0.6-0.7,2-0.8,3.2c-0.1,1.2-0.2,2.1-0.2,2.2c0,0-0.4,0.1-0.9,0.2
		c-0.6,0.1-1.1,0.5-1.5,1.4c-0.8,1.5-1.5,2.3-2.2,2.3c-0.9,0-2.1,1.4-2.5,2.9c-1.7,6.1-3.5,8.3-6.8,8.4c-1.2,0-1.4,0.4-0.9,1.3
		c0.5,0.8,0.2,3.1-0.8,6.8c-1.1,4-1.1,4.3,0.5,5.3c2.1,1.4,2.2,2.6,0.5,4.5c-1.7,1.9-1.5,3.6,1,6.5c1.7,2,3.8,5.8,3.4,6.1
		c-0.1,0.1-0.9,0-1.7-0.1c-1.7-0.4-2.3,0.1-2.8,2.2c-0.2,0.7-0.7,2.2-1.3,3.3c-0.8,1.8-0.9,2.4-0.7,4.1c0.4,2.7,0.4,2.8-1.7,5.1
		c-2.2,2.5-2.5,3.3-1.7,4.4c0.8,1,0.4,3.7-0.7,4.6c-0.5,0.4-0.6,1.1-0.6,2.4c0,1-0.1,2.1-0.4,2.5c-0.6,0.8-0.6,2.3,0,3.3
		c0.3,0.5,0.3,1,0,1.7c-0.6,1.4,1.3,2.7,5.3,3.4c2.4,0.4,3.8,1.3,3.8,2.4c0,0.5,0.5,1.1,1.4,1.7c1.1,0.8,1.4,1.2,1.4,2.1
		c0,1.2,0.5,1.6,3.1,2.7c1.6,0.7,1.7,0.7,2.6,0.2c1.3-0.7,2.3-0.6,2.7,0.3c0.5,1,1.4,1,2.3-0.1c1.7-1.8,1.5-4.1-0.4-4.9
		c-1.1-0.5-1.2-0.5-0.9-1.9c0.2-1.1,0.1-1.6-0.4-1.8c-0.7-0.5-0.8-1.5-0.1-1.6c1.1-0.1,1.7,0.1,2.4,0.7c0.5,0.4,1.1,0.5,1.6,0.4
		c2.2-0.4,4.5,2.7,4.1,5.6c-0.2,1.5-0.2,1.7,1.1,2.6c0.7,0.5,1.6,1.3,2,1.8c0.6,0.7,0.8,0.8,2.5,0.6c1.9-0.2,2.5,0.5,1.4,1.4
		c-0.3,0.2-0.2,0.5,0.3,0.9c3.9,3,2.5,8-2.8,9.7c-1.7,0.5-2.4,1.4-3.5,4c-0.8,1.9-2.9,3.2-2.2,1.5c0.1-0.3,0.3-0.7,0.3-1
		c0.1-0.3-0.5-0.7-1.6-1.1c-1.8-0.6-2.1-1.7-0.7-2.4c0.9-0.4-0.6-1.9-2-1.9c-0.8,0-1.6-0.3-2.2-0.7c-1.5-1.1-2.3-0.8-3.2,1.2
		c-2.1,4.2-3.9,3.9-3.5-0.5c0.1-0.8-0.1-1-0.9-1.2c-0.6-0.1-1.3-0.6-1.6-1.1c-0.8-1.1-1-1.1-2.4,0c-1.1,0.9-1.2,1-1.2,4
		c0,2.2-0.1,3.1-0.5,3.2c-0.7,0.2-0.6,1,0.1,1.7c0.4,0.4,0.6,1.2,0.5,2.3c0,0.9,0.2,2,0.4,2.4c1,1.5-0.1,5.2-2,6.6
		c-0.5,0.3-0.8,0.8-0.8,1c0,0.2-1,1.2-2.2,2.1c-2,1.5-2.2,1.8-2.1,2.7c0.1,0.5-0.1,1.4-0.4,2c-0.5,1-0.5,1.1,0.7,2.9
		c1.8,2.6,1.8,7.3,0.1,10.1c-0.8,1.3-1,2-0.8,2.7c0.2,0.6,0,1.4-0.6,2.2c-0.8,1.3-0.8,1.4-0.2,3.2c0.6,1.9,0.6,1.9-0.2,2.8
		c-0.5,0.5-1,1.5-1.1,2.2c-0.1,1-0.4,1.4-1.1,1.7c-1.3,0.5-1,3.5,0.5,5.3c1.2,1.4,1.2,2.3,0.2,4.8c-0.7,1.5-0.7,2.1-0.4,3.3
		c0.2,0.8,0.6,2.3,0.8,3.3c0.3,1.3,0.3,1.9,0,2.2c-2.1,2-2.8,4-1.7,5.4c0.7,0.9,0.7,1,0,2c-0.6,0.8-0.8,1.9-0.9,4.7
		c-0.1,2-0.3,4-0.4,4.5c-0.2,0.5,0,1.1,0.4,1.6c0.4,0.4,0.5,0.9,0.4,1.2c-0.2,0.2-0.3,1.9-0.3,3.7c0,3.8-0.4,3.4,4.2,3.7
		c4,0.3,7.2,2.7,7.2,5.5c0,0.9,0.3,1.6,0.9,2.2c1.3,1.3,0.4,2.4-2.1,2.6l-1.8,0.2l-0.2,2.5c-0.5,5.4-3.5,6.4-6.9,2.3
		c-1.7-2.1-3-2.5-2.4-0.8c0.5,1.3,0.3,6.2-0.3,7.5c-0.4,0.8-0.3,1.2,0.6,2.7c1.2,2,1.2,2.7,0.4,6.2c-0.3,1.4-0.6,3.1-0.6,3.6
		c0,0.6-0.4,1.4-0.8,1.9c-1.6,1.7,0,2.8,1.8,1.2c1.4-1.2,2.3-1.1,2.7,0.3c0.5,1.4,1.6,2.3,3.7,2.9c1,0.3,1.8,0.6,1.8,0.8
		c0,0.2,0.3,0.3,0.8,0.3c2.8,0,4.7,3.1,2.5,4.2c-1.3,0.6-2.4,0.1-4.1-1.9c-1.7-2-2.6-2.4-3.8-1.5c-0.8,0.6-0.8,1.8,0,2.3
		c0.8,0.5,0.8,0.8-0.1,1.4c-0.6,0.5-0.6,0.6,0.1,1.5c0.9,1.3,0.6,2.3-1,3.5l-1.2,0.9l1.1,1.4c0.6,0.8,1,1.5,0.8,1.7
		c-0.8,1-1,4-0.4,5.7c0.8,2.3,0.8,5,0,5.8c-1.3,1.3-1.6-0.3-0.7-3.4c0.4-1.3-0.4-1.3-2.1,0.1c-2.2,1.8-2.1,3.3,0.5,5.2
		c0.5,0.4,1.1,1.3,1.4,2c0.2,0.7,0.6,1.5,0.8,1.8c0.2,0.3,0.6,0.9,1,1.5c0.5,0.8,0.8,1,1.8,1c0.8,0,1.5,0.3,2.2,0.9
		c0.5,0.5,1.3,0.9,1.7,1c1.1,0.2,1.3,2.8,0.3,3.9c-0.4,0.4-1,1.4-1.3,2.2c-0.3,0.8-1.1,1.9-1.9,2.5c-0.8,0.7-1.3,1.4-1.3,1.9
		c0,0.5-0.3,1.8-0.7,3l-0.7,2.2l1.2,1.2c1.1,1.1,2.9,1.7,2.9,1c0-0.7,1.3-1.3,2.9-1.3c2.7,0,5.5-2.5,5.5-5c0-1.7,1.5-2.2,3.8-1.4
		c0.8,0.3,1.2,0.3,1.8,0c1.2-0.6,2.6-0.4,4.9,0.6c1.5,0.6,2.6,0.9,3.7,0.9c2.1-0.1,4.9,1.6,4.9,2.9c0,1.1,1.6,1.5,3.2,0.8
		c1.5-0.7,2.9,0.4,4.6,3.2c1.3,2.2,3.8,3.2,3.8,1.5c0-1.3,2.3-1.8,3.8-0.8c1.1,0.7,1.1,0.8,0.5,1.5c-1.6,1.9-0.6,3.5,1.9,3
		c1.1-0.2,1.6-0.2,2.1,0.2c0.9,0.6,1.4,0.6,4.1,0.1c5-1,12.5,0.2,14.8,2.3c2.5,2.4,6.2,1.6,8.3-1.7c1.3-2,2.6-2.9,4.4-2.9
		c0.4,0,1.2-0.4,1.7-0.8c1.5-1.3,4.1-2.1,5.7-1.7c1.7,0.5,2.8,0.5,3.4-0.1c0.5-0.5,1.6-0.3,1.6,0.2c0,0.4-2.6,2.4-2.8,2.3
		c-0.5-0.4,0.2,3.1,0.7,3.6c0.5,0.5,0.6,0.7,0.1,1.7c-0.6,1.4-0.4,1.7,1.1,2c0.7,0.1,1.4,0.5,1.8,1.1c0.7,1,1.6,1.2,3.7,0.6
		c1-0.3,1.8-0.2,3.8,0.2l2.6,0.5l1.6-1.2c2.3-1.7,5.4-2.6,5.4-1.6c0,0.2,0.3,0.3,0.6,0.3c0.3,0,0.6,0.1,0.6,0.3
		c0,0.2,0.4,0.2,0.8,0.1c0.6-0.1,0.7-0.2,0.3-0.4c-0.3-0.2-0.4-0.3-0.1-0.3c0.3,0,0.4-0.3,0.2-0.7c-0.4-1.2,4.7,0.2,8.1,2.2
		c4.4,2.6,8,4.3,9.5,4.5c5,0.9,8.9,3.6,6.7,4.7c-1.7,0.8-0.5,1.1,4.6,1c2.7,0,5.1,0.1,5.2,0.2c0.4,0.5,1.8,0.3,2.8-0.5
		c0.9-0.8,1.1-0.8,2.5-0.5c3.4,0.8,7,1.3,8.9,1.3c3.3,0,10.7-2.4,11.5-3.7c0.3-0.4,0.7-1.2,1-1.6c0.6-0.9,1.7-1,5.2-0.3
		c1,0.2,1.4,0,3-1.3c1.2-1,2.4-1.6,3.3-1.8c2.6-0.4,3.2-1.3,2-2.5c-1.3-1.3-1.1-2.1,0.8-2.5c2.2-0.5,3-1.5,2.1-3.1
		c-1.1-2.2,1.3-7.8,4.2-9.8c1.8-1.3,2.6-1.4,5.3-0.7c1,0.2,2.3,0.5,2.9,0.6c1.2,0.2,2.3,1.5,2.3,2.8c0,1.5,0.8,1.8,6.2,2.1
		c0.9,0.1,2.8,0.2,4.2,0.4c1.5,0.2,3.2,0.2,3.9,0.1c0.9-0.1,1.6,0,2.6,0.5c1.9,0.9,4,0.8,5.5-0.1c1.2-0.8,2.2-0.9,6.3-0.8
		c1.6,0,1.9-0.1,3.5-1.4c3-2.4,6.7-2.7,9.9-0.6c1.4,0.9,2.9,0.9,3.5,0.1c0.5-0.7,0.9-0.8,2.6-0.1c0.9,0.3,1.9,0.4,3,0.3
		c1.4-0.1,1.8-0.1,2.5,0.6c1.4,1.1,3.5,1,4.2-0.2c0.3-0.5,0.5-0.9,0.6-0.9c0.2,0,6.4,2.1,7,2.4c0.4,0.2,1.4,0.1,2.8-0.3
		c1.7-0.5,3.2-0.6,6.6-0.6c2.5,0,5-0.1,5.8-0.3c0.8-0.2,2.4-0.5,3.6-0.6c2-0.2,2.2-0.2,2.5-1.2c0.4-1.3,1.6-1.8,2.8-1.2
		c2,1.1,3.3-0.1,1.8-1.7c-0.9-0.9-0.8-1.3,0.3-1.4c0.4,0,0.8-0.3,1-0.5c1-1.4,1.9-1.9,2.6-1.5c1.4,0.8,1.8,0.8,2.5,0.1
		c0.4-0.4,1.3-0.7,2-0.9s1.8-0.5,2.2-0.8c0.4-0.3,1.4-0.8,2.2-1c2.9-0.9,3.4-3.6,0.8-3.9c-2-0.2-1.8-2.4,0.2-2.4
		c0.6,0,2.2-1.7,2.2-2.2c0-0.7-0.4-0.8-1.2-0.5c-0.6,0.2-1.1,0.1-2.1-0.4c-2.1-1.1-1.7-1.4,2-1.7c2.7-0.2,6.1-1.2,7-2.1
		c0.7-0.7,1-0.7,3.5-0.6c3.1,0.2,4.3-0.3,3.4-1.5c-1.1-1.3-0.1-2.1,2.5-2.1c3.1,0,4.3-1.4,3-3.5c-1-1.6-1-2,0.1-2.8
		c0.7-0.6,0.9-1,0.8-2.2c-0.1-1.2,0-1.5,0.5-1.5c0.5,0,1.1-0.6,1.1-1.3c0-0.2-0.4-0.3-0.9-0.2c-0.8,0.1-0.9,0-0.8-0.8
		c0-0.5,0.1-1.9,0.2-3c0.1-1.9,0.2-2.1,1.2-2.6c1.9-0.9,2.8-2.1,2.5-3.1c-0.2-0.7-0.1-1,0.7-1.4c1.2-0.6,1.6-1.3,1.1-2
		c-0.3-0.4-0.3-0.8,0.1-1.4c0.6-1.1-0.5-2.8-2-3.1c-2-0.4-2.1-1.2-0.3-2.6c0.7-0.6,1.4-1.3,1.6-1.7c0.5-1.4-1.2-2.5-2-1.4
		c-0.2,0.3-0.5,0.4-0.6,0.2c-0.1-0.2,0.1-0.6,0.5-0.9c0.4-0.3,0.9-0.9,1.2-1.4c0.3-0.5,0.7-0.8,1.1-0.8c0.3,0,0.8,0.4,1.1,0.8
		c1.2,1.9,5.9,3,6.7,1.5c1.8-3.5,1.8-4.8-0.2-4.8c-2.2,0-4.1-2-2.3-2.4c1.5-0.4,2.6-1.5,3.4-3.6c0.6-1.6,1.1-2.2,1.8-2.4
		c0.7-0.2,1-0.6,1-1.1c0-0.4,0.4-1.4,0.8-2.1c1-1.5,1-2.2,0.1-3.7c-0.5-0.9-0.7-2.4-0.8-6.6l-0.1-5.5l1.1-1.7
		c1.4-2.1,2.4-4.7,2.3-6.2c0-0.6,0.1-1.7,0.2-2.5c0.3-1.3,0.2-1.4-1.1-2.4c-1.8-1.4-1.8-2.1,0.2-4.1c1.7-1.8,2.5-3.6,3-7
		c0.2-1.1,0.5-2.2,0.8-2.4c1.1-0.7,0.4-3.4-1.9-7.2c-0.8-1.3-1.1-2.1-0.8-2.4c1.4-1.4,2.1-5.1,1.1-6.2c-0.3-0.3-0.6-0.9-0.6-1.2
		c0-0.3-0.5-1.2-1.1-2.1l-1.1-1.5l1-1.8c0.7-1.2,1-2.1,0.8-2.8c-0.1-0.5,0-1.2,0.2-1.4c1-0.9,0.6-3.8-0.8-5.9
		c-0.2-0.4-0.3-1-0.2-1.3c0.1-0.4,0.1-1.1-0.1-1.6c-0.7-2.1-1.1-8-0.6-9c0.3-0.6,0.4-1.2,0.1-1.6c-0.6-1.3,0.7-3,2.7-3.6
		c1.4-0.4,1.8-0.7,2.1-1.6c0.6-1.7,0.4-2.6-1.2-5.5c-1-1.8-0.9-2.6,0.3-3.7c0.9-0.8,1-1.1,0.8-2.1c-0.5-2-0.4-2.6,0.9-5.3
		c1.7-3.6,1.5-6.5-0.5-8.7c-1.3-1.4-1.3-1.4-1.1-4.1c0.2-2,0-3-0.4-3.9c-0.8-1.5-0.8-2.2,0-4.2c0.7-1.8,0.1-4.3-1.5-5.7
		c-0.4-0.3-1.1-1.3-1.7-2.1c-0.6-0.8-1.5-1.8-2-2.2c-1.4-1-1.5-3.3-0.1-3.7c2.5-0.7,4-2.9,2.6-3.9c-0.6-0.4-0.8-0.8-0.6-1.6
		c0.3-1.4-0.4-3-1.6-3.8c-0.9-0.5-1.1-0.9-1-1.9c0.1-2.9,0.4-4.3,0.7-4.4c0.2,0,1.4-0.1,2.7-0.3c1.6-0.2,2.7-0.1,3.5,0.1
		c1.8,0.6,1.8,0.2-0.1-1.5c-1.5-1.3-1.9-1.5-2.8-1.4c-2.1,0.3-3.8-2-1.8-2.5c1.7-0.4,3.9-1.8,4.5-2.8c0.3-0.6,1-1.1,1.4-1.2
		c1.9-0.5,2-2.8,0.1-3c-1.6-0.1-1.5-1.3,0-1.4c2.3-0.2,3.3-3.9,2.1-7.5c-0.2-0.7-0.1-0.9,0.9-1.3c1.5-0.6,1.9-1.8,1-3.2
		c-0.5-0.7-0.6-1.4-0.4-2.5c0.2-1.1,0-1.6-0.5-2.3c-0.4-0.5-0.8-1.3-0.8-1.8c0-1.4-1.2-4.3-2.3-5.2c-1.2-1.1-1.2-1.6-0.1-1.8
		c0.5-0.1,0.8-0.4,0.8-0.8c0-0.8-0.6-1.1-1.5-0.7c-2.3,0.9-5.5-4.1-3.5-5.4c1.3-0.9,1.3-1.2-0.5-2.6c-1.4-1.1-1.5-1.3-1.6-2.9
		c0-1-0.1-2.3-0.1-3.1c0-1-0.3-1.5-1.1-2.1c-0.6-0.4-1.8-1.3-2.6-1.9c-1.8-1.3-3.9-2-6.2-2c-1.9,0-2.8-1.3-2.3-3.2
		c0.2-0.6,0-1-0.6-1.6c-0.4-0.4-0.8-0.9-0.8-1c0-0.2-0.4-0.7-1-1.2c-1.1-1-1.2-1.4-0.6-2.8c0.2-0.5,0.5-1.3,0.6-1.8
		c0.1-0.5,0.6-0.9,1-1c1.4-0.3,0.6-2.7-1-3c-1.2-0.3-2.9-1.6-4.1-3.1c-0.5-0.7-1.9-1.7-3-2.2c-1.1-0.5-2.2-1.3-2.4-1.6
		c-0.3-0.5-0.7-0.6-1.7-0.4c-1.3,0.2-1.6,0.1-5.6-1.9c-0.8-0.4-1.8-1.2-2.3-1.8l-0.8-1.1l-1.2,0.5c-2,0.9-3.8-0.7-2.2-2
		c1.6-1.4-3.5-5.9-5.9-5.2c-1.1,0.3-1.4,0.5-1.4,1.1c0,1-0.4,1.1-1.7,0.5c-1.4-0.8-1.5-1.2-0.1-1.2c0.7,0,1-0.2,1-0.6
		c0-0.6-1.3-0.9-1.8-0.4c-0.1,0.1-1.2,0.2-2.4,0.1c-1.6-0.1-2.9,0-4.8,0.6c-2.9,0.8-3.6,0.6-4-0.9c-0.2-0.9-2.1-2.4-3.7-3.1
		c-0.8-0.3-1.3-0.3-3.1,0.2c-2.6,0.6-4.6,0-4.6-1.5c0-1-1.5-1.3-3.9-0.8c-1,0.2-2.1,0.4-2.5,0.4c-0.5,0-1,0.3-1.2,0.9
		c-1.1,2.4-4,2.2-5.7-0.4c-0.6-1-1.4-1.7-1.7-1.7c-1.1,0-4.2,0.7-4.2,1c0,0.1-0.3,0-0.6-0.2c-0.8-0.6-2-0.6-3.3,0
		c-1,0.5-1.2,0.5-3,0c-2.8-0.7-3.3-0.7-3.6,0.6c-0.3,1.4-0.6,1.3-2.2-0.1c-1.1-1-1.2-1.4-1-2.4c0.3-1.3-0.1-1.7-2.2-2.1
		c-1.1-0.2-1.4-0.5-1.5-1C267.3,75.4,266.3,75.3,261.9,76.9 M81.5,99.1c0.1,0.3,0.5,0.5,0.8,0.5c0.3,0,0.4-0.2,0.3-0.5
		c-0.1-0.3-0.5-0.5-0.8-0.5C81.5,98.6,81.3,98.8,81.5,99.1 M60.4,118c0,0.4-0.3,1-0.6,1.3c-0.3,0.3-0.8,1.2-1,1.9
		c-0.8,2.4-4.7,3.5-5.9,1.7c-0.3-0.4-1-1.1-1.6-1.6c-0.8-0.7-1.1-1.2-1.2-2.2l0-1.3l2.2-0.2c1.2-0.1,3.2-0.3,4.4-0.5
		C59.4,116.8,60.4,117,60.4,118 M368.3,119.3c0,0.3,0.2,0.5,0.4,0.5s0.4-0.2,0.4-0.5c0-0.3-0.2-0.5-0.4-0.5S368.3,119,368.3,119.3
		 M54.3,128.3c0.6,1.5-0.1,1.9-1.8,1.2c-1.3-0.6-1.5-1.6-0.4-2.4C53.1,126.3,53.6,126.5,54.3,128.3 M52.7,134.2
		c-0.2,0.6-1.1,0.7-1.1,0.1c0-0.3,0.3-0.5,0.6-0.5C52.6,133.8,52.8,134,52.7,134.2 M42.3,204.3c-0.3,0.6-1.5,0.7-1.5,0.1
		c0-0.3,0.3-0.5,0.8-0.5C42.2,204,42.4,204.1,42.3,204.3 M37.4,219.9c-0.3,0.3-0.3,0.6,0.2,1.5c0.9,1.6,2.1,2.6,2.6,2.1
		C41.4,221.9,38.9,218.7,37.4,219.9 M43.6,236.4c0,0.2,0.8,0.7,1.8,1.1c2.4,1.1,3.3,2.3,2,2.7c-1.2,0.3-2.5-0.1-2.9-1.1
		c-0.2-0.5-0.8-1.1-1.2-1.4c-1-0.6-1.1-1.6-0.2-1.6C43.4,236.1,43.6,236.2,43.6,236.4 M55.4,239.6c0,0.9-1.6,0.8-1.7-0.1
		c-0.1-0.6,0-0.7,0.8-0.6C55.1,239,55.4,239.2,55.4,239.6 M53.4,243c-0.1,0.3-0.5,0.5-0.8,0.5c-0.3,0-0.6-0.2-0.6-0.5
		s0.4-0.5,0.8-0.5C53.4,242.5,53.5,242.7,53.4,243 M48.5,318c-0.1,0.4-2.1,0.6-2.1,0.2c0-0.5,0.5-0.7,1.4-0.6
		C48.3,317.7,48.6,317.9,48.5,318 M34.8,366.6c1.2,0.9,0.6,1.5-1.5,1.5c-1.1,0-2-0.1-2-0.1C31.2,366.6,33.5,365.7,34.8,366.6
		 M29.1,376.8c0.3,1-0.6,2.5-1.6,2.5c-1.2,0-1.3-1.5-0.2-2.5C28.4,375.9,28.8,375.9,29.1,376.8 M54.8,389.8c0,1.1-0.6,1.5-1.2,0.7
		c-0.5-0.7-0.2-1.6,0.6-1.6C54.6,388.9,54.8,389.3,54.8,389.8 M48.5,390.2c0.4,0.2,0.7,0.9,0.8,1.6c0.2,1.5,2,1.7,3.9,0.3l1.1-0.8
		l0.5,0.7c1,1.5-0.5,4.1-2.7,4.6c-1.9,0.4-1.9,0.4-2.6-0.1c-0.3-0.2-1.1-0.7-1.8-1.1c-1.3-0.7-1.8-1.9-0.9-2.4
		c0.3-0.1,0.3-0.7,0.2-1.4C46.7,390,47.2,389.4,48.5,390.2 M21,391.8c0,0.7,0.1,0.9,0.2,0.5c0.1-0.4,0.1-0.9,0-1.2
		C21,390.8,20.9,391.2,21,391.8 M57.7,400.3c0.5,0.9,0.4,1-0.2,1.4c-1.2,0.7-2.4,0.4-2.5-0.7C54.6,399.3,56.8,398.8,57.7,400.3
		 M62,401.6c0,0.6-0.6,0.8-1.2,0.4c-0.4-0.3-0.3-0.5,0.1-0.6C61.8,401.1,62,401.2,62,401.6 M332.3,406.3c-0.4,0.3-0.6,0.4-0.9,0.1
		c-0.3-0.2-0.2-0.5,0.4-0.8C332.6,405.1,333,405.5,332.3,406.3 M36.8,409.1c1.1,1.2,1,1.9-0.2,2.8c-0.5,0.4-1,1-1,1.3
		c0,0.8-1.3,0.7-2.2-0.1c-0.7-0.6-0.7-0.8-0.2-2.2C34.2,408,35.3,407.5,36.8,409.1 M339.5,412c0,0.2,0.2,0.5,0.4,0.6
		c0.4,0.2,0.9-0.6,0.5-0.9C340,411.4,339.5,411.6,339.5,412 M63.4,418.4c0.7,0.6,0.7,0.7-0.1,1.3l-0.8,0.6l-0.4-0.9
		C61.3,417.9,62.1,417.2,63.4,418.4 M211,418.5c-0.1,0.3-0.4,0.7-0.5,0.9c-0.1,0.3,0,0.5,0.2,0.5c0.5,0,0.6,0,2.9,1.6
		c2.3,1.5,1.4,2.4-1.2,1.2c-2.5-1.2-3.7-4.6-1.6-4.6C211.1,418,211.1,418.2,211,418.5 M70.4,420.6c0,0.3-0.2,0.4-0.5,0.4
		c-0.7-0.2-0.9-0.8-0.2-0.8C70.1,420.2,70.4,420.4,70.4,420.6 M140.1,440.3c0.1,0.3,0.5,0.6,0.9,0.7c0.5,0.1,0.7,0,0.6-0.5
		c-0.1-0.3-0.5-0.6-0.9-0.7C140.1,439.7,140,439.9,140.1,440.3 M145.3,441.2c0.2,0.8,1.1,0.9,1.1,0.1c0-0.4-0.3-0.6-0.6-0.6
		C145.4,440.7,145.2,440.9,145.3,441.2"/>
	<path id="path2" class="st2" d="M238,61.1c0.4,0.1,1,0.1,1.4,0c0.4-0.1,0.1-0.1-0.7-0.1C238,61,237.6,61.1,238,61.1 M65.8,61.9
		l-1.6,0.2l1.4,0.1c2,0.1,4.1,0,4.6-0.3C70.6,61.5,68.3,61.5,65.8,61.9 M133,61.8c-2,0.1-2.3,0.2-1.7,0.5c0.8,0.4,4.3-0.1,4.3-0.5
		c0-0.1,0-0.2-0.1-0.2S134.3,61.7,133,61.8 M281.8,67.5c-0.1,0.1-3.7,0.2-8.1,0.3c-5.7,0.1-8.3,0.3-9.6,0.6
		c-0.9,0.3-3.4,0.6-5.5,0.7c-3.7,0.2-4,0.3-5.8,1.3c-1.2,0.7-2.2,1.1-2.5,1c-0.3-0.1-1.7-0.4-3.1-0.6c-1.4-0.2-3-0.7-3.6-1
		c-0.6-0.4-1.6-0.6-2.6-0.6c-0.8,0-2.2-0.2-3-0.4c-3.2-0.8-11.7-0.5-14.4,0.6l-2.3,0.9l-1.8-0.7c-1.7-0.7-2-0.7-4-0.4
		c-1.2,0.2-3.4,0.2-4.8,0.1c-2.4-0.2-2.9-0.1-4.8,0.6c-2.1,0.8-2.2,0.8-7.8,0.6c-7.8-0.3-8.2-0.3-8.8,0.1c-3.4,2-7.9,1.5-11.9-1.3
		c-1.8-1.3-3-1.5-5.2-0.9c-1,0.3-2.6,0.5-3.6,0.5c-1.5,0-2.2,0.2-4,1.2c-2.5,1.5-3.9,1.6-3.9,0.4c0-2-3.9-2.6-8.3-1.3
		c-0.5,0.2-3.2,0.3-5.8,0.3c-4.6,0.1-4.9,0.1-5.6,0.8c-0.7,0.7-0.9,0.7-3.1,0.5c-2.9-0.3-2.7,0.4,0.4,1.8c3.1,1.3,4.3,2.4,3.4,2.9
		c-1.1,0.6-2,0.5-3.9-0.3c-2.7-1.2-7.6-1.9-9.6-1.3c-1.9,0.6-2.8,0.4-3.4-0.6c-0.5-0.8-4.1-1.3-6.6-0.9c-1.1,0.2-1.7,0-2.9-0.6
		c-1.7-0.9-2.2-1-5.7-1.2c-1.9-0.1-2.6,0-3,0.3c-0.4,0.3-0.9,0.4-1.9,0.3c-2.4-0.3-4.2-0.2-5.6,0.3c-1.4,0.5-2.5,0.5-6.4-0.1
		c-1-0.2-3.1-0.3-4.7-0.3c-1.6,0-3-0.2-3.1-0.3c-0.4-0.5-2.3-0.4-2.8,0.2c-0.9,0.9-4.9,0.9-8.3,0c-3.9-1-7.3-0.4-9,1.6
		c-1.5,1.8-2.9,2-6.8,1c-5.1-1.4-7-0.6-4.8,1.9c1.6,1.8,1.2,2.8-1,2.8c-1.5,0-2.7-1.9-1.7-2.7c0.9-0.8,0.8-1.6-0.3-1.6
		c-1.1,0-1.9,0.5-1.9,1.3c0,0.3-0.3,0.8-0.6,1.1c-1.2,1-1,2.5,0.5,2.8c1.5,0.2,2.5,0.8,2.5,1.4c0,0.3,0.7,0.9,1.4,1.5
		c1.4,1,1.4,1.1,1,2c-0.3,0.8-0.3,1.1,0.1,1.8c0.3,0.4,0.7,1,0.8,1.3c0.3,0.8,1.7,0.7,2.5-0.2c0.5-0.5,1.3-0.8,2.7-0.9
		c1.1-0.1,2.8-0.3,3.8-0.4c1.5-0.2,2.5,0,5,0.7c2,0.5,4.1,0.9,5.8,0.9c6,0.1,7.5,0.8,5.2,2.4c-1.8,1.2-1.9,1.3-3.5,0.7
		c-0.6-0.2-3-0.4-5.3-0.4c-2.3,0-4.8-0.1-5.5-0.3c-1-0.2-1.5-0.1-2,0.2c-0.5,0.3-1.7,0.5-4.1,0.6l-3.4,0.1l-1.3,1.8
		c-1.5,2.1-2.6,2.9-4.1,2.9c-2,0-4.8,2-4.8,3.4c0,0.7-0.2,1.3-0.4,1.4c-0.9,0.4-4,4-4,4.6c0,1.1-1.2,1.7-3.5,1.7h-2l-1.2,1.6
		c-1.6,2.1-2.9,2.9-4.8,2.9c-1.7,0-5,1.5-5.8,2.8c-0.3,0.5-1,1-1.6,1.2c-1.4,0.5-1.3,1.2,0.4,2.8c1.7,1.6,1.7,1.8,0.4,3.1
		c-0.5,0.6-1,1.3-1,1.7c0,0.3-0.3,1-0.7,1.5c-1.3,1.7-1.7,2.8-1.2,3.8c0.5,0.9-0.4,2.6-2.8,5.6c-0.6,0.8-0.6,0.9,0,2.4
		c1.4,3.2,0.7,7.5-1.8,11.5c-1.3,2-1.3,2.3-1.4,6c-0.1,2.5-0.3,4.4-0.8,5.5c-1.3,3.3-1.6,5.1-1,6.4c0.4,1,0.4,1.6,0.1,2.7
		c-0.3,0.8-0.5,2.7-0.5,4.3c0,1.6-0.2,3.6-0.5,4.3c-0.4,1.2-0.3,1.8,0.3,3.5c0.8,2.4,0.9,2.6,0.5,7.9c-0.2,2.2-0.3,5.9-0.3,8.3
		c0,2.4,0,5.3,0,6.6c0,1.3,0.2,2.8,0.5,3.5c0.3,0.7,0.8,2.6,1,4.3c0.3,1.7,0.8,4,1.3,5.2c1.2,3.1,1.1,5-0.3,4.1
		c-1.6-1-2.3,1.9-1.2,4.9c0.7,1.7,0.9,1.9,1.7,1c0.7-0.8,1.2-0.8,1.5,0.2c0.2,0.5,0,1-0.5,1.4c-0.9,0.7-1.3,0.8-1.5,0.1
		c-0.1-0.5-0.3-0.4-1,0.2c-1.1,0.9-0.9,1.4,0.4,1.3c1.4-0.1,1.9,2.5,0.9,4.4c-0.3,0.6-0.6,1.6-0.6,2.1c0,0.5-0.3,1.2-0.6,1.6
		c-2.2,2.2-3.6,9.2-2.7,13c0.5,2.1,0.7,2.3,2.6,3.1c2,0.8,2.6,1.6,3,3.8c0.1,1,0.5,2.8,0.9,3.9c1.1,3.5-0.6,8.8-3.4,11.1
		c-2.4,2-3.1,4.1-3.3,10.1c-0.2,9.2-0.3,9,1.3,11.5c1.9,3,1.9,4.9-0.1,5.4c-1.6,0.4-2.2,3.6-1.2,6.3c0.3,0.9,0.3,1.6-0.4,3.5
		c-1,2.8-1.6,12.3-0.9,14.4c0.2,0.7,0.2,4,0.1,8C9,336.5,9,338,9.5,339.8c0.5,1.8,0.5,2.6,0.2,4.4c-0.3,1.4-0.3,2.8-0.1,3.6
		c0.4,1.5,0,4.8-0.8,5.8C7.3,356,6.8,364.9,8,367.9c0.7,1.6,0.7,1.9,0.2,2.5c-2,2.4-2.5,6.7-1.2,10.4c0.3,0.8,0.6,2,0.8,2.6
		c0.1,0.6,0.8,1.7,1.4,2.3c1.6,1.6,1.7,2.4,0.5,2.4c-0.5,0-1.1,0.2-1.3,0.5c-2,2.9-2.1,3.2-1.8,5.8c0.2,1.6,0.6,3.2,1.2,4.3l1,1.8
		L8,402.7c-1.3,3.7-1.6,5.7-0.9,6.8c0.5,0.8,0.6,1.2,0.1,2.5c-0.4,1.4-0.4,1.8,0.1,3.1c0.3,0.8,1,2.4,1.5,3.6
		c0.5,1.2,1.3,2.8,1.9,3.7c0.6,0.8,1.4,2.4,1.7,3.4c0.8,2.2,2.6,6.1,3.6,8.3c0.4,0.9,0.7,1.8,0.5,2.1c-0.5,1.1,1.1,3.8,3.9,6.7
		c0.3,0.3,0.1,0.7-0.7,1.3c-2.3,1.8-1.3,4.4,2,5.7c1.2,0.5,2.9,1.2,3.6,1.6c1.6,0.8,4.2,0.9,5.3,0.2c0.8-0.6,2.7-0.8,3.7-0.4
		c0.8,0.3,2.7,0.1,2.7-0.4c0-0.2-0.3-0.3-0.8-0.3c-1.2,0-1.8-0.8-1.3-1.7c0.4-0.7,0.3-0.9-0.9-1.9c-3.3-2.8-3.2-4.7,0-3.7
		c0.8,0.3,2.3,0.6,3.2,0.8c1.1,0.2,2.1,0.7,2.8,1.4c0.6,0.6,2,1.3,3,1.7c1,0.4,2.3,1.1,2.9,1.7c0.8,0.8,1.4,1.1,2.7,1.2
		c0.9,0.1,2.7,0.5,3.9,0.9c5.1,1.6,7.6,2,10.2,1.5c3.1-0.6,5.1-0.6,6.9,0c0.8,0.3,3,0.7,4.9,1.1c1.9,0.3,4,0.8,4.7,1
		c1.5,0.5,5.4-0.1,7.3-1c1.5-0.7,5.7-0.9,7.6-0.4c1.4,0.4,1.9,0.4,4.9,0c3.1-0.5,12.3-0.3,13.5,0.3c0.2,0.1,1.2,0,2.3-0.2
		c1.3-0.2,3.9-0.2,7.9,0c13.6,0.7,29.5,0.9,43.4,0.6c5.4-0.1,10.9,0.2,11.9,0.7c2.1,1,35.7,1.1,48.8,0.2c2.5-0.2,5.9-0.4,7.6-0.5
		c1.6-0.1,3.5-0.4,4.1-0.7c0.6-0.3,1.5-0.7,2-0.9c0.6-0.2,1.1-0.3,1.8-0.1c0.7,0.2,1.5,0.2,2.5-0.1c1.1-0.3,1.7-0.3,2.6,0
		c1.5,0.5,2.5,0.5,6.7,0.1c2.5-0.2,4.1-0.2,5.5,0c1.2,0.2,2.8,0.2,4.3,0.1c1.3-0.2,3.1-0.1,4.1,0c1.4,0.2,2.3,0.2,3.9-0.3
		c1.6-0.4,2.7-0.5,5.1-0.3c3.3,0.2,5-0.1,12-2l3.2-0.9l2,0.9c1.1,0.5,2.8,0.9,3.8,1.1c1,0.1,2.7,0.5,3.7,0.8c3,1,6.9,1.2,8.8,0.4
		c1.2-0.5,2-0.6,3.2-0.5c1.5,0.2,1.8,0.1,3.1-0.8c1.7-1.1,1.7-1.1,2.8-0.3c1,0.7,2,0.8,2.7,0.2c1.3-1.2,15.9-1.6,17.5-0.5
		c0.9,0.6,1,0.6,2.2,0.1c1.3-0.5,1.4-0.5,5.3,0.2c4.8,0.9,4.9,0.9,6.3-0.9c1.7-2.2,3.5-2.6,5.2-1.2c0.7,0.6,1.5,1.1,1.8,1.1
		c1,0,4.2-1.3,4.9-2c1.7-1.7,6.8-1.3,7.4,0.6c0.3,0.8,1.5,1.4,3,1.4c0.9,0,4.4-3.2,4.4-4c0-0.8-1.6-1.5-3.4-1.5
		c-1.5,0-1.8-0.1-2.7-1.2c-0.6-0.7-1.7-1.5-2.4-1.9c-1.2-0.6-2.6-2.8-2.6-4.2c0-1.3,3-1.6,4.7-0.5c2,1.3,3,0.8,1.9-0.8
		c-0.8-1.1-0.6-1.7,0.6-1.9c0.7-0.1,1,0,1.4,0.8c1.4,2.6,3.7,2,2.7-0.6c-0.2-0.6-0.3-1.6-0.2-2.4c0.2-1.2,0.1-1.5-1.1-2.5
		c-1.1-0.9-1.2-1.3-1-2.1c0.1-0.5,0.4-2.2,0.6-3.6c0.3-2.3,0.5-2.9,1.6-4.1c1.4-1.6,2.4-3.8,2.4-5.7c0-0.6,0.3-1.6,0.6-2.2
		c0.7-1.4,0.9-6.6,0.3-8.9c-0.6-2.3-0.3-4.3,1-5.5c1.1-1.1,0.9-6-0.3-8.1c-1.9-3.4-1.8-6.2,0.4-10.9c0.6-1.3,1.1-3.4,1.3-5.2
		c0.2-1.7,0.5-4.4,0.7-6c0.2-1.6,0.5-3.1,0.6-3.3c0.3-0.4,0.8-16.7,0.6-19.8c-0.2-2.9-0.1-5.7,0.2-12.2c0.3-5.4,0.3-6.2-0.3-7.4
		c-0.6-1.1-0.6-1.6-0.2-2.7c0.4-1.1,0.3-1.8-0.4-4.1c-0.4-1.5-1-3.8-1.3-5.1c-0.2-1.3-0.6-3.1-0.9-4c-0.5-2.1-0.3-3,1.3-4.8
		c1.3-1.5,1.5-2.8,0.6-4.4c-2.1-3.9-2.1-6.9,0-12.1c2.7-6.8,2.6-6.5,2.5-11.2l-0.1-4.4l-2-0.8c-2.1-0.8-2.5-1.3-2.6-3.6
		c0-0.7-0.3-1.8-0.6-2.5c-2-4.2-2.3-5.8-1-7c0.5-0.5,0.8-1.2,0.8-2.2c0-1.3,0.2-1.5,2-2.8c1.5-1.1,2-1.7,2.3-2.6
		c0.2-0.7,0.5-1.5,0.7-1.8c1.5-2.3,0-17-2-19.3c-1-1.1-0.7-2.6,0.9-3.7c2-1.4,2.5-3.3,1.9-7c-0.4-2.5-0.4-3,0.3-4.9
		c0.7-1.9,0.7-3.1,0.6-15.2l-0.1-13.1l-1-1.6c-0.8-1.4-0.9-1.8-0.6-2.6c0.2-0.5,0.5-2.5,0.7-4.3c0.2-1.9,0.7-4.4,1.1-5.7
		c1.8-5,2-10.1,0.6-14.2c-0.4-1-0.5-2.2-0.4-2.8c0.1-0.6,0.4-1.7,0.6-2.5c0.2-0.8,0.5-1.6,0.8-1.8c0.8-0.6,0.5-1.7-0.8-3.2
		c-1.1-1.4-1.2-1.6-1-3.5c0.2-1.5,0.1-2.3-0.4-3.4c-0.4-0.8-0.8-1.9-0.9-2.6c-0.1-0.7-0.4-1.4-0.6-1.5c-0.4-0.4-0.5-5.1,0-5.6
		c0.7-0.9,1.4,0.5,0.9,1.8c-0.6,1.5-0.2,3.8,0.7,3.6c0.9-0.1,2.2-3.5,1.6-4.3c-0.2-0.3-0.3-1.2-0.1-2.1c0.3-1.6-1-4.2-2.9-5.7
		c-1.4-1.1-1.3-3,0-4.5c1-1.1,1.3-2.1,1.1-3.8c0-0.4,0.2-2.3,0.6-4.1c0.7-3.7,0.3-6.6-1.2-7.8c-0.4-0.3-0.8-1.1-1.1-1.7
		c-0.2-0.7-1.4-2.1-2.5-3.3c-3.8-3.9-5.5-6.7-5.2-8.9c0.2-1.3,0-2.5-0.6-4.3c-0.5-1.3-1.1-3.3-1.4-4.3c-0.3-1-0.9-2.4-1.2-3
		c-0.6-1-0.6-1.3-0.2-2.2c0.7-1.5,0.6-2.6-0.4-3.3c-1.6-1.1-5.2-2.7-6.3-2.7c-2.3-0.1-3.7,0-5.1,0.5c-1.1,0.3-2.1,0.4-3.8,0.3
		c-1.5-0.1-2.4-0.1-2.5,0.1c-0.5,0.6-1.3,0.4-2.8-0.6c-1.8-1.2-4-1.6-5.8-1c-1.2,0.4-1.4,0.4-2.4-0.2c-1-0.6-1.4-0.6-5.6-0.3
		c-2.5,0.2-8.3,0.3-12.9,0.3c-4.6,0-10.7,0-13.6,0c-18.9,0.1-19.8,0-21.3-0.5c-1.2-0.5-1.8-0.5-3.3-0.3c-1,0.1-3.2,0.1-5,0
		C282.8,67.3,282.1,67.3,281.8,67.5 M132,70.3c-0.4,0.3-0.3,0.5,0.3,0.8c1.9,0.8,3.4,0.2,1.8-0.6C132.8,69.7,132.6,69.7,132,70.3
		 M125.8,71.1c-1.4,0.8-0.5,1.5,1.9,1.4c2-0.1,2.1-0.1,2.2-0.9C130.1,70.6,127.3,70.3,125.8,71.1 M116.4,74.1
		c0.6,0.5,1.1,0.6,2.3,0.5c1.6-0.2,3,0.2,3,0.9c0,0.8-1.7,1.2-4.7,1.2c-3.2,0-4.3,0.5-4.7,2c-0.5,1.6-2.7,2.7-5.4,2.7
		c-1.4,0-3.5,0.3-5.4,0.8c-1.7,0.4-3.5,0.8-4.1,0.8c-0.8,0-1.1,0.2-1.6,1.1c-0.4,0.8-1.3,1.4-3.1,2.3c-1.4,0.7-3.1,1.5-3.8,2
		c-1.5,0.8-2.8,1-3.6,0.4c-0.8-0.6-0.5-1.1,0.8-1.7c0.7-0.3,2.1-1,3.1-1.7c1-0.6,2.4-1.4,3.2-1.7c0.8-0.3,2-0.9,2.8-1.4
		c1.8-1.1,8.3-3.7,11.5-4.6c1.4-0.4,3.5-1.3,4.8-2.1c1.9-1.2,3.7-2.1,4-2.1C115.5,73.5,115.9,73.8,116.4,74.1 M266.8,76
		c0.4,0.2,0.7,0.7,0.8,1.1c0.1,0.6,0.5,0.8,1.5,1c2.1,0.4,2.5,0.8,2.2,2.1c-0.2,1-0.1,1.3,1,2.4c1.6,1.5,1.8,1.5,2.2,0.1
		c0.3-1.2,0.8-1.3,3.6-0.6c1.7,0.5,2,0.5,3,0c1.4-0.6,2.5-0.6,3.3,0c0.3,0.3,0.6,0.4,0.6,0.2c0-0.3,3.1-1,4.2-1
		c0.3,0,1.1,0.8,1.7,1.7c1.7,2.6,4.6,2.8,5.7,0.4c0.3-0.6,0.7-0.9,1.2-0.9c0.4,0,1.6-0.2,2.5-0.4c2.3-0.5,3.9-0.2,3.9,0.8
		c0,1.5,2,2.1,4.6,1.5c1.8-0.4,2.4-0.5,3.1-0.2c1.7,0.7,3.5,2.2,3.7,3.1c0.4,1.5,1.1,1.7,4,0.9c1.9-0.5,3.2-0.7,4.8-0.6
		c1.2,0.1,2.3,0,2.4-0.1c0.4-0.5,1.8-0.3,1.8,0.4c0,0.4-0.3,0.6-1,0.6c-1.3,0-1.3,0.4,0.1,1.2c1.3,0.7,1.7,0.6,1.7-0.5
		c0-0.5,0.4-0.8,1.4-1.1c2.5-0.6,7.5,3.9,5.9,5.2c-1.6,1.3,0.2,2.9,2.2,2l1.2-0.5l0.8,1.1c0.5,0.6,1.5,1.4,2.3,1.8
		c4,2,4.3,2.1,5.6,1.9c1-0.1,1.4,0,1.7,0.4c0.2,0.3,1.3,1.1,2.4,1.6c1.1,0.6,2.4,1.6,3,2.2c1.1,1.5,2.9,2.8,4.1,3.1
		c1.6,0.4,2.4,2.7,1,3c-0.5,0.1-0.9,0.5-1,1c-0.1,0.5-0.4,1.3-0.6,1.8c-0.6,1.4-0.5,1.8,0.6,2.8c0.5,0.5,1,1,1,1.2
		c0,0.2,0.4,0.6,0.8,1c0.6,0.5,0.7,1,0.6,1.6c-0.5,1.9,0.4,3.2,2.3,3.2c2.3,0,4.4,0.7,6.2,2c0.8,0.6,2,1.5,2.6,1.9
		c0.9,0.6,1.1,1.1,1.1,2.1c0,0.7,0.1,2.1,0.1,3.1c0,1.6,0.2,1.9,1.6,2.9c1.8,1.4,1.8,1.7,0.5,2.6c-2,1.4,1.2,6.4,3.5,5.4
		c0.9-0.4,1.5-0.1,1.5,0.7c0,0.4-0.3,0.7-0.8,0.8c-1.1,0.2-1,0.8,0.1,1.8c1,0.9,2.3,3.8,2.3,5.2c0,0.5,0.3,1.3,0.8,1.8
		c0.6,0.7,0.7,1.2,0.5,2.3c-0.2,1,0,1.7,0.4,2.5c0.9,1.4,0.5,2.6-1,3.2c-1,0.4-1.2,0.6-0.9,1.3c1.2,3.6,0.2,7.3-2.1,7.5
		c-1.6,0.1-1.6,1.3,0,1.4c1.9,0.2,1.9,2.5-0.1,3c-0.4,0.1-1,0.6-1.4,1.2c-0.6,1-2.9,2.4-4.5,2.8c-2,0.5-0.2,2.8,1.8,2.5
		c0.9-0.2,1.3,0,2.8,1.4c1.9,1.7,1.9,2.1,0.1,1.5c-0.8-0.3-1.9-0.3-3.5-0.1c-1.3,0.1-2.5,0.2-2.7,0.3c-0.4,0-0.6,1.4-0.7,4.4
		c-0.1,1.1,0.1,1.4,1,1.9c1.2,0.7,1.9,2.4,1.6,3.8c-0.2,0.7,0,1.1,0.6,1.6c1.4,0.9-0.2,3.2-2.6,3.9c-1.4,0.4-1.3,2.8,0.1,3.7
		c0.6,0.4,1.5,1.4,2,2.2c0.6,0.8,1.3,1.8,1.7,2.1c1.6,1.4,2.3,3.9,1.5,5.7c-0.8,2-0.8,2.7,0,4.2c0.5,0.9,0.6,1.8,0.4,3.9
		c-0.2,2.6-0.2,2.7,1.1,4.1c2,2.2,2.2,5.1,0.5,8.7c-1.3,2.7-1.4,3.3-0.9,5.3c0.2,1,0.1,1.3-0.8,2.1c-1.2,1.1-1.3,2-0.3,3.7
		c1.7,2.9,1.9,3.8,1.2,5.5c-0.3,0.9-0.7,1.2-2.1,1.6c-2,0.6-3.3,2.3-2.7,3.6c0.2,0.5,0.2,1.1-0.1,1.6c-0.5,1-0.1,6.9,0.6,9
		c0.2,0.5,0.2,1.3,0.1,1.6c-0.1,0.4,0,0.9,0.2,1.3c1.4,2.2,1.8,5,0.8,5.9c-0.2,0.2-0.3,0.8-0.2,1.4c0.1,0.7-0.1,1.6-0.8,2.8l-1,1.8
		l1.1,1.5c0.6,0.8,1.1,1.7,1.1,2.1c0,0.3,0.3,0.9,0.6,1.2c1,1,0.4,4.8-1.1,6.2c-0.2,0.2,0,1.1,0.8,2.4c2.3,3.8,3,6.5,1.9,7.2
		c-0.3,0.2-0.7,1.3-0.8,2.4c-0.5,3.3-1.3,5.2-3,7c-2,2-2,2.8-0.2,4.1c1.3,1,1.4,1.1,1.1,2.4c-0.2,0.8-0.3,1.9-0.2,2.5
		c0.1,1.4-0.9,4.1-2.3,6.2l-1.1,1.7l0.1,5.5c0.1,4.2,0.3,5.7,0.8,6.6c0.9,1.5,0.8,2.1-0.1,3.7c-0.4,0.7-0.8,1.6-0.8,2.1
		c0,0.6-0.3,0.9-1,1.1c-0.7,0.2-1.2,0.9-1.8,2.4c-0.8,2-1.9,3.1-3.4,3.6c-1.8,0.5,0.1,2.4,2.3,2.4c2,0,2,1.2,0.2,4.8
		c-0.8,1.5-5.5,0.4-6.7-1.5c-0.3-0.5-0.8-0.8-1.1-0.8c-0.3,0-0.8,0.4-1.1,0.8c-0.3,0.5-0.8,1.1-1.2,1.4c-0.4,0.3-0.6,0.7-0.5,0.9
		c0.2,0.2,0.4,0.1,0.6-0.2c0.8-1.2,2.5-0.1,2,1.4c-0.1,0.4-0.8,1.2-1.6,1.7c-1.8,1.4-1.7,2.2,0.3,2.6c1.5,0.3,2.7,2.1,2,3.1
		c-0.3,0.6-0.4,1-0.1,1.4c0.5,0.7,0.2,1.4-1.1,2c-0.8,0.4-0.9,0.7-0.7,1.4c0.3,1-0.7,2.2-2.5,3.1c-1,0.5-1.1,0.7-1.2,2.6
		c-0.1,1.1-0.2,2.5-0.2,3c-0.1,0.8,0,0.9,0.8,0.8c0.5-0.1,0.9,0,0.9,0.2c0,0.7-0.5,1.3-1.1,1.3c-0.4,0-0.6,0.4-0.5,1.5
		c0.1,1.2-0.1,1.7-0.8,2.2c-1.1,0.9-1.1,1.2-0.1,2.8c1.3,2.1,0.1,3.5-3,3.5c-2.6,0-3.6,0.8-2.5,2.1c0.9,1.1-0.3,1.6-3.4,1.5
		c-2.5-0.1-2.8-0.1-3.5,0.6c-0.9,0.9-4.3,1.9-7,2.1c-3.7,0.3-4.1,0.6-2,1.7c1.1,0.5,1.6,0.6,2.1,0.4c0.8-0.3,1.2-0.2,1.2,0.5
		c0,0.6-1.6,2.2-2.2,2.2c-2,0-2.2,2.2-0.2,2.4c2.7,0.3,2.1,2.9-0.8,3.9c-0.8,0.3-1.8,0.7-2.2,1c-0.4,0.3-1.4,0.6-2.2,0.8
		s-1.7,0.5-2,0.9c-0.6,0.7-1,0.6-2.5-0.1c-0.7-0.4-1.6,0.1-2.6,1.5c-0.2,0.2-0.6,0.5-1,0.5c-1.2,0.1-1.2,0.5-0.3,1.4
		c1.5,1.5,0.1,2.7-1.8,1.7c-1.2-0.6-2.4-0.1-2.8,1.2c-0.3,0.9-0.5,1-2.5,1.2c-1.2,0.1-2.8,0.4-3.6,0.6c-0.8,0.2-3.3,0.4-5.8,0.3
		c-3.4,0-4.9,0.1-6.6,0.6c-1.4,0.4-2.4,0.5-2.8,0.3c-0.7-0.3-6.9-2.4-7-2.4c-0.1,0-0.3,0.4-0.6,0.9c-0.7,1.2-2.8,1.3-4.2,0.2
		c-0.8-0.6-1.2-0.7-2.5-0.6c-1.1,0.1-2.1,0-3-0.3c-1.8-0.6-2.1-0.6-2.6,0.1c-0.6,0.8-2.1,0.8-3.5-0.1c-3.2-2.1-7-1.8-9.9,0.6
		c-1.6,1.3-1.9,1.4-3.5,1.4c-4.1-0.1-5.1,0-6.3,0.8c-1.5,1-3.7,1-5.5,0.1c-1-0.5-1.7-0.6-2.6-0.5c-0.7,0.1-2.4,0-3.9-0.1
		c-1.5-0.2-3.4-0.4-4.2-0.4c-5.4-0.3-6.2-0.6-6.2-2.1c0-1.3-1.1-2.6-2.3-2.8c-0.6-0.1-1.9-0.4-2.9-0.6c-2.7-0.7-3.5-0.5-5.3,0.7
		c-2.9,2-5.4,7.6-4.2,9.8c0.8,1.6,0.1,2.7-2.1,3.1c-1.9,0.4-2.1,1.2-0.8,2.5c1.3,1.3,0.6,2.1-2,2.5c-0.9,0.1-2,0.8-3.3,1.8
		c-1.7,1.3-2.1,1.5-3,1.3c-3.6-0.7-4.7-0.6-5.2,0.3c-0.3,0.5-0.7,1.2-1,1.6c-0.8,1.3-8.2,3.7-11.5,3.7c-1.9,0-5.4-0.5-8.9-1.3
		c-1.4-0.3-1.6-0.3-2.5,0.5c-1,0.8-2.4,1.1-2.8,0.5c-0.1-0.2-2.5-0.2-5.2-0.2c-5.1,0.1-6.2-0.2-4.6-1c2.2-1.1-1.7-3.8-6.7-4.7
		c-1.5-0.3-5.1-2-9.5-4.5c-3.4-2-8.5-3.4-8.1-2.2c0.1,0.4,0,0.6-0.2,0.7c-0.3,0-0.3,0.1,0.1,0.3c0.4,0.2,0.3,0.3-0.3,0.4
		c-0.5,0.1-0.8,0-0.8-0.1c0-0.2-0.3-0.3-0.6-0.3c-0.3,0-0.6-0.1-0.6-0.3c0-1-3.1-0.1-5.4,1.6l-1.6,1.2l-2.6-0.5
		c-2-0.4-2.8-0.4-3.8-0.2c-2.1,0.6-3,0.4-3.7-0.6c-0.4-0.6-1.1-1-1.8-1.1c-1.5-0.2-1.7-0.6-1.1-2c0.4-1,0.4-1.3-0.1-1.7
		c-0.5-0.4-1.2-4-0.7-3.6c0.2,0.2,2.8-1.9,2.8-2.3c0-0.5-1.1-0.6-1.6-0.2c-0.6,0.5-1.7,0.6-3.4,0.1c-1.6-0.4-4.2,0.3-5.7,1.7
		c-0.5,0.5-1.3,0.8-1.7,0.8c-1.7,0-3.1,0.9-4.4,2.9c-2.1,3.4-5.8,4.1-8.3,1.7c-2.3-2.1-9.7-3.3-14.8-2.3c-2.7,0.5-3.3,0.5-4.1-0.1
		c-0.6-0.4-1-0.4-2.1-0.2c-2.5,0.5-3.5-1-1.9-3c0.6-0.7,0.5-0.8-0.5-1.5c-1.5-1-3.8-0.5-3.8,0.8c0,1.7-2.5,0.8-3.8-1.5
		c-1.7-2.9-3.1-3.9-4.6-3.2c-1.6,0.7-3.2,0.3-3.2-0.8c0-1.3-2.8-2.9-4.9-2.9c-1.1,0-2.2-0.2-3.7-0.9c-2.3-1-3.7-1.1-4.9-0.6
		c-0.6,0.3-1,0.3-1.8,0c-2.4-0.8-3.8-0.3-3.8,1.4c0,2.5-2.8,5-5.5,5c-1.5,0-2.9,0.6-2.9,1.3c0,0.7-1.8,0-2.9-1l-1.2-1.2l0.7-2.2
		c0.4-1.2,0.7-2.6,0.7-3c0-0.5,0.5-1.2,1.3-1.9c0.8-0.6,1.6-1.7,1.9-2.5c0.3-0.8,0.9-1.8,1.3-2.2c1-1.1,0.9-3.7-0.3-3.9
		c-0.4-0.1-1.2-0.5-1.7-1c-0.7-0.6-1.3-0.9-2.2-0.9c-0.9,0-1.3-0.2-1.8-1c-0.3-0.5-0.8-1.2-1-1.5c-0.2-0.3-0.6-1-0.8-1.8
		c-0.2-0.7-0.8-1.6-1.4-2c-2.5-1.9-2.7-3.4-0.5-5.2c1.7-1.4,2.4-1.4,2.1-0.1c-0.8,3.1-0.5,4.7,0.7,3.4c0.8-0.8,0.8-3.5,0-5.8
		c-0.6-1.7-0.4-4.8,0.4-5.7c0.1-0.2-0.2-0.9-0.8-1.7l-1.1-1.4l1.2-0.9c1.6-1.2,1.9-2.2,1-3.5c-0.7-0.9-0.7-1-0.1-1.5
		c0.8-0.6,0.8-0.9,0.1-1.4c-0.8-0.5-0.8-1.7,0-2.3c1.2-0.9,2.1-0.6,3.8,1.5c1.7,2,2.8,2.5,4.1,1.9c2.2-1,0.4-4.2-2.5-4.2
		c-0.4,0-0.8-0.1-0.8-0.3c0-0.2-0.8-0.5-1.8-0.8c-2.2-0.6-3.2-1.5-3.7-2.9c-0.5-1.4-1.4-1.5-2.7-0.3c-1.8,1.6-3.4,0.5-1.8-1.2
		c0.5-0.5,0.8-1.3,0.8-1.9c0-0.6,0.3-2.2,0.6-3.6c0.8-3.5,0.8-4.2-0.4-6.2c-0.9-1.5-1-1.9-0.6-2.7c0.5-1.3,0.7-6.2,0.3-7.5
		c-0.6-1.7,0.7-1.2,2.4,0.8c3.4,4.1,6.4,3.1,6.9-2.3l0.2-2.5l1.8-0.2c2.5-0.2,3.4-1.3,2.1-2.6c-0.6-0.6-0.9-1.3-0.9-2.2
		c0-2.8-3.2-5.3-7.2-5.5c-4.6-0.3-4.2,0-4.2-3.7c0-1.8,0.2-3.5,0.3-3.7c0.2-0.2,0-0.7-0.4-1.2c-0.4-0.5-0.6-1.1-0.4-1.6
		c0.2-0.4,0.3-2.5,0.4-4.5c0.1-2.8,0.3-3.9,0.9-4.7c0.7-1,0.7-1.1,0-2c-1-1.4-0.4-3.4,1.7-5.4c0.3-0.3,0.3-0.9,0-2.2
		c-0.2-1-0.6-2.4-0.8-3.3c-0.3-1.2-0.2-1.8,0.4-3.3c1-2.4,1-3.4-0.2-4.8c-1.5-1.8-1.7-4.7-0.5-5.3c0.7-0.3,1-0.7,1.1-1.7
		c0.1-0.7,0.6-1.7,1.1-2.2c0.9-0.9,0.9-1,0.2-2.8c-0.6-1.8-0.6-2,0.2-3.2c0.6-0.9,0.7-1.6,0.6-2.2c-0.2-0.7,0.1-1.5,0.8-2.7
		c1.7-2.8,1.6-7.5-0.1-10.1c-1.2-1.8-1.3-1.9-0.7-2.9c0.3-0.6,0.5-1.5,0.4-2c-0.2-0.8,0.1-1.2,2.1-2.7c1.2-0.9,2.2-1.9,2.2-2.1
		c0-0.2,0.4-0.7,0.8-1c1.9-1.3,3-5.1,2-6.6c-0.3-0.4-0.5-1.5-0.4-2.4c0-1.1-0.2-1.9-0.5-2.3c-0.7-0.7-0.8-1.6-0.1-1.7
		c0.4-0.1,0.5-1,0.5-3.2c0-3,0-3.1,1.2-4c1.5-1.2,1.7-1.2,2.4,0c0.3,0.5,1.1,1,1.6,1.1c0.8,0.2,1,0.4,0.9,1.2
		c-0.4,4.5,1.4,4.8,3.5,0.5c1-2,1.8-2.3,3.2-1.2c0.6,0.4,1.5,0.7,2.2,0.7c1.4,0,2.9,1.5,2,1.9c-1.3,0.6-1,1.7,0.7,2.4
		c1.1,0.4,1.7,0.8,1.6,1.1c-0.1,0.3-0.2,0.7-0.3,1c-0.7,1.8,1.4,0.4,2.2-1.5c1.1-2.6,1.9-3.4,3.5-4c5.3-1.7,6.7-6.7,2.8-9.7
		c-0.5-0.4-0.6-0.7-0.3-0.9c1.2-0.9,0.5-1.5-1.4-1.4c-1.6,0.1-1.9,0.1-2.5-0.6c-0.4-0.4-1.2-1.2-2-1.8c-1.3-0.9-1.3-1.1-1.1-2.6
		c0.4-2.8-1.9-6-4.1-5.6c-0.5,0.1-1.1-0.1-1.6-0.4c-0.7-0.6-1.4-0.8-2.4-0.7c-0.7,0.1-0.6,1.1,0.1,1.6c0.5,0.3,0.5,0.7,0.4,1.8
		c-0.2,1.4-0.2,1.5,0.9,1.9c1.9,0.7,2.1,3,0.4,4.9c-1,1-1.8,1.1-2.3,0.1c-0.4-0.9-1.4-1-2.7-0.3c-0.9,0.5-1,0.5-2.6-0.2
		c-2.6-1.1-3.1-1.5-3.1-2.7c0-0.8-0.3-1.3-1.4-2.1c-0.9-0.6-1.4-1.3-1.4-1.7c0-1-1.4-1.9-3.8-2.4c-4-0.7-6-2-5.3-3.4
		c0.3-0.7,0.3-1.1,0-1.7c-0.6-1-0.6-2.4,0-3.3c0.2-0.4,0.4-1.5,0.4-2.5c0-1.3,0.1-2,0.6-2.4c1.1-0.9,1.4-3.5,0.7-4.6
		c-0.9-1.1-0.5-2,1.7-4.4c2.1-2.3,2.1-2.4,1.7-5.1c-0.3-1.8-0.2-2.3,0.7-4.1c0.5-1.1,1.1-2.6,1.3-3.3c0.5-2.1,1.1-2.6,2.8-2.2
		c0.8,0.2,1.5,0.2,1.7,0.1c0.4-0.3-1.7-4.1-3.4-6.1c-2.5-3-2.8-4.6-1-6.5c1.7-1.9,1.6-3.1-0.5-4.5c-1.5-1-1.6-1.3-0.5-5.3
		c1-3.7,1.3-6,0.8-6.8c-0.6-0.9-0.3-1.3,0.9-1.3c3.2-0.1,5.1-2.3,6.8-8.4c0.4-1.5,1.6-2.9,2.5-2.9c0.7,0,1.5-0.8,2.2-2.3
		c0.4-0.8,0.9-1.3,1.5-1.4c0.5-0.1,0.9-0.1,0.9-0.2c0,0,0.1-1,0.2-2.2c0.1-1.2,0.5-2.6,0.8-3.2c0.3-0.6,0.6-1.3,0.6-1.7
		c0-1.7,2.9-3,4-1.9c1.9,1.9,7.5,0.1,7.7-2.5c0.1-1.8,3.9-2.2,5.6-0.6c1.6,1.5,3.3,0.9,2.4-0.9c-0.8-1.5-0.7-2.3,0.3-3.3
		c0.5-0.5,1.2-1.3,1.5-1.8c0.4-0.6,1.1-1,2-1.1c1.7-0.3,2.4-0.7,2.4-1.6c0-0.6,0.4-0.9,1.9-1.4c1.8-0.6,2.3-0.6,5.6-0.1
		c1.1,0.2,1.3,0.1,1.9-0.7c1.4-2.1,2.3-2.3,3.5-0.8c1.1,1.3,1.7,1.4,2.4,0.1c0.5-0.9,1.5-1.7,4.7-3.6c0.7-0.4,1.6-1.2,2.1-1.8
		c0.4-0.6,1-1,1.4-1c0.3,0,0.8-0.5,1.2-1.1c0.4-0.7,0.9-1.1,1.6-1.3c0.5-0.1,1-0.4,1-0.6c0-0.3,0.5-0.4,1.4-0.4
		c1.7,0,2.7-0.4,4.4-1.5c2.2-1.5,7.8-1.4,7.8,0.2c0,0.7,1.2,0.5,1.6-0.3c0.4-0.8,2.2-1.4,4.5-1.4c1.2,0,1.8-0.2,2.4-0.8
		c0.5-0.4,1.3-0.8,1.9-0.8c2.4-0.1,6.4-3.1,6.4-4.7c0-1.2,1.2-2,1.8-1.3c0.4,0.5,1.8,0.5,2.9,0.1c0.6-0.3,1.5-0.5,2-0.5
		c0.5,0,1.2-0.4,1.7-0.8l0.8-0.7l1.7,0.7c1,0.4,2.3,0.7,2.9,0.7c0.7,0,1.8,0.1,2.4,0.2c0.8,0.1,1.7,0,2.5-0.3
		c1.7-0.7,2.8-0.6,3.9,0.2c1.7,1.2,4.2,0.4,4.7-1.5c0.2-0.5,0.4-1,0.5-1c2.1-0.3,3.3-0.4,4.3-0.3c0.7,0,2,0,3,0c2.1,0,4.6,1.2,5,2.4
		c0.3,0.7,1.8,1,1.8,0.3c0-0.2,0.6-0.3,2-0.2c1.9,0.2,2.1,0.1,3.4-0.9c1.1-0.9,1.7-1.1,3-1.1c1.4,0,1.7-0.1,2.3-0.9
		c0.5-0.7,0.9-0.9,1.7-0.8c0.5,0.1,2,0.2,3.3,0.3c1.7,0.1,2.5,0.4,3.1,0.9c0.4,0.4,1.8,0.9,3.1,1.2c1.2,0.3,2.4,0.7,2.5,1
		c0.1,0.3,1.1,0.9,2.1,1.4l1.8,1L201,81c2.2-0.9,3.1-1.1,4-1c0.6,0.1,1.8,0.3,2.5,0.5c0.8,0.1,1.6,0.3,1.9,0.4
		c0.3,0.1,0.6-0.1,0.7-0.3c0.1-0.2-0.1-0.4-0.4-0.4c-1.6,0-0.4-0.9,1.9-1.4c1.4-0.3,3-0.7,3.6-0.8c0.6-0.2,1.8-0.2,2.6-0.1
		c1.4,0.2,1.6,0.1,2.4-0.7c1.7-1.8,6.1-1.2,7.3,0.9c0.6,1.1,2.7,1.1,4.7,0.1c1.2-0.6,3.5-0.4,6.2,0.6c3,1.1,3.2,1.1,7.4,1.2
		c2.7,0,4.4-0.1,5.6-0.5c1-0.3,2.3-0.5,3-0.5c0.7,0,1.8-0.2,2.6-0.5C265.6,75.5,265.9,75.5,266.8,76 M46.3,81.6
		c-0.1,0.3-0.2,0.7-0.2,1c0,0.7-4.3,3.5-5.2,3.3c-1.2-0.3-1.7,0.6-1.4,2.4l0.3,1.6l-1.1-0.1c-1.5-0.1-2.6,0.4-1.7,0.8
		c1.7,0.9,5.2-0.1,5.7-1.5c0.5-1.4,1-1.8,2-1.8c2.5,0,4.6-1.8,4.6-3.9C49.2,81.4,47,80.1,46.3,81.6 M41.1,82
		c-0.1,0.3-0.2,0.6-0.1,0.6c0.3,0.2,1-0.2,1-0.7C42,81.3,41.4,81.3,41.1,82 M36.1,82.8c-0.6,0.6-0.2,2,0.6,2.2
		c1,0.3,2.7-0.2,2.5-0.7C38.9,83.4,36.6,82.3,36.1,82.8 M39.8,97.5c-0.4,0.2-1.8,0.6-3.1,0.7c-1.8,0.2-2.5,0.5-3.2,1.1
		c-0.5,0.5-1.2,1-1.7,1.1c-0.5,0.2-1.3,0.6-1.9,0.9c-0.9,0.6-1.2,0.6-2.1,0.3c-0.9-0.3-1.1-0.3-1.6,0.4c-0.3,0.4-1.3,1-2,1.4
		c-1.7,0.8-2,2.9-0.6,4c1,0.7,1.1,0.7,2.9,0.2c0.8-0.3,2.1-0.5,2.9-0.5c1.5,0,4.3-0.9,5.7-1.9c0.5-0.3,1.4-0.8,2.2-1.1
		c1.2-0.5,1.4-0.8,2.2-3.1c0.5-1.4,1.1-2.7,1.3-2.9C41.9,97.3,41.2,96.8,39.8,97.5 M82.6,99.1c0.1,0.3,0,0.5-0.3,0.5
		c-0.3,0-0.6-0.2-0.8-0.5c-0.1-0.3,0-0.5,0.3-0.5C82.1,98.6,82.4,98.8,82.6,99.1 M56.8,117c-1.2,0.1-3.2,0.4-4.4,0.5l-2.2,0.2l0,1.3
		c0,1,0.3,1.5,1.2,2.2c0.6,0.5,1.3,1.2,1.6,1.6c1.2,1.8,5,0.7,5.9-1.7c0.2-0.7,0.7-1.6,1-1.9C61.4,117.6,60.2,116.7,56.8,117
		 M369.1,119.3c0,0.3-0.2,0.5-0.4,0.5s-0.4-0.2-0.4-0.5c0-0.3,0.2-0.5,0.4-0.5S369.1,119,369.1,119.3 M52,127.1
		c-1.1,0.8-0.9,1.9,0.4,2.4c1.7,0.7,2.4,0.3,1.8-1.2C53.6,126.5,53.1,126.3,52,127.1 M51.6,134.3c0,0.5,0.9,0.4,1.1-0.1
		c0.1-0.2-0.1-0.4-0.5-0.4C51.9,133.8,51.6,134,51.6,134.3 M2.3,167.4c-0.1,0.3-0.2,0.9-0.2,1.3c0,0.7,0.1,0.6,0.4-0.4
		C2.9,167.1,2.8,166.5,2.3,167.4 M40.8,204.4c0,0.3,0.3,0.4,0.7,0.4c1-0.1,1.1-0.9,0.2-0.9C41.2,204,40.8,204.1,40.8,204.4
		 M39.5,220.3c0.6,0.5,1,1.1,1,1.8c0,1.5-0.5,1.9-1.4,1.1C36.4,220.9,36.8,218.3,39.5,220.3 M42.4,236.7c0,0.3,0.4,0.8,0.8,1.1
		c0.5,0.3,1,0.9,1.2,1.4c0.4,0.9,1.8,1.4,2.9,1.1c1.3-0.4,0.4-1.6-2-2.7c-1-0.4-1.8-0.9-1.8-1.1s-0.3-0.3-0.6-0.3
		C42.7,236.1,42.4,236.4,42.4,236.7 M53.7,239.5c0.1,0.5,0.4,0.7,0.9,0.7c1.2,0,1.1-1.2-0.1-1.3C53.7,238.8,53.6,238.9,53.7,239.5
		 M52,243c0,0.3,0.3,0.5,0.6,0.5c0.3,0,0.7-0.2,0.8-0.5c0.2-0.3,0-0.5-0.6-0.5C52.4,242.5,52,242.7,52,243 M46.7,317.8
		c-0.2,0.1-0.3,0.3-0.3,0.5c0,0.4,2,0.2,2.1-0.2C48.7,317.7,47.1,317.4,46.7,317.8 M31.6,367c-0.2,0.4-0.4,0.8-0.4,0.9
		c0,0.1,0.9,0.1,2,0.1c1.7,0,2-0.1,2-0.6C35.2,366.1,32.3,365.7,31.6,367 M27.3,376.8c-1.1,0.9-1,2.5,0.2,2.5c1,0,2-1.5,1.6-2.5
		C28.8,375.9,28.4,375.9,27.3,376.8 M53.5,389.4c-0.3,0.6,0.5,1.7,1,1.5c0.6-0.3,0.5-2-0.2-2C54,388.9,53.6,389.1,53.5,389.4
		 M47,390.2c-0.1,0.2-0.1,0.8,0,1.5c0.2,0.7,0.1,1.3-0.2,1.4c-0.9,0.4-0.4,1.6,0.9,2.4c0.7,0.4,1.5,0.9,1.8,1.1
		c0.6,0.5,0.7,0.5,2.6,0.1c2.1-0.5,3.7-3.1,2.7-4.6l-0.5-0.7l-1.1,0.8c-1.9,1.4-3.8,1.2-3.9-0.3C49.2,390.3,47.7,389.3,47,390.2
		 M21.1,392.4c-0.1,0.4-0.2,0.1-0.2-0.5c0-0.7,0.1-1,0.2-0.7C21.2,391.4,21.2,392,21.1,392.4 M55.5,399.7c-1,0.6-0.7,2.2,0.4,2.3
		c1.6,0.2,2.4-0.6,1.8-1.7C57.1,399.3,56.6,399.1,55.5,399.7 M60.9,401.4c-0.4,0.1-0.4,0.3-0.1,0.6c0.5,0.5,1.2,0.3,1.2-0.4
		C62,401.2,61.8,401.1,60.9,401.4 M331.7,405.6c-0.6,0.3-0.7,0.5-0.4,0.8c0.3,0.2,0.6,0.2,0.9-0.1
		C333,405.5,332.6,405.1,331.7,405.6 M34.2,408.8c-1.1,1.4-1.5,3.7-0.8,4.4c0.9,0.8,2.2,0.8,2.2,0.1c0-0.3,0.4-0.9,1-1.3
		c1.2-0.9,1.3-1.6,0.2-2.8C35.9,408.1,34.8,408,34.2,408.8 M340.4,411.8c0.4,0.3-0.1,1.1-0.5,0.9c-0.2-0.1-0.4-0.4-0.4-0.6
		C339.5,411.6,340,411.4,340.4,411.8 M61.8,418.1c-0.1,0.2,0,0.8,0.2,1.3l0.4,0.9l0.8-0.6c0.8-0.6,0.8-0.6,0.1-1.3
		C62.5,417.6,62.1,417.5,61.8,418.1 M210.2,418.5c-0.8,1.7-0.1,3,2.2,4.1c2.6,1.2,3.6,0.3,1.2-1.2c-2.3-1.5-2.4-1.6-2.9-1.6
		c-0.3,0-0.3-0.2-0.2-0.5c0.1-0.3,0.4-0.7,0.5-0.9c0.1-0.3,0.1-0.5-0.2-0.5S210.3,418.2,210.2,418.5 M69.3,420.5
		c0.2,0.6,1.1,0.7,1.1,0.1c0-0.3-0.3-0.5-0.6-0.5C69.4,420.2,69.2,420.3,69.3,420.5 M141.5,440.5c0.1,0.4-0.1,0.5-0.6,0.5
		c-0.4-0.1-0.8-0.4-0.9-0.7c-0.1-0.4,0.1-0.5,0.6-0.5C141,439.9,141.4,440.2,141.5,440.5 M146.4,441.3c0,0.7-0.9,0.6-1.1-0.1
		c-0.1-0.3,0.1-0.5,0.5-0.5C146.1,440.7,146.4,440.9,146.4,441.3 M242.8,460.8c0.4,0.1,1,0.1,1.4,0c0.4-0.1,0.1-0.1-0.7-0.1
		C242.8,460.7,242.4,460.7,242.8,460.8"/>
</g>
</svg>
