<?xml version="1.0" encoding="UTF-8"?><svg id="a" xmlns="http://www.w3.org/2000/svg" viewBox="0 0 385.89 517.58"><defs><style>.d{fill:#c8813d;fill-rule:evenodd;stroke-width:0px;}</style></defs><g id="b"><path id="c" class="d" d="m232.91.18c.38.1,1,.1,1.38,0s.07-.18-.69-.18-1.07.08-.69.18M62.91,1.1l-1.58.28,1.38.13c2.02.19,4.09,0,4.52-.44.43-.43-1.89-.41-4.32.03m66.3-.03c-1.95.19-2.24.31-1.64.66.79.47,4.21-.09,4.21-.7,0-.18-.04-.3-.1-.26s-1.16.17-2.47.3m146.94,7.37c-.11.11-3.7.3-7.97.42-5.67.16-8.22.38-9.43.84-.91.34-3.38.74-5.47.89-3.63.25-3.9.33-5.7,1.74-1.15.9-2.13,1.39-2.5,1.24-.34-.13-1.72-.48-3.07-.77s-2.93-.9-3.51-1.35c-.64-.51-1.63-.83-2.53-.83-.81,0-2.16-.24-3.01-.54-3.12-1.09-11.53-.62-14.23.81l-2.31,1.21-1.79-.94c-1.63-.86-1.99-.91-3.94-.52-1.18.23-3.32.31-4.75.17-2.33-.23-2.83-.14-4.7.81-2.05,1.05-2.18,1.06-7.65.82-7.74-.33-8.12-.33-8.65.08-3.37,2.65-7.77,2-11.71-1.73-1.77-1.67-2.98-1.95-5.15-1.19-.96.34-2.58.62-3.59.62-1.52,0-2.19.28-3.94,1.59-2.5,1.89-3.9,2.09-3.9.57,0-2.56-3.85-3.38-8.17-1.73-.52.2-3.12.4-5.76.45-4.54.08-4.85.14-5.56,1.02-.69.87-.93.92-3.09.67-2.85-.33-2.69.51.43,2.3,3.05,1.74,4.26,3.08,3.38,3.73-1.04.76-1.99.66-3.85-.43-2.69-1.57-7.52-2.4-9.45-1.62-1.84.74-2.78.53-3.35-.74-.47-1.04-4-1.7-6.54-1.22-1.04.2-1.65.03-2.84-.78-1.71-1.16-2.15-1.29-5.6-1.54-1.86-.14-2.57-.04-2.94.41-.35.43-.88.52-1.89.33-2.37-.45-4.18-.32-5.55.39-1.35.7-2.51.67-6.31-.17-.98-.22-3.05-.4-4.61-.41-1.56,0-2.95-.2-3.08-.41-.39-.64-2.24-.46-2.76.27-.86,1.18-4.79,1.18-8.19,0-3.88-1.35-7.25-.58-8.85,2.02-1.45,2.35-2.84,2.61-6.68,1.25-5.01-1.78-6.88-.83-4.75,2.41,1.55,2.35,1.2,3.57-1.04,3.57-1.53,0-2.7-2.44-1.7-3.54.92-1.02.78-2.01-.29-2.01s-1.85.69-1.85,1.73c0,.43-.26,1.07-.58,1.42-1.21,1.34-.95,3.3.48,3.6,1.52.32,2.47,1.04,2.47,1.86,0,.33.64,1.18,1.43,1.91,1.34,1.23,1.4,1.39.99,2.58-.34.99-.32,1.49.12,2.31.31.57.65,1.36.77,1.74.31.99,1.63.86,2.49-.24.52-.67,1.29-1,2.69-1.17,1.08-.13,2.78-.36,3.78-.5,1.44-.2,2.47-.03,4.93.85,1.97.7,4.06,1.14,5.68,1.19,5.93.19,7.38,1.05,5.15,3.08-1.78,1.62-1.88,1.65-3.44.97-.61-.27-2.98-.5-5.25-.53-2.28-.02-4.73-.19-5.44-.36-.96-.23-1.48-.15-1.99.31-.48.44-1.67.66-4.03.74l-3.34.12-1.25,2.37c-1.46,2.76-2.55,3.77-4.06,3.77-1.98,0-4.75,2.54-4.75,4.36,0,.85-.19,1.66-.42,1.8-.9.56-3.92,5.15-3.92,5.95,0,1.4-1.22,2.16-3.45,2.16h-2l-1.2,2.13c-1.55,2.75-2.9,3.82-4.74,3.75-1.71-.06-4.89,1.92-5.75,3.59-.31.59-1.01,1.29-1.57,1.55-1.37.63-1.27,1.53.37,3.61,1.64,2.08,1.66,2.28.39,4.01-.54.74-.99,1.71-.99,2.16s-.33,1.35-.72,2c-1.3,2.16-1.64,3.61-1.14,4.93.46,1.21-.38,3.4-2.77,7.21-.61.97-.61,1.19.01,3.12,1.34,4.17.69,9.72-1.74,14.86-1.24,2.63-1.31,3.01-1.39,7.73-.05,3.3-.3,5.69-.74,7.14-1.31,4.31-1.57,6.55-.99,8.32.43,1.3.44,2.01.08,3.49-.25,1.02-.48,3.56-.5,5.63s-.23,4.6-.47,5.61c-.35,1.52-.3,2.33.3,4.56.83,3.13.85,3.38.47,10.24-.15,2.83-.27,7.65-.25,10.7s.02,6.89,0,8.52c0,1.64.23,3.69.54,4.56s.76,3.37,1.01,5.55c.25,2.18.83,5.2,1.29,6.72,1.2,3.98,1.04,6.49-.34,5.34-1.59-1.33-2.27,2.45-1.14,6.3.67,2.25.93,2.45,1.67,1.26.67-1.07,1.21-1,1.51.21.17.69.03,1.26-.45,1.78-.86.96-1.27.98-1.44.1-.11-.59-.25-.55-1.02.28-1.09,1.17-.93,1.82.4,1.68,1.34-.14,1.9,3.3.92,5.66-.34.81-.62,2.04-.63,2.72,0,.68-.28,1.59-.6,2.02-2.14,2.84-3.58,11.9-2.69,16.87.49,2.75.65,2.99,2.54,3.97,2,1.03,2.6,2.04,2.92,4.94.14,1.31.54,3.56.87,5.01,1.04,4.47-.57,11.35-3.38,14.41-2.38,2.6-3.07,5.37-3.22,13.08-.24,11.92-.27,11.64,1.32,14.84,1.9,3.82,1.86,6.33-.11,6.96-1.6.51-2.18,4.63-1.14,8.11.34,1.13.26,2.02-.4,4.53-.94,3.6-1.56,15.98-.94,18.68.22.93.25,5.17.07,10.31-.24,7.23-.19,9.19.32,11.49.5,2.27.53,3.31.18,5.75-.26,1.82-.3,3.65-.1,4.71.38,1.97-.04,6.23-.75,7.57-1.58,2.96-2.09,14.44-.83,18.45.65,2.07.68,2.49.2,3.24-1.95,3.07-2.45,8.67-1.18,13.41.29,1.09.64,2.63.78,3.42.14.79.76,2.16,1.4,3.03,1.54,2.13,1.68,3.06.46,3.06-.52,0-1.08.27-1.25.59-1.99,3.81-2.05,4.09-1.8,7.45.16,2.13.59,4.11,1.22,5.61l.97,2.31-.81,2.92c-1.33,4.77-1.59,7.4-.87,8.8.53,1.03.55,1.5.12,3.27-.42,1.76-.4,2.36.13,3.99.35,1.06,1.01,3.17,1.47,4.7s1.3,3.67,1.86,4.76c.56,1.09,1.34,3.05,1.72,4.36.83,2.83,2.52,7.91,3.6,10.81.43,1.15.67,2.37.54,2.72-.53,1.38,1.05,4.92,3.9,8.73.27.36.07.84-.69,1.64-2.25,2.35-1.33,5.74,2.02,7.44,1.23.63,2.84,1.55,3.57,2.05,1.57,1.07,4.18,1.22,5.2.29.83-.76,2.68-1,3.66-.49.83.44,2.63.1,2.63-.49,0-.21-.33-.39-.74-.39-1.21,0-1.82-1.04-1.3-2.2.4-.87.3-1.16-.88-2.47-3.21-3.6-3.19-6.13.03-4.74.82.36,2.24.84,3.15,1.07,1.08.27,2.04.89,2.76,1.76.61.73,1.94,1.73,2.96,2.2,1.02.48,2.3,1.46,2.85,2.19.75.99,1.41,1.39,2.69,1.59.93.15,2.66.69,3.85,1.2,4.99,2.13,7.46,2.61,10.06,1.98,3.09-.75,5.01-.75,6.82.01.81.34,2.98.95,4.83,1.37,1.85.41,3.94,1,4.65,1.29,1.45.61,5.36-.11,7.21-1.33,1.44-.95,5.58-1.21,7.47-.46,1.41.56,1.86.55,4.82-.03,3.1-.61,12.17-.39,13.32.33.19.11,1.19.02,2.24-.2,1.3-.28,3.8-.28,7.83-.01,13.46.9,29.1,1.2,42.82.83,5.35-.14,10.73.28,11.77.92,2.05,1.27,35.22,1.48,48.22.3,2.5-.23,5.87-.54,7.5-.69s3.47-.56,4.1-.92c.63-.35,1.5-.85,1.93-1.1.56-.32,1.11-.34,1.82-.07s1.47.25,2.48-.09c1.11-.37,1.72-.37,2.57-.03,1.48.61,2.45.62,6.57.12,2.45-.3,4.07-.31,5.41-.02,1.21.26,2.77.29,4.2.07,1.33-.2,3.03-.19,4.06.02,1.38.28,2.23.2,3.83-.34,1.61-.55,2.69-.64,5.05-.42,3.21.29,4.89-.07,11.83-2.58l3.14-1.13,1.99,1.12c1.09.62,2.8,1.23,3.79,1.36s2.65.61,3.68,1.05c2.97,1.28,6.81,1.49,8.7.48,1.15-.62,1.95-.77,3.18-.6,1.45.2,1.82.08,3.05-1.01,1.65-1.46,1.68-1.46,2.77-.44.98.92,1.99,1.02,2.62.26,1.31-1.59,15.71-2.08,17.29-.59.89.84.94.84,2.2.16s1.41-.67,5.23.27c4.72,1.16,4.87,1.13,6.23-1.13,1.71-2.84,3.47-3.36,5.17-1.55.72.77,1.5,1.4,1.73,1.4.99,0,4.19-1.68,4.87-2.55,1.71-2.19,6.68-1.64,7.29.8.25,1.01,1.49,1.75,2.94,1.75.87,0,4.32-4.18,4.32-5.23s-1.57-1.91-3.39-1.91c-1.48,0-1.74-.16-2.7-1.61-.58-.89-1.66-1.97-2.4-2.41-1.22-.73-2.56-3.56-2.56-5.43,0-1.72,2.92-2.14,4.66-.66,1.93,1.63,2.92,1.09,1.84-1.01-.75-1.45-.58-2.16.6-2.47.69-.18.96.03,1.4,1.08,1.38,3.31,3.69,2.63,2.65-.78-.22-.72-.31-2.13-.2-3.12.18-1.61.07-1.96-1.07-3.26-1.05-1.2-1.23-1.67-1.03-2.69.14-.68.39-2.8.56-4.71.27-3.03.48-3.72,1.63-5.35,1.42-2.02,2.36-4.94,2.37-7.34,0-.82.25-2.1.56-2.83.74-1.77.89-8.52.27-11.5-.61-2.92-.26-5.53.97-7.15,1.07-1.41.9-7.72-.29-10.52-1.86-4.38-1.77-8.02.37-14.07.59-1.68,1.11-4.34,1.32-6.74.19-2.18.49-5.67.68-7.75s.46-4,.62-4.26c.31-.5.78-21.6.58-25.65-.19-3.74-.14-7.34.23-15.74.31-6.95.27-8.01-.33-9.59-.56-1.48-.6-2.05-.22-3.46s.32-2.27-.36-5.28c-.44-1.98-1-4.93-1.24-6.57s-.62-3.99-.86-5.23c-.5-2.69-.25-3.9,1.29-6.24,1.27-1.94,1.45-3.56.61-5.63-2.05-5.06-2.06-8.89-.04-15.61,2.66-8.85,2.59-8.43,2.47-14.5l-.11-5.72-1.96-.99c-2.11-1.07-2.47-1.73-2.54-4.65-.02-.92-.29-2.35-.59-3.17-1.99-5.38-2.24-7.56-1.03-9.12.52-.67.79-1.61.79-2.8,0-1.64.17-1.95,1.95-3.61,1.48-1.39,2.01-2.2,2.22-3.41.15-.87.45-1.93.67-2.35,1.51-2.92.01-22.06-1.95-25-.99-1.48-.65-3.35.85-4.73,1.96-1.8,2.48-4.31,1.88-9.09-.4-3.23-.37-3.93.3-6.32.69-2.48.74-3.97.61-19.62l-.13-16.94-.99-2.12c-.84-1.79-.93-2.31-.58-3.37.23-.69.54-3.21.7-5.61.15-2.4.65-5.7,1.11-7.33,1.78-6.42,2-13.09.59-18.32-.36-1.33-.5-2.8-.35-3.57.14-.72.4-2.16.57-3.2.17-1.04.52-2.1.77-2.36.77-.78.53-2.16-.74-4.16-1.13-1.77-1.19-2.06-.96-4.48.19-1.95.09-3.02-.42-4.36-.37-.98-.75-2.49-.86-3.37-.11-.87-.35-1.76-.55-1.96-.44-.47-.46-6.58-.02-7.27.72-1.14,1.4.59.9,2.29-.6,2-.19,4.85.67,4.69.88-.17,2.13-4.56,1.59-5.57-.23-.44-.29-1.58-.14-2.7.29-2.13-1.01-5.43-2.89-7.33-1.35-1.36-1.33-3.89.05-5.89,1.01-1.46,1.3-2.78,1.1-4.97-.05-.53.2-2.94.55-5.36.69-4.79.26-8.53-1.17-10.12-.35-.39-.82-1.4-1.05-2.24-.23-.84-1.35-2.78-2.5-4.31-3.79-5.05-5.43-8.7-5.16-11.5.17-1.75.01-3.22-.59-5.55-.45-1.74-1.07-4.24-1.37-5.54-.3-1.31-.85-3.06-1.23-3.89-.57-1.26-.6-1.73-.22-2.81.71-1.96.57-3.35-.42-4.27-1.53-1.43-5.16-3.51-6.2-3.56-2.25-.11-3.62.06-5.01.65-1.06.44-2.09.55-3.71.36-1.48-.17-2.33-.1-2.51.19-.46.75-1.32.5-2.79-.8-1.74-1.53-3.96-2.02-5.76-1.26-1.18.5-1.4.48-2.37-.24-1-.74-1.36-.77-5.54-.41-2.46.21-8.2.36-12.76.33s-10.6-.04-13.42-.03c-18.62.09-19.56.06-21.05-.71-1.16-.6-1.79-.67-3.22-.4-1.01.19-3.13.18-4.93-.02-3.66-.42-4.33-.44-4.61-.16m-147.9,3.53c-.37.45-.31.65.32.99,1.85,1,3.38.26,1.73-.83-1.32-.87-1.46-.88-2.05-.16m-6.13,1.16c-1.4,1.03-.48,1.9,1.86,1.76,1.94-.11,2.08-.19,2.2-1.21.14-1.26-2.59-1.63-4.06-.55m-9.32,3.88c.63.68,1.07.8,2.24.61,1.61-.26,2.92.24,2.92,1.12,0,1-1.69,1.59-4.59,1.59-3.16,0-4.25.61-4.69,2.6-.46,2.08-2.64,3.54-5.29,3.54-1.39,0-3.5.39-5.33.99-1.66.55-3.47.99-4.02.99-.77,0-1.13.32-1.58,1.4-.41,1-1.29,1.85-3.04,2.96-1.35.85-3.06,2.01-3.8,2.56-1.46,1.09-2.76,1.29-3.51.53-.79-.79-.54-1.45.81-2.15.71-.37,2.08-1.33,3.06-2.15.98-.81,2.4-1.79,3.16-2.17.76-.38,2-1.18,2.76-1.78,1.81-1.43,8.22-4.81,11.37-5.99,1.37-.52,3.48-1.74,4.69-2.72,1.86-1.51,3.63-2.75,3.96-2.77.05,0,.44.38.87.84m-69.15,9.69c-.13.34-.24.93-.24,1.3,0,.97-4.28,4.49-5.13,4.22-1.18-.38-1.7.77-1.41,3.1l.26,2.12-1.11-.14c-1.46-.19-2.56.5-1.7,1.06,1.71,1.13,5.15-.08,5.64-1.98.45-1.78.96-2.38,2.01-2.38,2.46,0,4.56-2.32,4.58-5.04.02-2.51-2.16-4.2-2.9-2.26m-5.14.42c-.14.36-.17.73-.07.83.31.32,1.02-.32,1.02-.91,0-.78-.65-.72-.95.08m-4.95,1.12c-.6.73-.22,2.53.59,2.85.99.38,2.62-.22,2.48-.92-.24-1.2-2.51-2.62-3.07-1.93m3.74,19.04c-.43.31-1.81.71-3.05.91-1.75.27-2.45.6-3.11,1.44-.47.6-1.22,1.25-1.68,1.44-.46.2-1.32.75-1.91,1.23-.91.73-1.23.8-2.07.41-.88-.4-1.07-.34-1.62.51-.35.53-1.23,1.32-1.98,1.76-1.66.99-1.96,3.78-.56,5.19.95.95,1.09.96,2.9.2.78-.33,2.05-.59,2.83-.59,1.51,0,4.2-1.18,5.58-2.45.47-.43,1.43-1.08,2.14-1.44,1.16-.6,1.38-1,2.15-3.95.47-1.81,1.06-3.5,1.31-3.75,1.12-1.13.4-1.82-.93-.89M.21,137.68c-.14.35-.23,1.12-.21,1.7.03.85.11.76.4-.49.37-1.59.25-2.37-.19-1.21m237.45,379.83c.38.1,1,.1,1.38,0s.07-.18-.69-.18-1.07.08-.69.18"/></g></svg>