<?xml version="1.0" encoding="UTF-8"?><svg id="uuid-432dea90-e1b4-4b0b-aca4-146bbc93a731" xmlns="http://www.w3.org/2000/svg" viewBox="0 0 395.09 517.97"><defs><style>.uuid-cb79034d-1f4f-45c0-9f56-c2f9e70c3c77,.uuid-1484a6c5-8353-40f2-8506-7d7ad7219d7c{fill-rule:evenodd;stroke-width:0px;}.uuid-1484a6c5-8353-40f2-8506-7d7ad7219d7c{fill:#fff;}</style></defs><path id="uuid-87c78d84-72eb-48ae-b8b6-f19c2358e4b6" class="uuid-cb79034d-1f4f-45c0-9f56-c2f9e70c3c77" d="m42.89.61C34.26,2.09,4.86-3.75,5.77,13.46c.81,6.21.78,6.78-.43,8.36-1.42-.27-1.47,12.34-1.89,13.3-.74.46,2.23,7.95.64,12.14-3.34,10.68.26,26.84-1.51,32.16-1.86,9.32.79,36.9-.1,45.59-.85,3.39-.82,13.87.03,12.65-.47,4.68-1.65,12.45-.13,16.53.83,3.07.85,3.62.59,17.64-.78,23.23.52,32.07.02,40.23-1.42,3.83.37,10.08-.36,13.9-.49,2.66-1.36,12.34.18,10.26-1.53,2.64-1.3,1.52-1.58,10.28.08,8.73-1.86,9.8,1.4,15.72.82.68.79,6.51-.05,9.4-.99,3.09-.74,17.29-1.14,21.15-.99,6.35,3.48,10.08,1.56,15.24-.98,3.17-1.63,20.29-2.35,20.81-.11.19.08,1.47.43,2.85-.76,40.22-1.97,126.47-.07,168.21,1.6,3.39-.36,14.35,5.41,15.22,4.89,3.23,13.88-1.16,21.86,2.76,88.89.42,225.35-.52,354.64.04,7.62-3.52,6.23-9.92,7.85-16.77,3.54-12.37.7-13.11.8-24.93-.96-13.59.6-21.65.39-38.17-.1-14.95.32-33.15.14-48.6-.58-8.59,1.51-15.01-.56-22.73-.92-2.48-.9-2.73.62-6.75,1.14-3,1.13-4.89-.03-6.18-.95-1.05-1.22-9.24-.74-22.55.21-5.97.16-6.76-.62-9.24-.91-2.91-.91-2.65-.07-15.55.19-2.83.62-6.31.96-7.73,1.87-4,1.48-25.09,2.22-30.55,2.32-7.69-4.43-8.91-1.66-17.09.7-3.11,1.55-18.85.34-22.12-.61-1.35-.64-1.88-.24-4.17.89-2.92-.88-6.46-.64-9.06.32-4.87,2.83-11.12,2.48-16.3-.85-5.43.85-6.63-.43-10.74-1.22-2.83-1.37-4.1-.69-5.88,1.01-2.16.5-16.21,1.2-19.28-.52-7.34,3.06-127.02-2.31-132.58-1.87-9.11,9.54-8.87-2.31-23.78-4.47-7.68-.21-7.02-44.02-6.81-40.57.99-87.96-3.2-101.31,3.89l-3.68-3.94c-5.58,0-25.85-.32-27.03.45-18.36,2.76-14.29,6.8-32.06-.61,0,0-13.67.06-13.67.06-22.31.11-33.99.44-33.99.97,0,.77-3.42,1.38-4.24.75-.6-.46-.38-.54,1.68-.6l2.37-.07c-5.21-.77-14.14-.87-17.76-.04-1.38.82-21.99.73-24.09,1.12-5.39-.23-5.35-1.17-17.87-1.6-3.39-.19-4.15-.12-4.54.39-.37.86-4.07.84-5.99.54.79-.14,2.37-.42,3.16-.56-1.84-.11-3.79,0-5.73.72-6.44,3.14-5.06-3.78-17.95-1.2m239.95,8.26c3.33.73,5.54-.86,8.15.42,1.21,1.89,38.5.37,47.23.41,6.53-1.17,4.78,1.74,7.91.65,3.42-2.09,6.82,3.61,8.55,2.06,8.07.08,10.15-3.91,17.43,2.36,2.17,1.65-.73,4.71.64,7.08,1.13,2.72,1.71,6.19,2.6,9.43,1.36,7.15-.58,9.19,5.75,17.05,3.59,6.37,5.83,7.83,4.72,16.67-.35,2.42-.59,4.83-.55,5.36.92,4.04-4.3,7.57-1.15,10.86,3.07,2.71,2.76,6.99,3.03,10.03.78,4.49-3.56,9.11-2.26.88.51-1.69-.18-3.43-.9-2.29-1.02,4.01.31,8.79,1.43,12.6,1.28,2.53-.72,6.53,1.38,8.84,2.35,3.57.47,3.39-.03,6.52-.42,2.66-1.01,3.96-.22,6.77,2.54,7.66-.75,16.97-1.7,25.65-.3,5.51-1.88,6.55.87,11.1,0,0,.13,16.94.13,16.94.12,15.66.08,17.14-.61,19.62-.67,2.39-.7,3.09-.3,6.32,2.17,8.35-5,9-2.73,13.82,2.31,6.53,5.01,25.5-.94,30.76-1.78,1.66-1.95,1.98-1.95,3.61-.88,4.86-2.94,4.19.24,11.92,1.3,4.49-.67,6.74,5.09,8.81,0,8.93,1.11,9.63-2.36,20.22-4.56,10.89,2.72,14.72-.57,21.24-3.42,5.38.25,11.92.81,18.04.67,3.01.73,3.87.36,5.28-.38,1.41-.34,1.98.22,3.46.6,1.58.64,2.64.33,9.59-.82,22.63.9,40.44-3.43,60.14-4.72,9.09,2.89,16.9-.08,24.59-2.9,4.05.87,14.49-1.24,18.65-.91,3.3-.57,7.25-2.93,10.17-1.77,1.65-1.73,7.92-2.19,10.06-.64,2.08,2.98,3.57,2.1,5.95-.11.99-.02,2.39.2,3.12,1.04,3.41-1.27,4.09-2.65.78-.44-1.05-.71-1.26-1.4-1.08-3.07.31,2.72,6.9-2.44,3.48-6.17-3.71-5.12,4.14-2.1,6.09.74.44,1.82,1.52,2.4,2.41,1.03,2.79,5.84.75,6.09,3.52-.77,2.59-5.34,7.93-7.26,3.48-.61-2.44-5.58-2.99-7.29-.8-7.65,7.09-6.44-4.96-11.77,2.7-1.36,2.26-1.51,2.29-6.23,1.13-5.67-2.14-5.42,1.5-7.43-.43-1.58-1.49-15.98-1-17.29.59-.63.76-1.64.66-2.62-.26-1.63-2.3-3.49,2.54-5.82,1.45-3.94.26-7.07,2.51-11.88.12-3.21-1.13-6.56-1.46-9.46-3.53-5.7,2.07-12.22,4.47-14.97,3.71-3.63-.73-5.76,1.41-8.88.76-5.03.05-8.28-.34-13.67-.07-4.13.51-5.1.49-6.57-.12-1.34-.83-3.69.83-5.05.12-1.5-.63-2.4.54-3.75,1.17-3.09,1.21-7.48,1.1-11.6,1.61-24.87,2.14-43.8-.21-59.99-1.22-23.79.8-47.8-1.69-71.03-.92-4.87-2.16-10.36,3.15-14.68,1.79-5.36-1.11-10.33-4.26-16.3-2.67-2.75,1.4-9.56-2.08-13.91-3.18-1.27-.21-1.93-.6-2.69-1.59-1.27-1.74-4.48-2.69-5.81-4.39-2.89-2.65-12.95-6.15-5.94,1.91,2.43,1.8-.95,4.18,2.18,4.67.41,0,.74.18.74.39-1.05,1.77-4.78-.88-6.29.98-2.56,1.93-6.05-.93-8.77-2.34-3.34-1.7-4.26-5.09-2.02-7.44.76-.8.96-1.28.69-1.64-4.47-5.89-3.42-6.97-4.44-11.45-1.85-4.67-3.27-10.76-5.32-15.17-1.4-4-4.32-9.16-3.46-13.45.42-1.77.41-2.24-.12-3.27-1.23-1.13.6-8.12,1.68-11.72-1.91-4.25-4.55-12.78.86-15.96,1.22,0,1.08-.93-.46-3.06-1.53-2.14-1.47-3.96-2.18-6.45-1.27-4.74-.77-10.33,1.18-13.41.48-.75.45-1.17-.2-3.24-1.26-4.01-.75-15.49.83-18.45,1.65-3.68.2-7.95.85-12.28.36-2.43.32-3.48-.18-5.75-.94-.8.16-20.13-.39-21.8-.62-2.69,0-15.07.94-18.68.66-2.51.73-3.4.4-4.53-3.03-10.28,5.87-6.01,1.25-15.07-1.45-2.91-1.47-3-1.42-7.51.14-15.23.48-17.32,3.32-20.41,4.4-4.71,3.99-13.41,2.51-19.42-.32-2.91-.91-3.92-2.92-4.94-5.58-3.06-1.95-17.54.15-20.84.71-2.3,3.22-9.81.31-10.4-2.66.62.4-3.35.62-1.96.17.89.58.86,1.44-.1,1.12-.86.16-4.17-1.06-1.99-2.08,3.37-3.38-10.29-.53-7.56,3.1,1.26-1.13-9.25-.95-12.06-3.37-11.66.08-28.56-1.77-39.57-1.22-4.33.35-5.51.17-10.17-.26-3.81,1.31-6.1.42-9.12-1.24-3.54,2.16-9.6,1.73-15.46.08-4.72.15-5.1,1.39-7.73,2.43-5.14,3.08-10.69,1.74-14.86-.62-1.93-.62-2.15-.01-3.12,4.95-6.73.81-6.52,3.91-12.14,1-1.65.43-2.53,1.71-4.16,1.27-1.73,1.25-1.93-.39-4.01s-1.74-2.98-.37-3.61c1.98-1.81,4.31-5.22,7.32-5.14,2.4.5,4.65-3.34,5.94-5.88,1.98.11,5.7.03,5.45-2.16.19-2.16,4.44-5.48,4.34-7.75,0-1.82,2.77-4.36,4.75-4.36,1.99.47,4.2-3.86,5.31-6.14,1.73-.1,6.8-.04,7.37-.86,2.02-1.03,3.94.35,7.43.05,2.28.03,4.64.26,5.25.53,1.56.68,1.66.65,3.44-.97,2.23-2.03.78-2.89-5.15-3.08-2.87.21-8.05-2.6-10.61-2.04-1.81.42-5.34.18-6.47,1.67-.86,1.1-2.19,1.22-2.49.24-2.54-4.03.87-4.39-1.88-6.63-.79-.72-1.43-1.58-1.43-1.91-.29-2.22-5.92-1.62-2.95-5.46.32-.35.58-1,.58-1.42-.22-2.3,4.39-2.32,2.14.28-1,1.11.17,3.54,1.7,3.54,6.32-.26-6.45-9.85,5.79-5.98,8.16,3.57,6.08-6.94,15.53-3.27,7.41,2.88,8.32-1.83,10.95-.27,1.09.65,6.33.31,7.69.82,6.68,1.97,5.98-1.41,11.86-.22,1.01.19,1.54.1,1.89-.33,1.68-1.2,7.58,0,8.54,1.13,2.48,1.79,8.15-.36,9.38,2,1.12,2.84,6.6-1.67,12.8,2.36,4.2,2.4,6.21-.54.47-3.3-3.12-1.78-3.28-2.63-.43-2.3,2.16.25,2.4.2,3.09-.67-.4-1.38,10.58-.92,11.32-1.47,4.32-1.65,8.17-.84,8.17,1.73.13,3.4,5.97-3.06,7.84-2.16,3.14.04,6.18-2.49,8.74.57,3.94,3.73,8.34,4.38,11.71,1.73.53-.41.91-.42,8.65-.08,8.03,1.05,6.34-2.03,12.35-1.63,4.21.42,6.74-1.5,10.48,1.29,8.56-5.42,20.02-1.26,28.66,1.47,2.84-.62,3.71-3.31,8.2-2.98,7.13-.68,5.33-1.66,14.9-1.73,9.34.01,4.82-.97,12.58-.26m-150.46,3.53c1.65,1.09.12,1.83-1.73.83-1.38-.7.35-2.28,1.73-.83m-4.12,1.55c-1.73,3.47-8.48-.46-1.6-1.09,1.65,0,1.72.05,1.6,1.09m-15.17,2.98c-7.37,5.84-18.03,9.07-25.02,14.93-1.24,1.57-5.52,2.39-3.87,4.3,2.14,1.63,4.84-1.89,7.31-3.09,2.91-1.2,2.51-3.86,4.62-4.36,1.94-.16,7.14-2.19,9.35-1.98,6.61.28,3.4-6.74,9.98-6.14,4.9.47,6.44-3.05,1.67-2.71-2.18.86-2.38-2.33-4.03-.96m-65.24,9.82c2.67,1.43-.43,7.51-3.83,7.52-2.63-.05-1.46,6.52-7.65,4.36-1.32-1.07,1.83-1.24,2.81-.92-1.46-8.78,1.85-2.21,6.28-9.44,0-1.81.85-2.35,2.39-1.52m-6.34.56c0,.6-.71,1.23-1.02.91-.41-.5.88-2.4,1.02-.91m-2.83,3.13c.14.69-1.49,1.3-2.48.92-2.68-2.76.87-4.55,2.48-.92m2.05,17.03c-1.05,1.23-2.06,8.28-3.91,8.67-3.66,2.9-6.24,3.78-10.55,4.48-1.81.76-1.95.75-2.9-.2-2.57-2.8.67-5.26,2.54-6.95.99-1.88,2.28.8,3.69-.92.59-.48,1.45-1.03,1.91-1.23,1.75-.98,2.04-2.72,4.79-2.88,1.68.18,4.41-2.3,4.43-.99"/><path id="uuid-0b415d26-1c5d-41de-bbdb-bb6c753b8c77" class="uuid-1484a6c5-8353-40f2-8506-7d7ad7219d7c" d="m258.57,20.8c-6.17,2.85-8.93,3.57-15.84,4-5.3.96-9.44-4.1-13.42-2.3-2.06,1.31-4.12,1.27-4.69-.11-1.13-2.73-5.51-3.45-7.18-1.18-.98,1.98-3.43.35-4.98,1.08-.45.16-8.42,2.31-5.37,2.86.34,0,.54.22.44.5-.58.84-1.48-.03-2.64-.14-3.22-1.48-5.97.26-9.32,2.15-.97-.66-3.56-2.4-3.83-3.09-.55-.92-4.85-1.77-5.46-2.8-.75-1.27-5.03-1.3-6.24-1.61-.78-.15-1.12.06-1.66,1.01-1.04,2.18-3.76.31-5.21,2.56-1.14,2.17-4.35.44-5.37,1.34,0,.85-1.49.47-1.74-.44-.42-1.55-2.9-3.09-4.95-3.08-2.01.36-7.23-1.2-7.74,1.69-.53,2.5-2.99,3.52-4.67,1.93-2.69-2.45-6.09,2.78-13.33-1.83-1.12,1.87-2.58,1.93-4.41,2.69-1.08.57-2.45.51-2.84-.13-.59-.95-1.77.17-1.77,1.68,0,2.08-3.98,5.95-6.3,6.14-.55.04-1.39.54-1.87,1.09-.65.76-1.25,1.01-2.41,1.01-4.22-.59-5.28,4.43-6,2.2,0-2.03-5.56-2.19-7.7-.22-1.87,2.46-4.36,1.32-5.73,2.53-.44,1.07-2.16.8-2.54,2.43-.75,1.88-1.54.93-2.49,2.69-1.55,2.52-6.69,5.52-6.68,6.91-1.93,4.23-3.16-5.48-5.9.97-.54,1.06-.76,1.16-1.86.93-3.49-1.01-6.44-.4-7.36,1.9,0,1.17-.66,1.76-2.36,2.1-1.87.28-2.29,2.49-3.46,3.72-1.04,1.28-1.11,2.26-.3,4.21.95,2.28-.77,3.1-2.35,1.12-1.69-2.12-5.4-1.61-5.54.77-.2,3.26-5.77,5.58-7.64,3.19-4.63-3.18-5.29,9-5.55,11.6-2.14-.42-3.09,5.09-4.54,4.89-4.65,3.01-2.6,14.79-9.17,14.65-1.15.03-1.41.55-.87,1.75.45,1,.18,3.99-.8,8.78-3.19,9.05,5.03,6.11.95,12.71-4.88,3.93,8.97,18.15,2.75,16.13-3.23-1.14-2.63,4.62-4.01,7.16-2.08,4.55,1.38,8.05-2.27,11.97-2.18,3.2-2.5,4.3-1.66,5.73,1.68,3.37-1.45,5.4-1.26,9,.21,3.17-1.62,4.54-.39,7.42.32.7.33,1.32.03,2.17-2.02,3.69,9.07,4.04,9,7.51-.02,1.52,3.15,3.2,2.76,4.91,0,1.54.48,2.1,3.02,3.49,1.54.85,1.69.86,2.55.26,2.89-2.56,2.68,3.55,4.99.25,3.69-6.5-2.31-5.16-1.33-8.8.84-2.24-2.06-3.23-.46-4.42,1.71-.5,2.47,1.76,3.99,1.49,2.17-.53,4.43,3.52,4.03,7.2-.22,1.99-.17,2.16,1.09,3.37,1.93,1.39,1.57,3.72,4.4,3.16,1.87-.21,2.51.62,1.36,1.76-.32.32-.23.64.31,1.19,3.89,3.9,2.46,10.41-2.76,12.6-1.65.69-2.39,1.78-3.48,5.14-1.47,3.74-3.08,3.75-1.87.61-.21-1.26-5.15-2.6-2.29-4.45.92-.58-.61-2.49-1.99-2.49-.75,0-1.62-.36-2.22-.93-1.46-1.37-2.24-.98-3.19,1.58-2.03,5.47-3.81,5.1-3.42-.71.3-1.93-1.95-1.25-2.53-2.93-.76-1.48-.96-1.47-2.39.03-1.13,1.18-1.16,1.33-1.16,5.22.54,5.13-1.97,3.68-.38,6.43.83.91.29,5.12.97,6.16,1.58,4.47-1.81,8.99-4.97,12.54-1.93,1.92-2.19,2.36-2.03,3.44.3,2.64-1.8,3.2.33,6.35,3.15,5.83-.24,13.69-1.25,19.52-.78,1.62-.79,1.77-.17,4.16.63,2.43.62,2.5-.23,3.66-1.16,1.14-.72,4.39-2.18,5.05-1.24.67-.98,4.54.47,6.81,2.64,5.06-2.24,6.72.56,14.7.96,4.46-3.91,6.07-1.69,9.75.66,1.15.66,1.27-.02,2.54-1.01.99-.82,10.43-1.25,11.84-.56,1.16,1.13,2.59.74,3.57-.17.27-.32,2.43-.33,4.79-.03,4.89-.41,4.43,4.12,4.83,6.4.45,6.47,5.66,7.96,9.93,2.09,2.38-1.52,3.66-3.82,3.57-.99,21.49-9.81-1.27-9.42,5.05.44,1.68.26,8.07-.27,9.71-.49,4.16,2.91,5.14,1.01,11.6-.77,3.27-.05,4.81-1.42,7.1-1.6,2.18,0,3.61,1.77,1.59,1.34-1.52,2.25-1.37,2.71.42.34,2.73,4.3,4.01,6.18,5.15,2.81,0,4.65,4.07,2.46,5.43-2.36,2.6-5.52-7.62-7.73-4.41-2.12,2.2,1.74,3.18-.08,4.72-1.45,2.64,3.36,2.96-2.2,7.67.48.84,2.14,3.47,1.87,4.02-2.12,3.13,1.42,12.25-.44,14.88-1.23,1.64-1.57-.4-.74-4.46.35-1.73-.35-1.68-2.05.13-4.2,4.19,1.86,6.72,2.62,11.67.65.82,1.13,3.47,2.71,3.17,1.42-.23,2.68,2.2,3.84,2.44,2.34,1.41-.17,5.65-1.01,7.96-.29,2.03-3.06,4-3.18,5.78.01,1.14-.93,5.13-1.33,6.8,5.38,6.42,2.42,1.24,6.91,1.2,7.56-.55,3.08-11.15,9.23-8.25,2.54.67,3.22-1.68,6.64.72,2.97,1.71,8.02.85,8.53,4.85,1.47,4.31,4.63-3.34,7.68,5.19,1.28,2.88,3.77,4.12,3.77,1.88-.28-2.92,5.92-1.59,4.29.82-1.61,2.52-.63,4.55,1.86,3.86,1.13-.31,1.55-.27,2.1.23.84.77,1.39.77,4.08.07,4.98-1.3,12.37.21,14.59,2.99,6.15,6.69,7.71-5.85,12.47-6,2.07-.99,4.9-4.44,7.31-3.24,1.71.62,2.81.59,3.38-.1.49-.59,1.6-.43,1.6.24,0,.46-2.58,3.16-2.8,2.94-.5-.5.22,4.05.73,4.63.53.6.54.91.11,2.24-.59,1.81-.42,2.24,1.06,2.55.67.14,1.35.7,1.77,1.44,1.58,2.82,4.21-.56,7.44.95,0,0,2.53.64,2.53.64,1.47-1.82,6.77-5.66,6.93-3.56,0,.53,1.17.27,1.18.76,0,.2.37.26.82.14,1.54-.34-.59-.7.23-.89.27,0,.37-.35.24-.84-.39-1.52,4.64.29,7.99,2.86,4.82,5.36,19.5,7.82,16.02,11.92-1.65,1.04-.48,1.37,4.51,1.29,2.71-.05,5.02.07,5.14.27.43.69,1.8.35,2.76-.7,1.89-2.97,12.23,5.85,22.53-3.71,1.39-2.89,1.02-3.84,6.17-2.54,1.36.88,4.76-4.14,6.25-3.99,6.29-.99-2.01-5.25,2.71-6.54,2.19-.59,2.92-1.99,2.09-4.06-1.19-3.91,2.6-16.59,9.38-13.61,9.36,1.54.19,7.06,11.22,7.17,1.74.1,6.33,1.06,8.02.74,2.55-.13,5.71,2.91,8.03.44,1.43-2.26,7.18.7,9.6-2.75,6.34-6.98,9.93,2.33,13.22-.63.51-.96.87-.98,2.62-.15,1.62,1.1,4.28-.46,5.47,1.17,2.02,2.17,4.21.48,4.74-1.42.17,0,6.28,2.76,6.94,3.13,2.85.09,4.86-1.55,9.24-1.13,4.67.12,5.53-.61,9.25-1.16,3.59.41,1.98-4.79,5.25-3.03,1.96,1.38,3.27-.18,1.82-2.16-.89-1.21-.81-1.67.34-1.84,1.46-.56,2.47-3.74,3.55-2.62,2.41,2,2.24-.72,4.46-.94,2.69-.7,10.41-5.47,5.14-7.29-1.98-.29-1.82-3.17.18-3.17.56,0,2.18-2.15,2.18-2.89,0-.85-.43-1.08-1.23-.65-2.08.4-6.1-2.65-.15-2.67,2.69-.25,6.07-1.55,6.95-2.67.66-.85.95-.91,3.41-.73,7.77.76-.97-4.6,5.81-4.66,7.16-.32.44-5.78,3.04-8.2,1.3-.43.21-4.73,1.25-4.88.54,0,1.05-.8,1.05-1.64,0-.21-.4-.33-.89-.26-1.63.29-.4-3.19-.6-4.95-.44-4.23,4.29-4.12,3.67-7.4-.66-1.94,3.08-2.5,1.77-4.39-.35-2.09,1.29-4.54-1.94-5.81-3.95-.68.82-3.93,1.27-5.64.46-1.84-1.18-3.27-2.01-1.77-.23.41-.45.49-.62.22-.21-.91,1.41-1.92,1.64-2.95.6-1.4,1.5-1.4,2.14,0,1.17,2.47,5.85,3.88,6.6,1.99,1.82-4.57,1.78-6.16-.17-6.16-2.19,0-4.01-2.53-2.27-3.14,2.48-.03,3.38-6.81,5.08-7.75,1.57-.85.66-2.58,1.73-4.17,1.97-4.94-1.28-4.58-.63-13.29,0,0-.13-7.06-.13-7.06,1.6-2.89,3.6-7.84,3.42-10.27-.02-.76.09-2.2.24-3.18.79-3.91-5.07-3.91-.92-8.48,2.49-2.19,2.44-8.68,3.79-12.16,1.09-.9.37-4.45-1.87-9.32-.78-1.69-1.07-2.75-.83-3.06,3.06-4.9.85-9.72-1.64-14.06.69-1.71,2.21-4.56,1.84-5.94-.11-.71-.02-1.51.2-1.78.97-1.19.59-4.86-.78-7.7-.58-1.31.15-2.34-.32-3.8-1.23-4.46-.6-10.69-.44-13.73-1.18-4.16,4-3.94,4.79-6.73,1.98-2.65-3.9-8.93-.93-11.91.86-1.03.99-1.47.77-2.71-1.04-5.06,4.65-13.85.37-18.11-1.25-1.77-1.27-1.86-1.08-5.27.15-2.65.04-3.83-.44-5-1.7-3.6,2.23-9.24-1.47-12.74-.94-1.1-2.47-4.69-3.68-5.65-4.48-5.22,5.38-5.67,2.5-9.85-1.44-1.74.22-5.47-2.24-6.92-.88-.69-1.05-1.13-1-2.5.14-3.78.38-5.62.73-5.64.89-.11,5.26-.8,6.15-.16,1.8.75,1.77.21-.1-1.99-1.48-1.73-1.87-1.98-2.78-1.78-2.04.44-3.76-2.62-1.8-3.2,2.74-.58,4.22-3.74,5.86-5.15,1.9-.61,1.95-3.61.06-3.83-4.48-2.12,5.11.27,2.07-11.49-.45-2.36,3.99-1.83,1.93-5.84-1.09-1.62.3-4.73-.97-6.22-.42-.64-.76-1.67-.76-2.29,0-1.84-1.22-5.53-2.23-6.73-2.22-2.48.32-1.74.65-3.37,0-1.04-.58-1.39-1.51-.89-2.27,1.22-5.44-5.27-3.42-7.02,2.91-2.1-2.95-4.03-2.02-7.13-.27-2.37.57-5.09-1.23-6.66-2.26-2.2-5.23-5.31-8.7-5.07-3.63.06-1.39-4.17-2.84-6.17-1.14-1.34-.52-1.44-1.79-2.87-1.08-1.29-1.18-1.85-.61-3.67.49-1.16.38-3.22,1.61-3.68,1.37-.36.61-3.44-.97-3.91-1.17-.35-2.91-2.06-4.02-3.96-.79-1.76-4.44-3.62-5.33-4.99-.34-.64-.69-.75-1.68-.57-.97.88-7.71-3.3-8.54-6.14-1.97,1.86-5.33.94-3.39-1.9,1.59-1.77-3.42-7.59-5.85-6.79-1.07.36-1.42.69-1.42,1.36.6,3.06-4.69-1.26-1.77-.96,2.11.05.34-2.64-.75-1.25-.11.18-1.18.25-2.38.15-2.41-.95-8.42,3.59-8.65-.45-.89-2.04-3.39-5.45-6.79-3.85-6.48,1.97-2.29-4.86-8.36-2.98-1.76.71-3.03-.23-3.72,1.62-2.59,5.68-5.27-.64-7.27-2.74-1.08,0-4.12.96-4.12,1.3-1-.36-2.12-1.59-3.91-.27-1.5,1.54-6.73-2.5-6.53.75-.14,3.59-3.94-1.96-3.16-3.27.28-1.74-.1-2.21-2.2-2.76-3.55-1.34.51-5.23-7.11-1.69m-178.13,28.74c.13.33.47.59.76.59,1.29-.29-1.09-2.12-.76-.59m-20.77,24.5c-.12,1.52-1.18,2.38-1.55,4.12-.82,3.07-4.64,4.49-5.79,2.16-1.54-2.24-3.15-3.4-2.72-6.62,2.32.18,9.74-2.71,10.06.32m303.89,1.66c0,.77.78.76.78,0,0-.76-.78-.76-.78,0m-309.95,11.73c.56,1.91-.09,2.46-1.79,1.51-2.89-1.3.95-6.49,1.79-1.51m-1.52,7.57c-.24.74-1.09.86-1.09.16-.09-.69,1.22-.89,1.09-.16m-10.27,90.8c-.25.75-1.48.86-1.48.13-.13-.72,1.66-.86,1.48-.12m-4.92,20.17c-1,.98,2.4,5.91,2.72,4.61,1.28-2.02-1.17-6.17-2.72-4.61m6.21,21.34c.72.98,6.38,4.07,3.71,4.93-2.36.93-2.86-1.99-4.09-3.2-1.47-1.06-.55-2.97.37-1.73m11.64,4.18c0,1.18-1.54,1.06-1.71-.13-.46-1.41,1.86-.83,1.71.13m-2.03,4.36c-.22.68-1.3.84-1.33,0-.08-.69,1.73-.87,1.33,0m-4.77,97.12c-.11.5-2.08.77-2.08.29-.22-.94,1.96-1.13,2.09-.29m-13.61,62.91c2.44,2.08-2.75,2.09-3.47,1.73,0-1.83,2.25-2.95,3.47-1.73m-5.62,13.17c.33,1.31-.63,3.2-1.61,3.2-2.59.17.88-6.33,1.62-3.2m25.43,16.85c0,1.44-.61,1.89-1.16.86-.97-1.55,1.18-3.17,1.16-.85m-6.21.52c.36.28.7,1.2.77,2.08.18,3.03,3.56,1.12,4.98-.68,2.58,2.83-1.74,8.82-4.74,6.71-.98-.74-4.45-3.21-2.66-4.46.75-.9-.93-5.76,1.66-3.65m-27.23,2.08c.27,3.13.26-3.46.01,0m36.23,10.96c.46,1.11.43,1.3-.24,1.8-4.14,2.58-2.19-6.15.25-1.8m4.32,1.71c.17,1.65-2.15.25-1.11-.31.87-.35,1.1-.29,1.1.3m266.76,6c-.36.44-.61.48-.93.16-.89-.99,2.52-2.18.92-.16m-291.65,3.7c2.07,2.25-.65,3.46-1.16,5.27,0,.98-1.27.93-2.18-.08-1.55-1.68,1.36-9.23,3.34-5.18m298.78,3.78c-.02,1.39,1.44.65.89-.33-.42-.43-.89-.25-.89.33m-272.56,8.2c1.23,1-.23,1.65-.9,2.47-.83-1.46-1.21-4.75.9-2.47m145.72.15c-1.16,2.7-.37.77,2.62,3.79,2.3,1.94,1.38,3.06-1.23,1.5-2.51-1.5-3.66-5.89-1.55-5.89.22,0,.29.27.15.59m-138.76,2.81c-.16,1.38-1.92-.62-.63-.63.34,0,.62.28.62.63m68.74,25.4c.03.72,1.7,1.47,1.44.28-.03-.72-1.7-1.47-1.44-.28m5.13,1.2c.19.99,1.11,1.13,1.11.16.11-.96-1.27-1.16-1.11-.17"/><path id="uuid-764b7085-114b-46fa-8c6d-cd8d09aeeb53" class="uuid-1484a6c5-8353-40f2-8506-7d7ad7219d7c" d="m234.99.46c.38.1,1,.1,1.38,0,.97-.23-2.35-.23-1.38,0m-170,.92l-1.58.28c4.25.98,9.76-1.38,1.58-.28m66.3-.03c-5.49.69,2.57,1.28,2.57-.04-.01-.59-1.04.04-2.57.04m146.94,7.37c-5.43.18-17.92.99-22.87,2.15-4.49-.33-5.37,2.35-8.2,2.98-8.63-2.73-20.13-6.9-28.66-1.47-3.85-2.82-6.12-.86-10.48-1.29-6.03-.4-4.34,2.68-12.35,1.63-7.74-.33-8.12-.33-8.65.08-3.37,2.65-7.77,2-11.71-1.73-2.6-3.06-5.56-.54-8.74-.57-1.77-.9-7.79,5.57-7.84,2.16,0-2.56-3.85-3.38-8.17-1.73-.8.56-11.67.09-11.32,1.47-.69.87-.93.92-3.09.67-2.85-.33-2.69.51.43,2.3,5.73,2.76,3.73,5.69-.47,3.3-6.07-3.99-11.81.45-12.8-2.36-1.25-2.37-6.89-.2-9.38-2-1.71-1.16-2.15-1.29-5.6-1.54-3.33-.56-2.23,1.12-4.83.74-5.88-1.19-5.18,2.19-11.86.22-1.36-.5-6.61-.18-7.69-.82-.39-.64-2.24-.46-2.76.27-2.98,3.12-14.65-3.94-17.04,2.02-1.24,5.76-15.78-4.34-11.43,3.66,3.87,5.22-5.09,4.04-2.74.03.92-1.02.78-2.01-.29-2.01-2.05-.09-1.55,1.99-2.43,3.15-2.96,3.86,2.68,3.24,2.95,5.46,0,.33.64,1.18,1.43,1.91,1.34,1.23,1.4,1.39.99,2.58-.77,1.5.56,2.82.89,4.05.31.99,1.63.86,2.49-.24.52-.67,1.29-1,2.69-1.17,3.47-.35,4.79-1.2,8.71.35,3,1.83,15.41.38,10.83,4.27-1.78,1.62-1.88,1.65-3.44.97-1.36-.65-9.28-.47-10.69-.89-.96-.23-1.48-.15-1.99.31-.56.82-5.67.77-7.37.86-1.13,2.29-3.31,6.61-5.31,6.14-1.98,0-4.75,2.54-4.75,4.36.11,2.25-4.17,5.62-4.34,7.75.26,2.19-3.48,2.28-5.45,2.16-1.3,2.71-3.54,6.26-5.94,5.88-3.02.02-5.34,3.31-7.32,5.14-1.37.63-1.27,1.53.37,3.61,2.87,2.59-.23,3.81-.6,6.17-.42,2.23-2.95,5.24-1.86,6.93.46,1.21-.38,3.4-2.77,7.21-.61.97-.61,1.19.01,3.12,1.34,4.17.69,9.72-1.74,14.86-1.24,2.63-1.31,3.01-1.39,7.73.43,5.84-2.98,11.87-1.73,15.46.89,3.02-.67,5.3-.42,9.12.2,4.69-1.4,5.85-.17,10.17,1.86,11.06-1.59,27.87,1.77,39.57-.2,2.68,4.05,13.44.95,12.06-2.81-2.74-1.58,10.89.53,7.56,1.23-2.18,2.18,1.15,1.06,1.99-.86.96-1.27.98-1.44.1-.21-1.41-3.28,2.6-.62,1.96,2.89.6.4,8.11-.31,10.4-2.11,3.31-5.72,17.76-.15,20.84,2,1.03,2.6,2.04,2.92,4.94,1.48,6,1.89,14.74-2.51,19.42-2.38,2.6-3.07,5.37-3.22,13.08-.24,11.92-.27,11.64,1.32,14.84,1.9,3.82,1.86,6.33-.11,6.96-1.6.51-2.18,4.63-1.14,8.11.34,1.13.26,2.02-.4,4.53-.94,3.6-1.56,15.98-.94,18.68.57,1.69-.56,20.8.39,21.8.5,2.27.53,3.31.18,5.75-.63,4.35.79,8.68-.85,12.28-1.58,2.96-2.09,14.44-.83,18.45.65,2.07.68,2.49.2,3.24-1.95,3.07-2.45,8.67-1.18,13.41.71,2.46.63,4.35,2.18,6.45,1.54,2.13,1.68,3.06.46,3.06-5.43,3.4-2.78,11.48-.86,15.96-1.03,3.64-2.91,10.58-1.68,11.72.53,1.03.55,1.5.12,3.27-.9,4.28,2.07,9.45,3.46,13.45,2.04,4.4,3.46,10.5,5.32,15.17.95,4.46-.02,5.58,4.44,11.45.27.36.07.84-.69,1.64-2.25,2.35-1.33,5.74,2.02,7.44,2.71,1.41,6.18,4.28,8.77,2.34,1.52-1.87,5.23.8,6.29-.98,0-.21-.33-.39-.74-.39-3.14-.5.3-2.86-2.18-4.67-6.99-8.05,3.05-4.57,5.94-1.91,1.33,1.72,4.54,2.64,5.81,4.39.75.99,1.41,1.39,2.69,1.59,4.39,1.1,11.14,4.58,13.91,3.18,5.95-1.6,10.93,1.58,16.3,2.67,4.33,1.34,9.81-3.94,14.68-1.79,23.21-.78,47.25,1.73,71.03.92,16.21,1.04,35.22,3.35,59.99,1.22,4.11-.51,8.55-.38,11.6-1.61,1.35-.64,2.25-1.79,3.75-1.17,1.36.71,3.68-.94,5.05-.12,1.48.61,2.45.62,6.57.12,5.41-.27,8.71.12,13.67.07,3.09.65,5.23-1.5,8.88-.76,2.94.78,9.27-1.64,14.97-3.71,2.92,2.06,6.25,2.41,9.46,3.53,4.82,2.37,7.95.14,11.88-.12,2.33,1.11,4.2-3.76,5.82-1.45.98.92,1.99,1.02,2.62.26,1.31-1.59,15.71-2.08,17.29-.59,1.95,1.94,1.83-1.72,7.43.43,4.72,1.16,4.87,1.13,6.23-1.13,1.71-2.84,3.47-3.36,5.17-1.55,1.82,2.91,4.82.16,6.6-1.15,1.71-2.19,6.68-1.64,7.29.8,1.98,4.35,6.43-.73,7.26-3.48-.26-2.78-5.05-.76-6.09-3.52-.58-.89-1.66-1.97-2.4-2.41-3.06-2.03-4.04-9.76,2.1-6.09,5.16,3.41-.63-3.2,2.44-3.48.69-.18.96.03,1.4,1.08,1.38,3.31,3.69,2.63,2.65-.78-.22-.72-.31-2.13-.2-3.12.89-2.38-2.74-3.86-2.1-5.95.47-2.17.4-8.39,2.19-10.06,2.35-2.91,2.02-6.87,2.93-10.17,2.1-4.17-1.66-14.58,1.24-18.65,2.96-7.7-4.65-15.48.08-24.59,4.33-19.72,2.6-37.48,3.43-60.14.31-6.95.27-8.01-.33-9.59-.56-1.48-.6-2.05-.22-3.46s.32-2.27-.36-5.28c-.55-6.16-4.24-12.61-.81-18.04,3.31-6.83-4.02-10,.57-21.24,3.47-10.56,2.38-11.43,2.36-20.22-5.69-2.23-3.75-3.72-5.09-8.81-3.16-7.75-1.13-7.07-.24-11.92,0-1.64.17-1.95,1.95-3.61,5.95-5.17,3.26-24.18.94-30.76-2.28-4.73,4.92-5.54,2.73-13.82-.4-3.23-.37-3.93.3-6.32,1.35-.6.3-28.95.48-36.56-.7-1.62-2.31-4.21-1.57-5.49.63-2.51.87-10.17,1.81-12.94,2.62-7.92,1.01-15.07.24-21.89.31-1.2.6-4.64,1.34-5.56,1.8-2.21-2.87-5.44-1.7-8.64.33-5.89-3.53-11.07-1.85-16.96.72-1.14,1.4.59.9,2.29-1.3,8.28,3.07,3.55,2.26-.88.86-9.7-6.64-9.81-2.98-15.92,2.11-3.32.55-5.46,1.65-10.33,1.12-8.84-1.13-10.29-4.72-16.67-6.32-7.84-4.4-9.89-5.75-17.05-.9-3.24-1.46-6.73-2.6-9.43-.57-1.26-.6-1.73-.22-2.81,2.33-4.51-4.35-7.03-6.62-7.83-3.98-.48-5,1.49-8.72,1.01-1.48-.17-2.33-.1-2.51.19-.46.75-1.32.5-2.79-.8-3.32-3.31-5.92.01-8.13-1.5-1-.74-1.36-.77-5.54-.41-5.88.53-20.16.24-26.18.3-22.93.45-16.34-.43-24.27-1.11-1.35.42-9.5-.65-9.54-.18m-147.9,3.53c-1.02,1.74,4.87,2.01,2.05.16-1.32-.87-1.46-.88-2.05-.16m-6.13,1.16c-3,1.95,4.62,2.58,4.06.55.14-1.26-2.59-1.63-4.06-.55m-9.32,3.88c.63.68,1.07.8,2.24.61,4.77-.34,3.24,3.17-1.67,2.71-3.16,0-4.25.61-4.69,2.6-1.1,4.53-6.82,3-10.62,4.53-2.85,1.39-4.43-.07-5.6,2.39-.57,1.9-5.38,4.28-6.84,5.52-2.15,2.19-5.87.1-2.7-1.62,6.37-4.38,12.5-9,20.35-12.09,2.39-.61,7.27-4.99,8.65-5.49.05,0,.44.38.87.84m148.52,2.42c.35.27.7.93.77,1.46.48,2.15,4.76.96,3.71,4.08-.21,1.31-.07,1.74,1.02,3.09,1.54,1.93,1.81,1.95,2.14.18.3-1.61.78-1.71,3.59-.75,2.61,1.48,4.3-1.92,6.23-.01.34.34.62.47.62.28,0-.34,3.05-1.3,4.12-1.3,2.01,2.12,4.68,8.42,7.27,2.74.68-1.85,1.96-.91,3.72-1.62,6.08-1.86,1.88,4.94,8.36,2.98,3.38-1.61,5.92,1.82,6.79,3.85.24,4.04,6.24-.49,8.65.45,1.2.1,2.27.03,2.38-.15,1.04-1.4,2.9,1.31.75,1.25-2.92-.3,2.38,4.02,1.77.96,0-.67.35-1.01,1.42-1.36,2.43-.8,7.44,5.02,5.85,6.79-1.98,2.83,1.46,3.75,3.39,1.9.82,2.8,7.59,7.06,8.54,6.14.99-.18,1.34-.06,1.68.57.91,1.41,4.53,3.22,5.33,4.99,1.11,1.89,2.85,3.6,4.02,3.96,1.58.48,2.34,3.55.97,3.91-1.24.47-1.12,2.54-1.61,3.68-.57,1.82-.48,2.37.61,3.67,1.26,1.44.66,1.53,1.79,2.87,1.47,2.03-.83,6.16,2.84,6.17,3.47-.22,6.45,2.84,8.7,5.07,1.81,1.55.95,4.31,1.23,6.66-.92,3.08,4.94,5.05,2.02,7.13-2.01,1.76,1.15,8.25,3.42,7.02.93-.5,1.51-.15,1.51.89-.33,1.64-2.87.86-.65,3.37,1,1.2,2.22,4.89,2.23,6.73.06,1.99,1.85,2.97,1.3,5.32-.55,2.72,2.57,5.79-.59,7.35-1.02.53-1.15.77-.91,1.68,3.04,11.73-6.55,9.38-2.07,11.49,1.89.22,1.84,3.22-.06,3.83-1.64,1.41-3.12,4.57-5.86,5.15-1.96.58-.24,3.65,1.8,3.2.91-.2,1.3.06,2.78,1.78,1.87,2.19,1.9,2.73.1,1.99-.89-.65-5.25.07-6.15.16-.35.02-.59,1.86-.73,5.64-.05,1.37.12,1.8,1,2.5,2.42,1.38.81,5.16,2.24,6.92,2.88,4.2-6.98,4.59-2.5,9.85,1.22.97,2.73,4.56,3.68,5.65,3.71,3.51-.24,9.11,1.47,12.74.49,1.17.59,2.35.44,5-.19,3.41-.17,3.5,1.08,5.27,4.27,4.26-1.41,13.04-.37,18.11.22,1.24.09,1.68-.77,2.71-2.96,3,2.92,9.25.93,11.91-.86,2.88-5.94,2.53-4.79,6.73-.15,3.13-.79,9.28.44,13.73.49,1.44-.27,2.51.32,3.8,1.38,2.84,1.75,6.51.78,7.7-.58,1.58.27,3.19-1.02,5.4,0,0-1.02,2.32-1.02,2.32,2.48,4.34,4.73,9.12,1.64,14.06.44,3.12,4.83,11.81,2.7,12.38-1.42,3.6-1.29,9.95-3.79,12.16-4.18,4.6,1.73,4.57.92,8.48-.15.99-.26,2.42-.24,3.18.15,2.44-1.8,7.37-3.42,10.27,0,0,.13,7.06.13,7.06-.62,8.58,2.57,8.46.63,13.29-1.07,1.58-.18,3.35-1.73,4.17-1.77.99-2.54,7.68-5.08,7.75-1.74.62.08,3.14,2.27,3.14,1.95,0,1.99,1.58.17,6.16-.75,1.89-5.44.48-6.6-1.99-.71-1.36-1.47-1.43-2.14,0-.23,1.01-1.84,2.05-1.64,2.95.17.27.39.19.62-.22.84-1.5,2.47-.07,2.01,1.77-.52,1.76-5.16,4.92-1.27,5.64,3.13,1.24,1.64,3.68,1.94,5.81,1.29,1.91-2.42,2.44-1.77,4.39.58,3.3-4.09,3.16-3.67,7.4.24,1.73-1.08,5.22.6,4.95.49-.07.89.05.89.26,0,.85-.51,1.64-1.05,1.64-1.03.15.03,4.46-1.25,4.88-2.6,2.43,4.13,7.87-3.04,8.2-6.78.07,1.97,5.42-5.81,4.66-2.46-.18-2.75-.12-3.41.73-.88,1.12-4.26,2.42-6.95,2.67-5.98.03-1.89,3.07.15,2.67.79-.43,1.23-.2,1.23.65,0,.75-1.62,2.89-2.18,2.89-2,0-2.16,2.89-.18,3.17,5.28,1.82-2.46,6.6-5.14,7.29-2.23.2-2.05,2.96-4.46.94-1.12-1.16-2.06,2.1-3.55,2.62-1.15.17-1.23.63-.34,1.84,1.45,1.97.14,3.53-1.82,2.16-3.29-1.75-1.65,3.43-5.25,3.03-3.72.55-4.58,1.28-9.25,1.16-4.37-.42-6.4,1.25-9.24,1.13-.66-.37-6.77-3.13-6.94-3.13-.51,1.81-2.74,3.68-4.74,1.42-1.19-1.63-3.85-.07-5.47-1.17-1.75-.83-2.1-.81-2.62.15-3.31,2.96-6.91-6.37-13.22.63-2.44,3.47-8.13.48-9.6,2.75-2.32,2.47-5.49-.57-8.03-.44-1.68.32-6.29-.65-8.02-.74-11.11-.13-1.76-5.57-11.22-7.17-6.85-2.93-10.53,9.66-9.38,13.61.82,2.06.1,3.46-2.09,4.06-4.74,1.28,3.58,5.57-2.71,6.54-1.51-.14-4.87,4.85-6.25,3.99-5.12-1.32-4.84-.31-6.17,2.54-.79,1.69-8.09,4.76-11.33,4.76-1.86,0-5.36-.67-8.75-1.67-1.36-.4-1.55-.36-2.45.62-.96,1.04-2.34,1.39-2.76.7-.12-.2-2.43-.32-5.14-.27-4.99.09-6.17-.25-4.51-1.29,3.47-4.03-11.01-6.51-16.02-11.92-3.35-2.57-8.38-4.37-7.99-2.86.13.49.03.84-.24.84-.29,0-.27.13.07.34.4.25.33.39-.3.55-.98.3-.62-.46-1.41-.5-.32,0-.59-.18-.59-.4,0-2.14-5.62,1.79-6.93,3.56l-2.53-.64c-3.18-1.5-5.88,1.86-7.44-.95-.41-.74-1.1-1.3-1.77-1.44-1.48-.31-1.66-.74-1.06-2.55.44-1.32.42-1.64-.11-2.24-.51-.58-1.23-5.14-.73-4.63.22.22,2.8-2.48,2.8-2.94,0-.66-1.11-.83-1.6-.24-.57.69-1.67.73-3.38.1-2.43-1.2-5.22,2.25-7.31,3.24-4.75.14-6.33,12.71-12.47,6-2.22-2.78-9.61-4.29-14.59-2.99-2.69.7-3.24.69-4.08-.07-.55-.5-.97-.54-2.1-.23-2.49.69-3.47-1.33-1.86-3.86,1.64-2.41-4.58-3.74-4.29-.82,0,2.25-2.49,1.01-3.77-1.88-3.07-8.53-6.17-.87-7.68-5.19-.51-4-5.55-3.13-8.53-4.85-3.39-2.38-4.1-.06-6.64-.72-6.15-2.9-1.69,7.72-9.23,8.25-4.51.03-1.51,5.23-6.91-1.2.4-1.69,1.36-5.66,1.33-6.8.12-1.79,2.87-3.74,3.18-5.78.83-2.3,3.35-6.55,1.01-7.96-1.15-.24-2.42-2.67-3.84-2.44-1.57.31-2.06-2.36-2.71-3.17-.74-4.88-6.83-7.53-2.62-11.67,4.7-5.45-.56,7.86,2.79,4.33,1.87-2.62-1.69-11.76.44-14.88.29-.54-1.4-3.2-1.87-4.02,5.58-4.74.74-5.03,2.2-7.67,1.84-1.51-2.04-2.53.08-4.72,2.2-3.21,5.38,7.01,7.73,4.41,2.19-1.36.35-5.43-2.46-5.43-1.88-1.14-5.84-2.42-6.18-5.15-.46-1.8-1.37-1.94-2.71-.42-1.78,2.01-3.38.58-1.77-1.59,1.37-2.29.65-3.84,1.42-7.1,1.89-6.52-1.51-7.45-1.01-11.6.54-1.65.72-8.03.27-9.71-.39-6.31,8.45,16.43,9.42-5.05,2.33-.19,5.88-.93,3.82-3.57-1.47-4.4-1.62-9.39-7.96-9.93-4.53-.4-4.15.06-4.12-4.83.01-2.36.16-4.52.33-4.79.39-1.04-1.3-2.39-.74-3.57.44-1.48.24-10.88,1.25-11.84.68-1.27.68-1.39.02-2.54-2.22-3.62,2.7-5.45,1.69-9.75-2.75-7.52,2.06-10.24-.56-14.7-1.45-2.27-1.72-6.14-.47-6.81,1.45-.65,1.02-3.91,2.18-5.05.86-1.16.86-1.23.23-3.66-.62-2.39-.61-2.54.17-4.16.99-5.8,4.41-13.7,1.25-19.52-2.13-3.17-.05-3.66-.33-6.35-.16-1.08.1-1.52,2.03-3.44,3.13-3.49,6.56-8.06,4.97-12.54-.68-1.04-.14-5.25-.97-6.16-1.6-2.7.93-1.37.38-6.43,0-3.89.03-4.04,1.16-5.22,1.43-1.51,1.63-1.51,2.39-.03.6,1.67,2.82.99,2.53,2.93-.39,5.81,1.39,6.18,3.42.71.95-2.57,1.74-2.96,3.19-1.58.6.56,1.47.93,2.22.93,1.38,0,2.91,1.91,1.99,2.49-2.86,1.79,2.08,3.21,2.29,4.45-1.18,2.98.35,3.25,1.87-.61,1.1-3.36,1.84-4.45,3.48-5.14,5.22-2.19,6.65-8.7,2.76-12.6-.54-.55-.63-.87-.31-1.19,1.14-1.15.5-1.97-1.36-1.76-2.82.56-2.48-1.76-4.4-3.16-1.25-1.21-1.31-1.38-1.09-3.37.41-3.67-1.86-7.73-4.03-7.2-1.52.27-2.29-1.99-3.99-1.49-1.62,1.2,1.3,2.16.46,4.42-.96,3.66,5.02,2.32,1.33,8.8-2.3,3.3-2.1-2.81-4.99-.25-.86.61-1.02.59-2.55-.26-2.54-1.4-3.02-1.96-3.02-3.49.4-1.71-2.8-3.39-2.76-4.91.08-3.46-11.03-3.82-9-7.51.29-.85.28-1.47-.03-2.17-1.23-2.87.6-4.26.39-7.42-.21-3.59,2.93-5.63,1.26-9-.84-1.43-.52-2.53,1.66-5.73,3.64-3.92.2-7.42,2.27-11.97,1.36-2.56.81-8.28,4.01-7.16,6.2,2.01-7.62-12.22-2.75-16.13,4.07-6.58-4.17-3.74-.95-12.71.98-4.8,1.26-7.78.8-8.78-.54-1.2-.29-1.72.87-1.75,6.49.25,4.56-11.67,9.17-14.65,1.45.21,2.4-5.32,4.54-4.89.28-2.83.89-14.63,5.55-11.6,1.88,2.4,7.45.07,7.64-3.19.14-2.38,3.85-2.89,5.54-.77,1.58,1.98,3.3,1.17,2.35-1.12-.81-1.95-.74-2.92.3-4.21,1.17-1.2,1.59-3.44,3.46-3.72,1.7-.34,2.36-.93,2.36-2.1.93-2.27,3.86-2.85,7.36-1.9,1.11.23,1.32.12,1.86-.93,2.73-6.43,3.97,3.26,5.9-.97,0-1.42,5.13-4.41,6.68-6.91.95-1.74,1.73-.83,2.49-2.69.36-1.59,2.12-1.41,2.54-2.43,1.22-1.11,4.04-.21,5.73-2.53,2.14-1.97,7.7-1.81,7.7.22.89,2.17,1.6-2.73,6-2.2,1.16,0,1.75-.25,2.41-1.01.48-.55,1.32-1.05,1.87-1.09,2.32-.19,6.3-4.06,6.3-6.14,0-1.51,1.18-2.64,1.77-1.68.82,1.48,3.62-.46,4.83-.56.88-.07,1.88-1.27,2.42-2,7.21,4.6,10.69-.61,13.33,1.83,1.68,1.59,4.14.57,4.67-1.93.48-2.88,5.76-1.32,7.74-1.69,2.05,0,4.53,1.53,4.95,3.08.25.91,1.74,1.29,1.74.44,1.01-.9,4.22.82,5.37-1.34,1.51-2.24,4.14-.39,5.21-2.56,1.16-2.07,2.62-.49,4.88-.57,3.26.25,2.96,1.97,6.03,2.73,3.06.91,3.45,2.84,6.28,4.33,3.4-1.9,6.07-3.62,9.32-2.15,1.16.1,2.06.97,2.64.14.1-.27-.1-.5-.44-.5-3.1-.53,4.98-2.71,5.37-2.86,1.54-.75,4.01.91,4.98-1.08,1.67-2.27,6.06-1.56,7.18,1.18,2.45,3.23,5.93-2.6,10.78.92,5.27,3.04,13.08.9,18.43-.37,8.41-3.88,8.63-3.96,9.57-3.23m-217.7,7.27c.28,1.91-3.73,5.43-5.37,5.52-2.05-.87-1.41,3.64-1.15,5.22-7.78-.6,1.05,3.89,2.83-1.06.77-4.34,6.23-.81,6.59-7.42.02-2.51-2.16-4.2-2.9-2.26m-5.14.42c-.6,1.36.88,1.03.95-.08,0-.78-.65-.72-.95.08m-4.95,1.12c-1.5,2.58,2.29,4.16,3.07,1.93-.24-1.2-2.51-2.62-3.07-1.93m3.74,19.04c-1.13.87-5.45.85-6.16,2.35-1.1,1.45-2.23,1.52-3.59,2.67-1.41,1.71-2.7-.95-3.69.92-.35.53-1.23,1.32-1.98,1.76-2.64,1.45-1.43,7.65,2.34,5.39,2.8-.85,5.97-.64,8.41-3.04,2.23-1.93,3.44-1.04,4.29-5.39.23-2.61,3.65-6.34.38-4.64m42.17,1.98c.29.92-.92.61-1.07,0-.29-.92.92-.61,1.07,0m-25.4,23.28c-1.98.3-4.53.64-6.51.9-.43,3.22,1.18,4.38,2.72,6.62,1.15,2.33,4.97.9,5.79-2.16.24-.91.69-2.01,1-2.44,1.53-2.2.29-3.4-3-2.9m308.23,2.88c0,.77-.78.76-.78,0,0-.76.78-.76.78,0m-312.95,10.09c-2.85,2.15,3.61,5.88,2.21,1.63-.68-2.31-1.17-2.67-2.21-1.63m-.41,9.36c0,1.3,2-.47.62-.63-.35,0-.62.28-.62.63M2.29,137.96c-.14.35-.23,1.12-.21,1.7.04,2.31,1.2-4.35.21-1.7m38.04,47.98c.2,1.44,2.65-.55.82-.62-.48,0-.82.26-.82.62m-1.36,20.57c1.38.8,1.3,5.84-.46,3.69-2.57-2.96-2.16-6.31.45-3.69m2.94,21.14c.12,1.15,1.74,2,2.03,3.25,1.75,3.36,6.11.45.95-2.14-1.64-.65-2.28-3.02-2.96-1.11m11.12,3.72c.09.62.39.92.92.92,2.48-.32-1.19-3.23-.92-.93m-1.65,4.49c.13,1.58,2.47-.52.78-.59-.43,0-.78.27-.78.59m-5.24,96.78c-1.17,1.21,1.45,1.05,1.8.35.1-.47-1.4-.76-1.8-.35m-14.89,63.8c-.21.56-.38,1.09-.38,1.19.08.19,4.54.46,3.94-.54,0-1.86-2.9-2.39-3.56-.65m-4.29,12.62c-1.13,1.21-1.03,3.21.15,3.21,1.85.3,2.55-6.32-.16-3.21m25.85,16.32c-.29.77.45,2.26.96,1.94.91-.76.11-3.88-.96-1.94m-6.37.98c-.38.4.45,3.45-.17,3.73-.88.55-.43,2.14.86,3.05.71.5,1.52,1.13,1.8,1.41,2.99,2.11,7.32-3.88,4.74-6.71-6.61,6.95-3.85-3.68-7.24-1.49m-25.56,2.85c-.22,1.25-.24-2.62-.01-1.59.1.38.1,1.09,0,1.59m33.9,9.54c-2.68,2.98,3.36,4.51,2.15.73-.56-1.35-1.07-1.52-2.15-.73m5.37,2.13c-.39.16-.4.34-.05.76,1.08,1.4,1.96-1.82.06-.75m267.29,5.44c-.57.42-.67.7-.35,1.02.97.98,2.17-2.38.36-1.02m-293.66,4.1c-1.12,1.8-1.52,4.79-.76,5.64.91,1.01,2.18,1.06,2.18.08.5-1.81,3.24-3.02,1.16-5.27-.92-1.3-1.95-1.48-2.58-.46m302.26,3.9c.36.36-.13,1.38-.54,1.12-.62-.37-.34-1.97.54-1.12m-275.01,8.22c-.23.55.38,2.1.66,2.79l.81-.81c1.71-.79-1.16-3.42-1.47-1.98m146.49.5c-2.85,4.21,8.22,8.82,3.41,3.76-2.42-2.45-3.37-1.68-3.1-2.6.49-.71.86-2.85-.3-1.15m-139.07,2.62c.24.74,1.09.86,1.09.16.09-.69-1.22-.89-1.09-.16m71.27,25.83c.26,1.18-1.41.45-1.44-.28-.26-1.18,1.41-.45,1.44.28m4.8,1.08c0,.97-.92.83-1.11-.16-.15-.99,1.21-.79,1.11.17m95.21,25.22c.38.1,1,.1,1.38,0,.97-.23-2.35-.23-1.38,0"/></svg>