<svg id="svg" version="1.1" xmlns="http://www.w3.org/2000/svg" xmlns:xlink="http://www.w3.org/1999/xlink" width="400" height="522.6544622425629" viewBox="0, 0, 400,522.6544622425629"><g id="svgg"><path id="path0" d="M43.400 0.432 C 40.913 0.852,38.199 0.879,28.747 0.576 C 21.881 0.357,21.139 0.401,19.347 1.140 C 18.276 1.582,16.379 2.057,15.131 2.196 C 9.555 2.819,5.096 8.159,5.778 13.397 C 6.594 19.665,6.565 20.237,5.345 21.837 C 4.245 23.277,4.190 23.561,3.961 28.969 C 3.829 32.066,3.593 34.895,3.435 35.255 C 3.191 35.813,3.444 37.384,4.696 43.101 C 4.805 43.596,4.532 45.576,4.090 47.501 C 2.349 55.086,2.313 55.366,2.579 59.408 C 3.199 68.849,3.192 77.734,2.562 79.947 C 1.805 82.606,1.720 114.277,2.462 117.000 C 3.300 120.072,3.299 122.633,2.459 125.955 C 1.595 129.371,1.624 139.953,2.494 138.723 C 2.735 138.383,2.770 138.620,2.594 139.400 C 1.320 145.054,1.230 151.213,2.361 155.400 C 3.199 158.500,3.218 159.054,2.963 173.200 C 2.615 192.529,2.697 207.070,3.171 210.015 C 3.472 211.882,3.430 212.709,2.978 213.790 C 2.294 215.427,2.179 222.966,2.812 224.631 C 3.118 225.435,3.066 226.256,2.612 227.819 C 1.913 230.222,1.729 239.439,2.400 238.400 C 2.613 238.070,2.791 237.966,2.794 238.169 C 2.797 238.371,2.485 238.885,2.100 239.309 C 1.496 239.976,1.370 241.240,1.184 248.541 C 1.065 253.193,0.827 257.298,0.655 257.662 C 0.266 258.488,1.777 263.717,2.603 264.403 C 3.433 265.092,3.405 270.973,2.557 273.890 C 2.094 275.482,1.880 278.194,1.794 283.552 C 1.728 287.648,1.552 292.901,1.403 295.224 C 1.152 299.130,1.205 299.629,2.112 301.860 C 3.493 305.258,3.780 308.125,2.986 310.600 C 2.624 311.732,2.190 315.204,1.987 318.600 C 1.608 324.924,0.960 331.017,0.605 331.592 C 0.489 331.780,0.687 333.074,1.045 334.467 C 2.086 338.520,2.166 340.243,1.387 341.884 C 1.004 342.690,0.708 344.081,0.728 344.975 C 0.877 351.583,0.775 356.368,0.413 359.800 C -0.114 364.804,-0.034 388.400,0.510 388.400 C 0.730 388.400,0.704 388.633,0.449 388.941 C -0.445 390.018,0.051 501.767,0.961 504.200 C 1.452 505.514,1.802 507.883,1.980 511.106 C 2.304 516.941,2.614 517.531,6.436 519.563 C 9.254 521.061,9.402 521.075,17.291 520.589 C 21.648 520.321,22.218 520.373,25.291 521.324 L 28.600 522.347 66.905 522.368 C 100.684 522.387,105.394 522.316,106.767 521.766 C 107.960 521.289,109.246 521.192,112.262 521.352 C 127.848 522.177,151.186 522.334,263.123 522.363 L 388.046 522.395 390.201 521.016 C 392.538 519.522,393.401 518.464,393.807 516.600 C 393.951 515.940,394.323 514.721,394.634 513.892 C 394.945 513.062,395.200 511.386,395.200 510.167 C 395.200 508.948,395.554 506.836,395.986 505.475 C 397.779 499.827,398.404 491.820,397.266 489.074 C 396.967 488.351,396.800 485.220,396.800 480.320 C 396.800 475.694,396.618 472.084,396.336 471.145 C 395.981 469.961,395.986 469.106,396.356 467.499 C 396.798 465.585,397.349 448.755,397.199 441.800 C 397.077 436.178,397.176 425.203,397.419 417.200 C 397.597 411.385,397.524 408.215,397.171 406.301 C 396.768 404.124,396.772 403.186,397.187 401.454 C 397.583 399.804,397.616 397.786,397.332 392.753 C 397.101 388.679,397.103 385.746,397.337 385.000 C 398.094 382.583,397.711 372.327,396.770 369.812 C 395.834 367.310,395.858 367.054,397.401 363.000 C 398.555 359.968,398.546 358.066,397.372 356.769 C 396.413 355.709,396.140 347.442,396.621 334.014 C 396.837 327.989,396.784 327.196,395.992 324.687 C 395.066 321.754,395.067 322.012,395.922 309.000 C 396.110 306.140,396.550 302.630,396.900 301.200 C 398.085 296.358,398.581 290.632,398.641 281.132 C 398.677 275.305,398.873 271.167,399.150 270.372 C 400.192 267.381,399.306 262.376,397.463 260.851 C 396.577 260.118,396.582 256.485,397.473 253.132 C 397.975 251.246,398.172 248.560,398.249 242.600 C 398.305 238.200,398.388 234.101,398.433 233.492 C 398.477 232.882,398.197 231.681,397.810 230.823 C 397.196 229.460,397.165 228.929,397.568 226.615 C 397.955 224.395,397.923 223.545,397.374 221.355 C 397.014 219.919,396.810 218.171,396.921 217.472 C 397.032 216.772,397.396 214.490,397.730 212.400 C 398.064 210.310,398.639 207.620,399.007 206.422 C 399.513 204.776,399.618 203.455,399.435 201.022 C 399.115 196.775,399.115 196.566,399.421 193.988 C 399.619 192.326,399.514 191.382,398.998 190.188 C 397.765 187.334,397.614 186.049,398.303 184.258 C 398.793 182.982,398.947 180.987,398.970 175.600 C 398.986 171.750,399.233 166.890,399.518 164.800 C 400.035 161.010,400.028 42.900,399.511 38.400 C 399.285 36.437,397.759 31.629,397.168 31.020 C 396.168 29.988,396.776 26.772,398.400 24.504 C 401.354 20.378,400.608 13.971,396.673 9.686 C 396.212 9.183,395.376 7.988,394.817 7.031 C 390.288 -0.719,394.606 -0.054,350.200 0.161 C 329.740 0.260,312.280 0.324,311.400 0.303 C 274.298 -0.571,253.942 0.334,249.261 3.065 L 247.522 4.080 245.661 2.088 L 243.800 0.096 231.200 0.038 C 221.401 -0.007,218.111 0.107,216.400 0.553 C 215.190 0.868,212.940 1.251,211.400 1.404 C 209.860 1.557,207.250 2.136,205.600 2.690 C 199.209 4.836,195.644 4.863,191.594 2.797 C 190.751 2.367,188.677 1.550,186.985 0.982 L 183.910 -0.050 170.055 0.015 C 147.442 0.121,135.600 0.458,135.600 0.996 C 135.600 1.776,132.134 2.390,131.300 1.757 C 130.691 1.294,130.911 1.216,133.000 1.152 L 135.400 1.078 132.800 0.786 C 127.938 0.239,120.358 0.364,117.400 1.039 C 115.327 1.512,112.002 1.705,104.600 1.784 C 99.100 1.842,93.872 2.015,92.982 2.166 C 91.989 2.336,90.908 2.254,90.182 1.954 C 89.071 1.495,84.447 1.071,74.871 0.550 C 71.438 0.363,70.663 0.429,70.271 0.943 C 69.782 1.583,68.016 1.837,65.600 1.615 L 64.200 1.486 65.800 1.200 L 67.400 0.914 65.600 0.870 C 64.610 0.846,62.810 1.192,61.600 1.638 C 58.073 2.940,57.646 2.980,56.680 2.097 C 54.408 0.021,49.487 -0.596,43.400 0.432 M286.600 8.771 C 288.424 8.979,290.574 8.988,291.600 8.793 C 293.048 8.517,293.686 8.596,294.860 9.197 C 296.380 9.976,297.325 10.008,316.200 9.915 C 319.060 9.901,325.180 9.914,329.800 9.944 C 334.420 9.974,340.241 9.825,342.735 9.613 C 346.980 9.253,347.339 9.279,348.354 10.029 C 349.336 10.755,349.560 10.778,350.756 10.275 C 352.580 9.509,354.837 9.998,356.596 11.543 C 358.092 12.857,358.964 13.106,359.428 12.354 C 359.610 12.060,360.476 11.996,361.976 12.165 C 363.613 12.351,364.664 12.249,365.735 11.801 C 367.146 11.212,368.533 11.034,370.813 11.149 C 371.870 11.202,375.545 13.301,377.100 14.739 C 378.103 15.667,378.243 17.072,377.528 19.047 C 377.136 20.132,377.173 20.610,377.747 21.881 C 378.126 22.723,378.685 24.489,378.989 25.806 C 379.293 27.123,379.918 29.640,380.379 31.400 C 380.993 33.750,381.153 35.237,380.980 37.000 C 380.703 39.820,382.362 43.502,386.206 48.600 C 387.367 50.140,388.507 52.096,388.739 52.947 C 388.972 53.798,389.452 54.816,389.807 55.208 C 391.251 56.803,391.688 60.583,390.989 65.415 C 390.636 67.857,390.387 70.293,390.436 70.828 C 390.638 73.042,390.342 74.372,389.320 75.844 C 387.920 77.861,387.899 80.406,389.270 81.783 C 391.181 83.701,392.499 87.025,392.203 89.176 C 392.048 90.304,392.108 91.455,392.346 91.899 C 392.892 92.920,391.620 97.347,390.731 97.518 C 389.859 97.686,389.446 94.808,390.051 92.788 C 390.563 91.078,389.873 89.328,389.141 90.481 C 388.695 91.185,388.710 97.345,389.159 97.820 C 389.356 98.029,389.606 98.920,389.713 99.800 C 389.820 100.680,390.212 102.208,390.585 103.196 C 391.096 104.550,391.199 105.631,391.007 107.596 C 390.770 110.031,390.832 110.324,391.976 112.114 C 393.263 114.127,393.514 115.526,392.730 116.310 C 392.471 116.569,392.118 117.640,391.945 118.690 C 391.772 119.741,391.512 121.193,391.367 121.917 C 391.213 122.691,391.359 124.175,391.722 125.517 C 393.151 130.791,392.934 137.517,391.127 144.000 C 390.667 145.650,390.162 148.980,390.005 151.400 C 389.847 153.820,389.529 156.369,389.297 157.064 C 388.942 158.130,389.034 158.662,389.881 160.464 L 390.885 162.600 391.020 179.690 C 391.145 195.488,391.098 196.985,390.397 199.490 C 389.723 201.902,389.689 202.603,390.096 205.866 C 390.697 210.687,390.170 213.221,388.188 215.037 C 386.668 216.429,386.328 218.317,387.329 219.811 C 389.317 222.778,390.828 242.088,389.302 245.033 C 389.084 245.455,388.780 246.520,388.627 247.400 C 388.416 248.617,387.876 249.440,386.375 250.838 C 384.571 252.516,384.400 252.832,384.400 254.484 C 384.400 255.686,384.132 256.633,383.600 257.309 C 382.368 258.875,382.617 261.078,384.639 266.508 C 384.947 267.338,385.218 268.778,385.240 269.708 C 385.309 272.654,385.677 273.324,387.814 274.400 L 389.800 275.400 389.912 281.170 C 390.030 287.292,390.102 286.873,387.406 295.800 C 385.359 302.580,385.370 306.443,387.450 311.549 C 388.302 313.639,388.123 315.276,386.831 317.231 C 385.273 319.588,385.019 320.811,385.525 323.524 C 385.759 324.776,386.149 327.150,386.392 328.800 C 386.635 330.450,387.203 333.431,387.653 335.425 C 388.337 338.459,388.396 339.329,388.013 340.752 C 387.631 342.171,387.668 342.752,388.238 344.244 C 388.846 345.836,388.883 346.906,388.573 353.917 C 388.198 362.396,388.145 366.023,388.338 369.800 C 388.547 373.884,388.065 395.171,387.752 395.678 C 387.589 395.941,387.305 397.876,387.120 399.978 C 386.935 402.080,386.626 405.600,386.434 407.800 C 386.222 410.223,385.694 412.904,385.094 414.600 C 382.933 420.708,382.837 424.379,384.723 428.800 C 385.927 431.621,386.102 437.990,385.016 439.415 C 383.769 441.050,383.411 443.675,384.032 446.625 C 384.666 449.632,384.508 456.444,383.763 458.228 C 383.453 458.968,383.198 460.255,383.195 461.087 C 383.188 463.502,382.231 466.449,380.793 468.489 C 379.632 470.136,379.420 470.828,379.143 473.889 C 378.967 475.820,378.712 477.960,378.575 478.644 C 378.369 479.670,378.551 480.144,379.614 481.354 C 380.763 482.663,380.880 483.017,380.697 484.639 C 380.584 485.638,380.676 487.054,380.900 487.785 C 381.954 491.221,379.608 491.907,378.213 488.570 C 377.772 487.514,377.496 487.302,376.799 487.484 C 375.604 487.797,375.429 488.509,376.187 489.976 C 377.286 492.099,376.287 492.649,374.327 491.000 C 372.559 489.512,369.600 489.930,369.600 491.667 C 369.600 493.551,370.957 496.413,372.196 497.145 C 372.942 497.585,374.037 498.677,374.629 499.572 C 375.601 501.041,375.868 501.200,377.364 501.200 C 379.211 501.200,380.800 502.090,380.800 503.123 C 380.799 504.181,377.298 508.400,376.420 508.400 C 374.954 508.400,373.701 507.657,373.444 506.634 C 372.825 504.167,367.791 503.614,366.054 505.822 C 365.359 506.706,362.113 508.400,361.114 508.400 C 360.883 508.400,360.095 507.765,359.363 506.988 C 357.637 505.158,355.850 505.691,354.121 508.553 C 352.742 510.837,352.593 510.864,347.807 509.694 C 343.931 508.746,343.776 508.739,342.503 509.424 C 341.222 510.114,341.169 510.110,340.270 509.266 C 338.671 507.764,324.076 508.262,322.746 509.865 C 322.112 510.629,321.087 510.526,320.092 509.600 C 318.987 508.570,318.963 508.574,317.287 510.045 C 316.042 511.139,315.665 511.263,314.198 511.062 C 312.946 510.890,312.137 511.042,310.973 511.665 C 309.066 512.688,305.172 512.474,302.159 511.182 C 301.109 510.732,299.429 510.255,298.425 510.121 C 297.421 509.987,295.692 509.369,294.583 508.747 L 292.566 507.617 289.383 508.761 C 282.352 511.287,280.651 511.656,277.393 511.361 C 275.000 511.144,273.913 511.235,272.277 511.789 C 270.665 512.335,269.797 512.411,268.400 512.129 C 267.355 511.919,265.629 511.912,264.285 512.113 C 262.830 512.331,261.249 512.305,260.027 512.043 C 258.665 511.751,257.024 511.756,254.542 512.061 C 250.359 512.573,249.376 512.556,247.879 511.944 C 247.027 511.595,246.404 511.602,245.279 511.972 C 244.249 512.312,243.485 512.339,242.761 512.063 C 242.034 511.785,241.478 511.807,240.913 512.133 C 240.468 512.390,239.586 512.890,238.952 513.244 C 238.319 513.599,236.450 514.014,234.800 514.168 C 233.150 514.321,229.730 514.633,227.200 514.861 C 214.019 516.050,180.405 515.839,178.326 514.554 C 177.272 513.903,171.825 513.477,166.400 513.621 C 152.494 513.992,136.641 513.684,123.000 512.780 C 118.922 512.509,116.381 512.514,115.067 512.794 C 114.003 513.020,112.980 513.111,112.792 512.995 C 111.628 512.275,102.430 512.051,99.290 512.666 C 96.288 513.253,95.833 513.256,94.402 512.694 C 92.486 511.941,88.290 512.200,86.829 513.161 C 84.949 514.397,80.989 515.127,79.517 514.508 C 78.801 514.207,76.681 513.619,74.807 513.202 C 72.933 512.784,70.730 512.163,69.913 511.821 C 68.081 511.056,66.127 511.053,63.000 511.809 C 60.365 512.446,57.862 511.955,52.800 509.809 C 51.590 509.296,49.832 508.753,48.893 508.602 C 47.605 508.395,46.936 508.000,46.171 506.997 C 45.613 506.266,44.311 505.273,43.278 504.791 C 42.245 504.309,40.896 503.308,40.279 502.567 C 39.549 501.690,38.571 501.071,37.479 500.795 C 36.556 500.561,35.117 500.076,34.283 499.716 C 31.012 498.307,30.993 500.862,34.248 504.494 C 35.434 505.817,35.536 506.103,35.135 506.983 C 34.603 508.151,35.224 509.200,36.449 509.200 C 36.862 509.200,37.200 509.377,37.200 509.592 C 37.200 510.185,35.375 510.521,34.537 510.082 C 33.545 509.563,31.669 509.813,30.825 510.577 C 29.793 511.511,27.151 511.362,25.556 510.281 C 24.810 509.775,23.180 508.845,21.934 508.214 C 18.544 506.498,17.613 503.082,19.889 500.707 C 20.661 499.902,20.864 499.420,20.589 499.053 C 17.705 495.211,16.102 491.641,16.637 490.249 C 16.771 489.898,16.527 488.664,16.094 487.506 C 15.000 484.577,13.286 479.457,12.443 476.600 C 12.054 475.280,11.269 473.300,10.699 472.200 C 10.128 471.100,9.279 468.940,8.813 467.400 C 8.346 465.860,7.677 463.727,7.327 462.660 C 6.786 461.010,6.766 460.409,7.192 458.631 C 7.622 456.842,7.604 456.368,7.069 455.333 C 6.339 453.922,6.602 451.273,7.950 446.456 L 8.773 443.512 7.791 441.178 C 7.156 439.670,6.718 437.667,6.555 435.522 C 6.296 432.122,6.363 431.848,8.378 428.000 C 8.551 427.670,9.121 427.400,9.646 427.400 C 10.883 427.400,10.743 426.466,9.182 424.312 C 8.542 423.429,7.906 422.052,7.768 421.253 C 7.630 420.454,7.276 418.900,6.981 417.800 C 5.697 413.020,6.196 407.372,8.176 404.271 C 8.659 403.514,8.633 403.086,7.972 401.000 C 6.691 396.957,7.212 385.366,8.809 382.383 C 9.529 381.037,9.958 376.741,9.570 374.749 C 9.362 373.681,9.401 371.831,9.669 369.998 C 10.029 367.542,9.995 366.486,9.487 364.198 C 8.972 361.878,8.916 359.895,9.163 352.600 C 9.339 347.412,9.308 343.143,9.089 342.200 C 8.456 339.481,9.085 326.989,10.038 323.353 C 10.703 320.820,10.782 319.922,10.442 318.786 C 9.391 315.269,9.978 311.115,11.600 310.600 C 13.600 309.965,13.641 307.435,11.714 303.576 C 10.246 300.636,10.229 300.545,10.272 296.000 C 10.417 280.634,10.761 278.526,13.641 275.402 C 16.490 272.311,18.123 265.371,17.064 260.857 C 16.721 259.396,16.322 257.120,16.178 255.800 C 15.857 252.867,15.253 251.847,13.221 250.811 C 11.303 249.832,11.143 249.584,10.645 246.810 C 9.745 241.797,11.212 232.655,13.376 229.792 C 13.705 229.356,13.980 228.437,13.987 227.749 C 13.994 227.061,14.281 225.826,14.623 225.006 C 15.620 222.621,15.056 219.147,13.695 219.292 C 12.345 219.436,12.188 218.778,13.291 217.595 C 14.071 216.757,14.212 216.719,14.326 217.313 C 14.499 218.209,14.912 218.181,15.785 217.216 C 16.268 216.683,16.413 216.108,16.240 215.416 C 15.933 214.194,15.384 214.117,14.707 215.200 C 13.958 216.400,13.690 216.199,13.015 213.927 C 11.862 210.045,12.553 206.233,14.166 207.572 C 15.564 208.732,15.727 206.201,14.512 202.183 C 14.050 200.652,13.463 197.600,13.209 195.400 C 12.955 193.200,12.493 190.680,12.183 189.800 C 11.872 188.920,11.627 186.850,11.637 185.200 C 11.647 183.550,11.643 179.680,11.627 176.600 C 11.611 173.520,11.725 168.660,11.881 165.800 C 12.258 158.876,12.246 158.625,11.400 155.464 C 10.798 153.217,10.745 152.395,11.101 150.864 C 11.339 149.839,11.552 147.290,11.574 145.200 C 11.595 143.110,11.822 140.554,12.077 139.520 C 12.446 138.026,12.430 137.302,11.998 135.995 C 11.410 134.211,11.681 131.946,13.004 127.600 C 13.450 126.137,13.702 123.722,13.756 120.393 C 13.834 115.635,13.904 115.246,15.163 112.593 C 17.624 107.404,18.282 101.804,16.924 97.599 C 16.295 95.650,16.294 95.434,16.910 94.453 C 19.327 90.607,20.177 88.404,19.714 87.179 C 19.210 85.842,19.550 84.375,20.869 82.200 C 21.269 81.540,21.598 80.630,21.599 80.178 C 21.599 79.725,22.050 78.745,22.600 78.000 C 23.888 76.254,23.869 76.050,22.204 73.956 C 20.538 71.861,20.444 70.945,21.830 70.314 C 22.396 70.055,23.113 69.354,23.423 68.755 C 24.294 67.072,27.515 65.072,29.252 65.137 C 31.126 65.206,32.495 64.129,34.061 61.353 L 35.276 59.200 37.307 59.200 C 39.563 59.200,40.800 58.427,40.800 57.018 C 40.800 56.207,43.868 51.576,44.777 51.014 C 45.010 50.870,45.200 50.052,45.200 49.195 C 45.200 47.359,48.003 44.800,50.013 44.800 C 51.544 44.800,52.652 43.775,54.130 40.992 L 55.400 38.600 58.788 38.482 C 61.179 38.399,62.381 38.179,62.872 37.735 C 63.388 37.267,63.909 37.186,64.884 37.420 C 65.608 37.593,68.090 37.755,70.400 37.780 C 72.710 37.806,75.107 38.045,75.726 38.313 C 77.310 38.998,77.410 38.970,79.216 37.338 C 81.478 35.294,80.011 34.421,74.000 34.230 C 72.356 34.178,70.237 33.736,68.239 33.028 C 65.739 32.143,64.694 31.964,63.239 32.170 C 62.228 32.313,60.505 32.541,59.411 32.675 C 57.987 32.850,57.211 33.186,56.682 33.859 C 55.811 34.966,54.467 35.094,54.156 34.100 C 54.036 33.715,53.683 32.926,53.373 32.346 C 52.932 31.521,52.906 31.016,53.253 30.019 C 53.670 28.824,53.608 28.664,52.249 27.419 C 51.452 26.689,50.800 25.823,50.800 25.495 C 50.800 24.670,49.837 23.949,48.298 23.623 C 46.848 23.315,46.585 21.343,47.813 19.986 C 48.136 19.629,48.400 18.982,48.400 18.549 C 48.400 17.499,49.152 16.800,50.280 16.800 C 51.365 16.800,51.511 17.794,50.577 18.826 C 49.566 19.943,50.750 22.400,52.300 22.400 C 54.565 22.400,54.923 21.173,53.350 18.797 C 51.190 15.532,53.086 14.574,58.162 16.366 C 62.058 17.741,63.464 17.480,64.932 15.108 C 66.554 12.487,69.962 11.713,73.898 13.072 C 77.345 14.263,81.327 14.262,82.198 13.071 C 82.733 12.339,84.603 12.158,85.000 12.800 C 85.136 13.020,86.542 13.208,88.124 13.217 C 89.706 13.227,91.810 13.413,92.800 13.630 C 96.653 14.477,97.830 14.508,99.199 13.801 C 100.590 13.081,102.417 12.952,104.822 13.403 C 105.848 13.595,106.382 13.504,106.739 13.074 C 107.113 12.623,107.834 12.524,109.716 12.664 C 113.211 12.924,113.665 13.049,115.395 14.222 C 116.600 15.040,117.219 15.210,118.271 15.013 C 120.841 14.531,124.416 15.197,124.895 16.248 C 125.479 17.531,126.431 17.741,128.292 16.997 C 130.250 16.213,135.147 17.048,137.871 18.630 C 139.765 19.729,140.724 19.836,141.777 19.066 C 142.670 18.413,141.440 17.063,138.351 15.306 C 135.189 13.508,135.028 12.655,137.915 12.990 C 140.103 13.244,140.350 13.191,141.045 12.318 C 141.757 11.424,142.077 11.365,146.676 11.284 C 149.358 11.237,151.986 11.033,152.516 10.832 C 156.899 9.166,160.800 9.986,160.800 12.574 C 160.800 14.109,162.219 13.903,164.751 12.000 C 166.518 10.672,167.197 10.399,168.740 10.394 C 169.763 10.391,171.399 10.110,172.376 9.770 C 174.583 9.002,175.807 9.283,177.600 10.973 C 181.595 14.736,186.054 15.391,189.473 12.717 C 190.006 12.300,190.393 12.296,198.240 12.632 C 203.791 12.870,203.914 12.857,205.996 11.802 C 207.884 10.845,208.396 10.757,210.756 10.985 C 212.210 11.125,214.378 11.049,215.574 10.816 C 217.550 10.431,217.914 10.479,219.566 11.345 L 221.385 12.297 223.723 11.072 C 226.464 9.635,234.991 9.154,238.150 10.258 C 239.003 10.556,240.374 10.800,241.196 10.800 C 242.109 10.800,243.107 11.127,243.757 11.637 C 244.342 12.098,245.941 12.712,247.311 13.003 C 248.680 13.294,250.079 13.642,250.419 13.778 C 250.797 13.928,251.785 13.442,252.955 12.530 C 254.779 11.110,255.060 11.024,258.736 10.772 C 260.861 10.626,263.358 10.223,264.284 9.877 C 265.514 9.417,268.096 9.188,273.844 9.030 C 278.175 8.912,281.812 8.721,281.926 8.607 C 282.209 8.324,282.888 8.348,286.600 8.771 M134.103 12.333 C 135.777 13.437,134.227 14.178,132.348 13.172 C 131.709 12.830,131.644 12.629,132.023 12.172 C 132.628 11.443,132.770 11.454,134.103 12.333 M129.927 13.900 C 129.768 15.282,125.825 15.851,125.331 14.563 C 124.950 13.572,126.251 12.800,128.303 12.800 C 129.976 12.800,130.048 12.848,129.927 13.900 M114.553 16.906 C 114.087 17.178,112.701 18.210,111.474 19.200 C 110.246 20.190,108.108 21.426,106.721 21.946 C 103.533 23.142,97.036 26.552,95.200 27.992 C 94.430 28.596,93.170 29.405,92.400 29.790 C 91.630 30.175,90.190 31.162,89.200 31.983 C 88.210 32.805,86.815 33.780,86.100 34.149 C 84.733 34.855,84.481 35.521,85.280 36.320 C 86.042 37.082,87.360 36.883,88.836 35.783 C 89.586 35.224,91.319 34.062,92.688 33.200 C 94.456 32.087,95.347 31.224,95.767 30.217 C 96.223 29.126,96.591 28.800,97.367 28.800 C 97.922 28.800,99.754 28.350,101.439 27.800 C 103.285 27.197,105.430 26.800,106.837 26.800 C 109.523 26.800,111.733 25.325,112.195 23.225 C 112.637 21.211,113.742 20.600,116.944 20.600 C 119.885 20.600,121.600 20.011,121.600 19.000 C 121.600 18.116,120.265 17.607,118.638 17.871 C 117.453 18.064,117.006 17.942,116.366 17.255 C 115.432 16.254,115.612 16.288,114.553 16.906 M48.426 26.814 C 51.130 28.261,47.995 34.392,44.549 34.399 C 43.488 34.400,42.973 35.008,42.513 36.800 C 42.023 38.711,38.531 39.930,36.800 38.794 C 35.928 38.222,37.038 37.530,38.521 37.722 L 39.641 37.867 39.374 35.731 C 39.080 33.378,39.608 32.222,40.802 32.601 C 41.663 32.874,46.000 29.325,46.000 28.346 C 46.000 26.521,46.862 25.977,48.426 26.814 M42.000 27.376 C 42.000 27.977,41.282 28.615,40.964 28.297 C 40.685 28.018,41.237 26.800,41.643 26.800 C 41.839 26.800,42.000 27.059,42.000 27.376 M39.127 30.536 C 39.266 31.235,37.612 31.844,36.613 31.460 C 35.784 31.142,35.402 29.320,36.011 28.587 C 36.588 27.892,38.887 29.330,39.127 30.536 M41.200 47.720 C 41.200 48.006,40.993 48.447,40.740 48.700 C 40.487 48.953,39.890 50.654,39.412 52.480 C 38.632 55.461,38.409 55.868,37.229 56.470 C 36.506 56.839,35.529 57.494,35.057 57.925 C 33.656 59.208,30.932 60.400,29.403 60.400 C 28.617 60.400,27.328 60.670,26.538 61.000 C 24.700 61.768,24.559 61.759,23.600 60.800 C 22.177 59.377,22.482 56.561,24.167 55.566 C 24.919 55.123,25.820 54.323,26.170 53.790 C 26.730 52.935,26.925 52.874,27.814 53.279 C 28.670 53.669,28.988 53.607,29.912 52.866 C 30.510 52.386,31.381 51.828,31.847 51.626 C 32.314 51.425,33.081 50.769,33.553 50.168 C 34.218 49.323,34.929 48.996,36.706 48.719 C 37.968 48.522,39.360 48.109,39.800 47.801 C 40.819 47.089,41.200 47.067,41.200 47.720 " stroke="none" fill="#924414" fill-rule="evenodd"></path><path id="path1" d="M262.000 20.799 C 260.130 21.635,257.970 22.608,257.200 22.962 C 256.430 23.316,255.260 23.582,254.600 23.554 C 253.940 23.527,252.595 23.808,251.612 24.180 C 250.361 24.654,248.664 24.850,245.960 24.834 C 241.707 24.809,241.516 24.770,238.526 23.330 C 235.811 22.022,233.593 21.730,232.355 22.516 C 230.271 23.840,228.177 23.793,227.604 22.409 C 226.461 19.650,222.019 18.925,220.322 21.220 C 219.508 22.321,219.271 22.415,217.887 22.181 C 217.044 22.038,215.869 22.099,215.277 22.316 C 214.685 22.533,213.075 23.029,211.700 23.418 C 209.407 24.068,208.221 25.200,209.833 25.200 C 210.182 25.200,210.384 25.425,210.283 25.700 C 210.183 25.975,209.853 26.131,209.550 26.047 C 209.248 25.962,208.370 25.745,207.600 25.565 C 206.830 25.384,205.689 25.114,205.064 24.964 C 204.184 24.754,203.276 25.037,201.040 26.219 L 198.154 27.744 196.325 26.486 C 195.319 25.794,194.393 24.959,194.267 24.631 C 194.141 24.302,193.023 23.738,191.782 23.378 C 190.542 23.017,189.167 22.308,188.727 21.803 C 188.144 21.131,187.318 20.814,185.664 20.625 C 184.419 20.484,182.950 20.283,182.400 20.179 C 181.606 20.029,181.260 20.238,180.719 21.195 C 180.138 22.222,179.800 22.400,178.432 22.400 C 177.134 22.400,176.562 22.665,175.442 23.785 C 174.132 25.095,173.949 25.156,172.029 24.929 C 170.637 24.764,170.000 24.832,170.000 25.144 C 170.000 26.001,168.492 25.620,168.241 24.700 C 167.813 23.137,165.304 21.583,163.226 21.596 C 162.222 21.602,160.860 21.579,160.200 21.546 C 159.206 21.496,157.988 21.613,155.932 21.955 C 155.784 21.980,155.538 22.585,155.386 23.300 C 154.846 25.825,152.356 26.850,150.652 25.249 C 149.574 24.236,148.399 24.173,146.727 25.038 C 145.923 25.454,145.061 25.584,144.247 25.413 C 143.561 25.269,142.460 25.167,141.800 25.187 C 141.140 25.207,139.822 24.813,138.870 24.312 L 137.140 23.400 136.361 24.356 C 135.932 24.882,135.180 25.360,134.690 25.418 C 134.201 25.476,133.293 25.791,132.674 26.118 C 131.583 26.693,130.190 26.631,129.793 25.989 C 129.199 25.027,128.000 26.162,128.000 27.687 C 128.000 29.783,123.971 33.693,121.617 33.881 C 121.058 33.926,120.204 34.421,119.719 34.981 C 119.056 35.748,118.453 36.000,117.279 36.000 C 115.020 36.000,113.200 36.748,112.781 37.849 C 112.389 38.881,111.200 39.162,111.200 38.223 C 111.200 36.171,105.565 36.011,103.400 38.001 C 101.749 39.519,100.696 40.000,99.026 40.000 C 98.075 40.000,97.600 40.185,97.600 40.557 C 97.600 40.863,97.151 41.226,96.602 41.364 C 95.962 41.524,95.397 42.112,95.023 43.007 C 94.703 43.773,94.179 44.400,93.860 44.400 C 93.540 44.400,92.929 44.993,92.501 45.719 C 92.073 46.444,91.149 47.479,90.447 48.019 C 87.257 50.471,86.243 51.477,85.735 52.694 C 85.038 54.362,84.425 54.337,83.296 52.595 C 82.039 50.655,81.188 50.916,79.759 53.679 C 79.208 54.744,78.992 54.852,77.869 54.622 C 74.605 53.954,74.140 53.965,72.300 54.755 C 70.784 55.407,70.400 55.767,70.400 56.537 C 70.400 57.720,69.730 58.314,68.008 58.658 C 67.113 58.837,66.487 59.302,66.047 60.111 C 65.691 60.765,64.995 61.799,64.500 62.408 C 63.447 63.704,63.376 64.691,64.197 66.655 C 65.160 68.959,63.417 69.783,61.815 67.782 C 60.100 65.639,56.340 66.156,56.195 68.554 C 55.995 71.844,50.349 74.187,48.447 71.769 C 47.272 70.275,44.446 72.013,44.413 74.251 C 44.406 74.719,44.141 75.723,43.823 76.482 C 43.506 77.241,43.157 79.108,43.047 80.631 C 42.937 82.154,42.837 83.432,42.824 83.472 C 42.811 83.512,42.417 83.602,41.949 83.672 C 41.379 83.758,40.885 84.342,40.449 85.446 C 39.698 87.350,38.906 88.400,38.221 88.400 C 37.313 88.400,36.111 90.201,35.684 92.200 C 33.988 100.138,32.168 103.094,28.924 103.177 C 27.755 103.208,27.494 103.731,28.045 104.940 C 28.505 105.950,28.228 108.961,27.230 113.800 C 26.142 119.072,26.165 119.418,27.698 120.764 C 29.816 122.624,29.942 124.097,28.199 126.627 C 26.450 129.167,26.701 131.285,29.211 135.168 C 30.888 137.763,33.026 142.707,32.638 143.095 C 32.507 143.226,31.764 143.139,30.987 142.901 C 29.320 142.389,28.660 143.070,28.175 145.800 C 28.019 146.680,27.453 148.628,26.917 150.128 C 26.069 152.501,25.984 153.205,26.264 155.528 C 26.695 159.115,26.677 159.187,24.609 162.208 C 22.401 165.433,22.078 166.547,22.930 167.989 C 23.706 169.302,23.313 172.770,22.256 173.938 C 21.778 174.466,21.608 175.339,21.647 177.067 C 21.677 178.385,21.499 179.842,21.251 180.305 C 20.674 181.382,20.674 183.286,21.250 184.550 C 21.570 185.253,21.580 185.883,21.282 186.736 C 20.639 188.582,22.628 190.261,26.600 191.225 C 28.968 191.800,30.400 192.964,30.400 194.316 C 30.400 194.921,30.933 195.780,31.800 196.574 C 32.893 197.575,33.200 198.166,33.200 199.266 C 33.200 200.818,33.690 201.382,36.260 202.792 C 37.818 203.646,37.976 203.662,38.849 203.051 C 40.178 202.120,41.161 202.244,41.600 203.400 C 42.096 204.706,42.958 204.668,43.913 203.300 C 45.572 200.924,45.378 197.920,43.503 196.950 C 42.361 196.359,42.318 196.244,42.560 194.420 C 42.752 192.968,42.667 192.388,42.207 192.005 C 41.474 191.398,41.403 190.019,42.100 189.953 C 43.157 189.852,43.827 190.104,44.545 190.870 C 45.018 191.373,45.603 191.588,46.145 191.456 C 48.342 190.921,50.640 195.010,50.226 198.716 C 50.001 200.725,50.056 200.895,51.326 202.116 C 52.061 202.822,52.954 203.874,53.310 204.453 C 53.894 205.404,54.135 205.486,55.779 205.301 C 57.671 205.088,58.318 205.922,57.160 207.080 C 56.840 207.400,56.926 207.726,57.476 208.276 C 61.415 212.215,59.970 218.782,54.678 220.993 C 53.009 221.690,52.260 222.791,51.147 226.180 C 50.344 228.629,48.248 230.423,48.905 228.100 C 49.013 227.715,49.169 227.130,49.251 226.800 C 49.347 226.413,48.790 225.917,47.681 225.402 C 45.928 224.588,45.582 223.161,46.932 222.314 C 47.864 221.729,46.316 219.800,44.914 219.800 C 44.158 219.800,43.275 219.432,42.669 218.864 C 41.193 217.479,40.401 217.871,39.434 220.463 C 37.376 225.982,35.575 225.611,35.967 219.750 C 36.037 218.711,35.879 218.456,35.033 218.244 C 34.467 218.102,33.740 217.458,33.397 216.794 C 32.627 215.305,32.429 215.308,30.975 216.828 C 29.834 218.021,29.800 218.172,29.800 222.094 C 29.800 224.969,29.656 226.180,29.300 226.299 C 28.633 226.523,28.687 227.618,29.413 228.577 C 29.787 229.071,29.982 230.174,29.949 231.608 C 29.921 232.848,30.124 234.284,30.399 234.799 C 31.449 236.760,30.330 241.654,28.441 243.363 C 27.978 243.782,27.600 244.374,27.600 244.679 C 27.600 244.985,26.592 246.235,25.360 247.457 C 23.405 249.396,23.144 249.837,23.304 250.926 C 23.404 251.612,23.233 252.781,22.922 253.524 C 22.388 254.803,22.427 255.007,23.643 257.337 C 25.410 260.722,25.468 266.845,23.767 270.559 C 23.014 272.204,22.783 273.216,22.960 274.098 C 23.128 274.940,22.945 275.875,22.384 277.034 C 21.591 278.672,21.584 278.824,22.208 281.231 C 22.843 283.683,22.839 283.751,21.972 284.924 C 21.486 285.581,21.002 286.883,20.897 287.817 C 20.755 289.075,20.462 289.646,19.765 290.019 C 18.504 290.694,18.776 294.598,20.245 296.891 C 21.409 298.709,21.439 299.938,20.400 303.104 C 19.747 305.093,19.670 305.895,19.980 307.470 C 20.189 308.532,20.563 310.444,20.813 311.719 C 21.139 313.388,21.144 314.185,20.832 314.561 C 18.709 317.120,18.059 319.741,19.099 321.553 C 19.766 322.715,19.765 322.832,19.074 324.114 C 18.521 325.141,18.319 326.580,18.215 330.229 C 18.141 332.853,17.957 335.478,17.806 336.062 C 17.624 336.770,17.756 337.466,18.201 338.145 C 18.576 338.718,18.734 339.384,18.560 339.665 C 18.390 339.940,18.239 342.116,18.225 344.500 C 18.197 349.432,17.805 348.975,22.400 349.376 C 26.389 349.724,29.600 352.942,29.600 356.591 C 29.600 357.733,29.887 358.656,30.472 359.400 C 31.774 361.056,30.876 362.521,28.387 362.800 L 26.600 363.000 26.362 366.200 C 25.839 373.222,22.886 374.501,19.456 369.191 C 17.716 366.496,16.470 365.932,17.045 368.100 C 17.496 369.799,17.313 376.238,16.767 377.898 C 16.403 379.003,16.492 379.529,17.370 381.446 C 18.564 384.055,18.613 384.983,17.800 389.600 C 17.471 391.470,17.201 393.592,17.201 394.316 C 17.200 395.040,16.822 396.144,16.360 396.768 C 14.737 398.964,16.350 400.406,18.159 398.375 C 19.522 396.846,20.444 396.989,20.907 398.801 C 21.381 400.653,22.475 401.767,24.629 402.590 C 25.603 402.962,26.400 403.431,26.400 403.633 C 26.400 403.835,26.745 404.000,27.167 404.000 C 30.012 404.000,31.881 408.104,29.661 409.475 C 28.354 410.282,27.282 409.617,25.601 406.955 C 23.915 404.285,23.026 403.831,21.829 405.029 C 21.033 405.824,21.018 407.351,21.800 408.000 C 22.565 408.635,22.555 408.987,21.749 409.794 C 21.148 410.395,21.152 410.545,21.808 411.762 C 22.700 413.419,22.405 414.709,20.767 416.310 L 19.523 417.527 20.593 419.351 C 21.181 420.355,21.548 421.360,21.409 421.585 C 20.637 422.834,20.417 426.825,20.997 429.051 C 21.772 432.029,21.760 435.554,20.971 436.598 C 19.720 438.254,19.378 436.198,20.223 432.100 C 20.582 430.356,19.872 430.400,18.148 432.228 C 15.944 434.565,16.081 436.517,18.626 439.063 C 19.146 439.582,19.762 440.771,19.994 441.704 C 20.227 442.637,20.591 443.670,20.803 444.000 C 21.015 444.330,21.452 445.185,21.774 445.900 C 22.243 446.942,22.594 447.200,23.544 447.200 C 24.360 447.200,25.032 447.561,25.704 448.359 C 26.241 448.997,27.022 449.583,27.440 449.663 C 28.560 449.876,28.735 453.345,27.697 454.768 C 27.284 455.336,26.709 456.654,26.421 457.699 C 26.123 458.776,25.313 460.216,24.548 461.027 C 23.702 461.924,23.202 462.856,23.205 463.528 C 23.208 464.118,22.905 465.904,22.533 467.497 L 21.855 470.394 23.068 471.897 C 24.208 473.309,26.000 474.140,26.000 473.256 C 26.000 472.370,27.328 471.600,28.855 471.600 C 31.581 471.600,34.400 468.288,34.400 465.086 C 34.400 462.897,35.858 462.206,38.211 463.278 C 39.023 463.648,39.431 463.648,40.024 463.278 C 41.254 462.510,42.666 462.718,44.938 464.000 C 46.441 464.848,47.539 465.181,48.683 465.136 C 50.792 465.053,53.582 467.187,53.593 468.892 C 53.602 470.309,55.202 470.807,56.769 469.882 C 58.236 469.016,59.700 470.364,61.380 474.126 C 62.679 477.037,65.200 478.288,65.200 476.022 C 65.200 474.305,67.539 473.642,69.041 474.934 C 70.095 475.841,70.125 475.951,69.550 476.848 C 67.920 479.392,68.913 481.436,71.440 480.738 C 72.584 480.422,73.013 480.469,73.568 480.971 C 74.421 481.743,74.976 481.752,77.701 481.042 C 82.750 479.728,90.241 481.254,92.493 484.055 C 95.003 487.180,98.648 486.187,100.777 481.800 C 102.053 479.170,103.396 478.000,105.138 478.000 C 105.573 478.000,106.350 477.505,106.864 476.900 C 108.358 475.144,110.957 474.152,112.553 474.728 C 114.291 475.357,115.400 475.323,115.980 474.624 C 116.474 474.029,117.600 474.195,117.600 474.863 C 117.600 475.327,114.989 478.056,114.763 477.829 C 114.257 477.320,114.985 481.920,115.503 482.502 C 116.039 483.104,116.055 483.423,115.614 484.759 C 115.011 486.584,115.192 487.015,116.692 487.327 C 117.369 487.468,118.065 488.033,118.481 488.779 C 119.227 490.116,120.116 490.299,122.199 489.546 C 123.195 489.186,123.986 489.226,126.017 489.742 L 128.578 490.392 130.189 488.843 C 132.490 486.630,135.600 485.456,135.600 486.800 C 135.600 487.020,135.870 487.200,136.200 487.200 C 136.530 487.200,136.800 487.363,136.800 487.563 C 136.800 487.762,137.175 487.827,137.634 487.707 C 138.268 487.541,138.340 487.408,137.934 487.151 C 137.592 486.934,137.567 486.810,137.863 486.806 C 138.136 486.803,138.235 486.454,138.104 485.955 C 137.704 484.426,142.805 486.243,146.200 488.839 C 150.582 492.190,154.179 494.437,155.709 494.780 C 160.696 495.897,164.659 499.482,162.440 500.868 C 160.763 501.915,161.955 502.253,167.015 502.165 C 169.757 502.117,172.101 502.240,172.224 502.439 C 172.656 503.138,174.049 502.788,175.023 501.737 C 175.933 500.755,176.121 500.708,177.504 501.115 C 180.937 502.125,184.490 502.800,186.374 502.800 C 189.653 502.800,197.051 499.706,197.853 498.000 C 198.112 497.450,198.561 496.486,198.852 495.858 C 199.406 494.661,200.509 494.571,204.104 495.431 C 205.059 495.659,205.470 495.424,207.149 493.691 C 208.395 492.405,209.576 491.584,210.445 491.399 C 213.032 490.849,213.687 489.746,212.400 488.109 C 211.067 486.415,211.334 485.302,213.195 484.801 C 215.417 484.203,216.150 482.790,215.316 480.708 C 214.181 477.870,216.592 470.554,219.537 467.900 C 221.360 466.258,222.168 466.115,224.829 466.967 C 225.803 467.278,227.092 467.641,227.693 467.772 C 228.931 468.043,229.997 469.751,230.006 471.480 C 230.017 473.431,230.809 473.780,236.200 474.207 C 237.080 474.277,238.993 474.529,240.451 474.767 C 241.909 475.005,243.654 475.089,244.330 474.954 C 245.205 474.779,245.950 474.951,246.926 475.554 C 248.809 476.718,250.978 476.658,252.473 475.400 C 253.673 474.391,254.662 474.232,258.742 474.396 C 260.333 474.460,260.630 474.307,262.194 472.628 C 265.146 469.458,268.912 469.165,272.131 471.855 C 273.519 473.015,275.023 473.078,275.600 472.000 C 276.119 471.031,276.479 471.010,278.251 471.851 C 279.160 472.282,280.176 472.428,281.260 472.283 C 282.638 472.098,283.038 472.216,283.794 473.032 C 285.162 474.508,287.342 474.388,288.000 472.800 C 288.273 472.140,288.543 471.600,288.599 471.600 C 288.771 471.600,294.961 474.384,295.629 474.762 C 296.039 474.994,297.016 474.850,298.429 474.351 C 300.100 473.760,301.613 473.592,305.000 473.620 C 307.494 473.641,310.006 473.448,310.800 473.174 C 311.570 472.909,313.179 472.581,314.376 472.446 C 316.417 472.215,316.573 472.120,316.885 470.909 C 317.327 469.197,318.512 468.553,319.696 469.382 C 321.679 470.771,323.014 469.198,321.542 467.207 C 320.636 465.982,320.721 465.517,321.882 465.347 C 322.244 465.294,322.681 464.998,322.854 464.689 C 323.880 462.856,324.747 462.198,325.475 462.703 C 326.912 463.698,327.302 463.725,327.951 462.870 C 328.308 462.400,329.230 461.898,330.000 461.754 C 330.770 461.610,331.762 461.165,332.205 460.765 C 332.648 460.365,333.653 459.770,334.437 459.442 C 337.355 458.223,337.878 454.783,335.205 454.400 C 333.194 454.112,333.360 451.200,335.387 451.200 C 335.957 451.200,337.600 449.035,337.600 448.283 C 337.600 447.425,337.161 447.192,336.356 447.623 C 335.798 447.922,335.275 447.797,334.214 447.109 C 332.094 445.737,332.517 445.274,336.200 444.932 C 338.927 444.679,342.352 443.369,343.242 442.238 C 343.914 441.383,344.203 441.321,346.699 441.500 C 349.825 441.724,351.000 441.053,350.076 439.573 C 349.004 437.857,349.962 436.800,352.590 436.800 C 355.718 436.800,356.928 434.950,355.600 432.200 C 354.604 430.139,354.614 429.650,355.671 428.524 C 356.362 427.789,356.524 427.181,356.452 425.598 C 356.382 424.082,356.500 423.600,356.937 423.600 C 357.485 423.600,358.000 422.796,358.000 421.942 C 358.000 421.726,357.595 421.606,357.100 421.675 C 356.324 421.783,356.212 421.635,356.287 420.600 C 356.334 419.940,356.426 418.181,356.492 416.690 C 356.598 414.261,356.720 413.908,357.676 413.282 C 359.543 412.057,360.493 410.533,360.205 409.224 C 359.994 408.263,360.126 407.936,360.940 407.402 C 362.178 406.591,362.514 405.761,361.997 404.794 C 361.720 404.277,361.744 403.721,362.075 402.996 C 362.707 401.608,361.547 399.299,360.032 398.929 C 358.006 398.434,357.910 397.321,359.738 395.519 C 360.474 394.794,361.184 393.766,361.317 393.235 C 361.781 391.382,360.124 389.934,359.275 391.451 C 359.042 391.868,358.816 391.949,358.646 391.675 C 358.501 391.440,358.709 390.922,359.109 390.524 C 359.509 390.126,360.049 389.305,360.310 388.700 C 360.570 388.095,361.047 387.600,361.370 387.600 C 361.692 387.600,362.191 388.095,362.478 388.700 C 363.660 391.192,368.408 392.619,369.171 390.711 C 371.016 386.097,370.972 384.500,368.999 384.500 C 366.778 384.500,364.932 381.952,366.700 381.328 C 368.195 380.800,369.258 379.332,370.062 376.687 C 370.684 374.638,371.139 373.828,371.848 373.505 C 372.502 373.207,372.800 372.740,372.800 372.011 C 372.800 371.428,373.160 370.205,373.600 369.294 C 374.571 367.284,374.597 366.420,373.743 364.487 C 373.233 363.334,373.057 361.403,372.959 355.881 L 372.832 348.761 373.973 346.481 C 375.367 343.696,376.350 340.278,376.297 338.400 C 376.275 337.630,376.385 336.185,376.540 335.189 C 376.806 333.482,376.742 333.300,375.411 332.011 C 373.587 330.243,373.623 329.265,375.608 326.636 C 377.339 324.343,378.150 321.877,378.608 317.511 C 378.764 316.026,379.139 314.617,379.445 314.362 C 380.545 313.450,379.823 309.867,377.552 304.959 C 376.760 303.249,376.472 302.186,376.715 301.875 C 378.151 300.039,378.800 295.163,377.787 293.824 C 377.464 293.396,377.200 292.703,377.200 292.283 C 377.200 291.862,376.716 290.657,376.125 289.605 L 375.049 287.692 376.085 285.346 C 376.791 283.746,377.055 282.585,376.914 281.696 C 376.801 280.979,376.891 280.169,377.114 279.896 C 378.094 278.697,377.714 274.991,376.319 272.126 C 376.084 271.646,375.991 270.876,376.112 270.417 C 376.232 269.957,376.175 269.000,375.986 268.290 C 375.261 265.570,374.867 257.861,375.388 256.590 C 375.707 255.811,375.760 255.044,375.536 254.438 C 374.925 252.787,376.244 250.526,378.271 249.752 C 379.694 249.208,380.061 248.844,380.394 247.647 C 381.016 245.405,380.819 244.267,379.154 240.489 C 378.139 238.187,378.204 237.094,379.443 235.622 C 380.315 234.586,380.442 234.139,380.221 232.891 C 379.757 230.274,379.862 229.473,381.141 225.922 C 382.813 221.281,382.628 217.481,380.593 214.619 C 379.322 212.831,379.304 212.742,379.499 209.300 C 379.650 206.625,379.544 205.435,379.049 204.251 C 378.231 202.299,378.235 201.403,379.072 198.813 C 379.813 196.517,379.138 193.207,377.559 191.400 C 377.174 190.960,376.409 189.698,375.857 188.596 C 375.305 187.493,374.392 186.189,373.827 185.698 C 372.390 184.449,372.325 181.361,373.725 180.829 C 376.209 179.884,377.717 176.992,376.363 175.767 C 375.730 175.193,375.577 174.696,375.735 173.721 C 376.036 171.865,375.339 169.767,374.096 168.790 C 373.207 168.091,373.031 167.651,373.084 166.271 C 373.230 162.456,373.472 160.599,373.825 160.579 C 374.031 160.568,375.251 160.418,376.537 160.246 C 378.127 160.033,379.249 160.089,380.049 160.420 C 381.870 161.174,381.841 160.629,379.943 158.417 C 378.448 156.676,378.047 156.420,377.126 156.619 C 375.059 157.067,373.313 153.976,375.300 153.387 C 376.954 152.896,379.214 151.091,379.849 149.753 C 380.195 149.025,380.820 148.321,381.239 148.188 C 383.168 147.576,383.215 144.547,381.299 144.326 C 379.732 144.146,379.752 142.651,381.323 142.471 C 383.610 142.209,384.633 137.413,383.400 132.731 C 383.159 131.815,383.291 131.573,384.326 131.038 C 385.867 130.242,386.261 128.646,385.362 126.844 C 384.895 125.908,384.765 124.956,384.922 123.626 C 385.095 122.165,384.971 121.472,384.376 120.569 C 383.952 119.926,383.604 118.888,383.603 118.262 C 383.598 116.404,382.362 112.684,381.346 111.469 C 380.190 110.087,380.145 109.360,381.200 109.084 C 381.669 108.961,382.000 108.538,382.000 108.061 C 382.000 107.008,381.408 106.660,380.470 107.162 C 378.165 108.396,374.960 101.849,377.000 100.075 C 378.330 98.919,378.269 98.509,376.500 96.697 C 375.144 95.309,374.995 94.943,374.946 92.881 C 374.916 91.626,374.871 89.827,374.846 88.882 C 374.810 87.552,374.551 86.937,373.700 86.159 C 373.095 85.607,371.929 84.504,371.110 83.709 C 369.326 81.978,367.212 81.072,364.891 81.043 C 362.996 81.019,362.052 79.296,362.590 76.845 C 362.760 76.073,362.592 75.482,362.015 74.817 C 361.567 74.300,361.200 73.706,361.200 73.497 C 361.200 73.287,360.750 72.581,360.200 71.927 C 359.102 70.622,359.009 70.063,359.586 68.228 C 359.798 67.553,360.077 66.486,360.204 65.858 C 360.341 65.185,360.758 64.632,361.218 64.511 C 362.606 64.148,361.837 61.044,360.239 60.563 C 359.053 60.206,357.294 58.480,356.167 56.569 C 355.633 55.664,354.313 54.360,353.200 53.639 C 352.098 52.925,351.002 51.977,350.764 51.532 C 350.421 50.891,350.069 50.772,349.066 50.955 C 347.795 51.187,347.498 51.055,343.487 48.475 C 342.697 47.966,341.679 46.921,341.225 46.152 L 340.400 44.755 339.191 45.469 C 337.180 46.657,335.407 44.560,336.966 42.838 C 338.582 41.052,333.499 35.175,331.040 35.987 C 329.953 36.346,329.600 36.683,329.600 37.364 C 329.600 38.720,329.209 38.861,327.945 37.961 C 326.535 36.957,326.483 36.400,327.800 36.400 C 328.533 36.400,328.800 36.187,328.800 35.600 C 328.800 34.792,327.470 34.440,327.041 35.134 C 326.927 35.318,325.842 35.386,324.630 35.286 C 322.996 35.150,321.756 35.340,319.834 36.018 C 316.926 37.045,316.270 36.848,315.865 34.827 C 315.630 33.650,313.788 31.650,312.116 30.755 C 311.352 30.346,310.797 30.381,308.987 30.951 C 306.400 31.767,304.400 30.907,304.400 28.980 C 304.400 27.723,302.864 27.310,300.518 27.937 C 299.567 28.192,298.422 28.400,297.973 28.400 C 297.432 28.400,297.022 28.793,296.751 29.568 C 295.640 32.756,292.788 32.502,291.072 29.061 C 290.452 27.817,289.690 26.800,289.378 26.800 C 288.287 26.800,285.200 27.769,285.200 28.112 C 285.200 28.302,284.917 28.174,284.571 27.829 C 283.768 27.025,282.612 27.030,281.237 27.842 C 280.241 28.430,279.996 28.430,278.262 27.842 C 275.416 26.875,274.931 26.976,274.626 28.600 C 274.292 30.381,274.021 30.358,272.460 28.415 C 271.363 27.049,271.220 26.616,271.431 25.295 C 271.713 23.535,271.332 23.060,269.200 22.512 C 268.143 22.241,267.769 21.914,267.672 21.176 C 267.370 18.879,266.432 18.817,262.000 20.799 M81.455 49.800 C 81.582 50.130,81.931 50.400,82.230 50.400 C 82.550 50.400,82.680 50.152,82.545 49.800 C 82.418 49.470,82.069 49.200,81.770 49.200 C 81.450 49.200,81.320 49.448,81.455 49.800 M60.400 74.525 C 60.400 75.018,60.148 75.782,59.839 76.223 C 59.531 76.663,59.076 77.773,58.830 78.690 C 57.996 81.785,54.125 83.225,52.960 80.874 C 52.707 80.365,51.999 79.425,51.386 78.785 C 50.540 77.903,50.262 77.208,50.235 75.911 L 50.200 74.200 52.400 73.912 C 53.610 73.754,55.590 73.475,56.800 73.293 C 59.354 72.908,60.400 73.266,60.400 74.525 M368.400 76.200 C 368.400 76.530,368.580 76.800,368.800 76.800 C 369.020 76.800,369.200 76.530,369.200 76.200 C 369.200 75.870,369.020 75.600,368.800 75.600 C 368.580 75.600,368.400 75.870,368.400 76.200 M54.253 88.033 C 54.823 89.965,54.162 90.518,52.437 89.553 C 51.095 88.803,50.919 87.481,52.015 86.385 C 53.065 85.335,53.565 85.703,54.253 88.033 M52.708 95.675 C 52.461 96.417,51.600 96.540,51.600 95.833 C 51.600 95.485,51.885 95.200,52.233 95.200 C 52.582 95.200,52.795 95.414,52.708 95.675 M42.300 187.300 C 42.048 188.057,40.800 188.164,40.800 187.429 C 40.800 187.058,41.142 186.800,41.633 186.800 C 42.122 186.800,42.398 187.007,42.300 187.300 M37.310 207.650 C 36.977 207.983,37.030 208.476,37.513 209.550 C 38.453 211.636,39.663 212.941,40.068 212.304 C 41.361 210.267,38.880 206.080,37.310 207.650 M43.600 229.183 C 43.600 229.394,44.414 230.043,45.409 230.626 C 47.818 232.038,48.708 233.643,47.368 234.157 C 46.212 234.600,44.866 233.966,44.454 232.783 C 44.235 232.154,43.683 231.321,43.228 230.931 C 42.266 230.107,42.126 228.800,43.000 228.800 C 43.330 228.800,43.600 228.972,43.600 229.183 M55.400 233.400 C 55.400 234.591,53.839 234.472,53.668 233.268 C 53.558 232.492,53.692 232.358,54.468 232.468 C 55.089 232.556,55.400 232.867,55.400 233.400 M53.345 237.800 C 53.218 238.130,52.864 238.400,52.557 238.400 C 52.251 238.400,52.000 238.130,52.000 237.800 C 52.000 237.470,52.354 237.200,52.787 237.200 C 53.323 237.200,53.501 237.392,53.345 237.800 M48.512 335.800 C 48.402 336.304,46.400 336.581,46.400 336.093 C 46.400 335.475,46.935 335.162,47.784 335.283 C 48.233 335.347,48.561 335.580,48.512 335.800 M34.720 399.280 C 35.885 400.445,35.287 401.200,33.200 401.200 C 32.100 401.200,31.200 401.122,31.200 401.026 C 31.200 399.179,33.485 398.045,34.720 399.280 M29.028 412.571 C 29.359 413.890,28.393 415.800,27.395 415.800 C 26.192 415.800,26.095 413.777,27.239 412.558 C 28.373 411.351,28.723 411.353,29.028 412.571 M54.800 429.576 C 54.800 431.032,54.181 431.486,53.622 430.440 C 53.123 429.509,53.461 428.400,54.243 428.400 C 54.593 428.400,54.800 428.838,54.800 429.576 M48.503 430.100 C 48.869 430.379,49.212 431.307,49.280 432.200 C 49.432 434.221,51.310 434.411,53.204 432.596 L 54.328 431.519 54.791 432.383 C 55.814 434.295,54.249 437.782,52.099 438.379 C 50.205 438.905,50.164 438.904,49.529 438.287 C 49.238 438.005,48.415 437.362,47.700 436.860 C 46.389 435.938,45.935 434.335,46.828 433.783 C 47.090 433.621,47.155 432.918,46.996 431.974 C 46.621 429.755,47.164 429.080,48.503 430.100 M20.901 432.200 C 20.905 433.080,20.987 433.393,21.083 432.895 C 21.179 432.398,21.175 431.678,21.075 431.295 C 20.975 430.913,20.896 431.320,20.901 432.200 M57.622 443.254 C 58.087 444.375,58.061 444.566,57.374 445.069 C 56.148 445.965,55.021 445.583,54.866 444.220 C 54.614 442.005,56.789 441.242,57.622 443.254 M62.000 444.976 C 62.000 445.824,61.359 446.074,60.829 445.434 C 60.476 445.009,60.489 444.829,60.883 444.670 C 61.767 444.316,62.000 444.380,62.000 444.976 M332.375 451.030 C 332.009 451.472,331.756 451.515,331.437 451.190 C 331.120 450.868,331.218 450.585,331.795 450.159 C 332.729 449.470,333.148 450.099,332.375 451.030 M36.773 454.762 C 37.862 456.292,37.817 457.257,36.600 458.400 C 36.050 458.917,35.600 459.668,35.600 460.070 C 35.600 461.059,34.315 461.011,33.389 459.988 C 32.719 459.247,32.701 458.995,33.188 457.088 C 34.145 453.347,35.253 452.627,36.773 454.762 M339.600 458.576 C 339.600 458.893,339.761 459.252,339.958 459.374 C 340.370 459.629,340.866 458.600,340.506 458.239 C 340.077 457.810,339.600 457.987,339.600 458.576 M63.350 466.850 C 64.056 467.675,64.053 467.725,63.256 468.522 L 62.435 469.343 62.001 468.203 C 61.232 466.179,62.062 465.346,63.350 466.850 M211.043 467.000 C 210.909 467.330,210.691 467.870,210.557 468.200 C 210.424 468.530,210.521 468.800,210.774 468.800 C 211.261 468.800,211.355 468.865,213.700 470.828 C 216.035 472.782,215.102 473.919,212.455 472.343 C 209.915 470.831,208.745 466.400,210.886 466.400 C 211.106 466.400,211.176 466.670,211.043 467.000 M70.400 469.833 C 70.400 470.182,70.186 470.395,69.925 470.308 C 69.183 470.061,69.060 469.200,69.767 469.200 C 70.115 469.200,70.400 469.485,70.400 469.833 M140.068 495.459 C 140.146 495.862,140.538 496.254,140.941 496.332 C 141.469 496.433,141.633 496.269,141.532 495.741 C 141.454 495.338,141.062 494.946,140.659 494.868 C 140.131 494.767,139.967 494.931,140.068 495.459 M145.271 496.667 C 145.465 497.670,146.400 497.808,146.400 496.833 C 146.400 496.342,146.142 496.000,145.771 496.000 C 145.398 496.000,145.194 496.272,145.271 496.667 " stroke="none" fill="#f5ddb6" fill-rule="evenodd"></path><path id="path2" d="M238.100 0.276 C 238.485 0.376,239.115 0.376,239.500 0.276 C 239.885 0.175,239.570 0.093,238.800 0.093 C 238.030 0.093,237.715 0.175,238.100 0.276 M65.800 1.200 L 64.200 1.486 65.600 1.615 C 67.648 1.803,69.745 1.601,70.180 1.174 C 70.617 0.744,68.267 0.758,65.800 1.200 M133.000 1.167 C 131.025 1.359,130.731 1.477,131.336 1.836 C 132.141 2.313,135.600 1.742,135.600 1.133 C 135.600 0.950,135.555 0.830,135.500 0.867 C 135.445 0.904,134.320 1.039,133.000 1.167 M281.926 8.607 C 281.812 8.721,278.175 8.912,273.844 9.030 C 268.096 9.188,265.514 9.417,264.284 9.877 C 263.358 10.223,260.861 10.626,258.736 10.772 C 255.060 11.024,254.779 11.110,252.955 12.530 C 251.785 13.442,250.797 13.928,250.419 13.778 C 250.079 13.642,248.680 13.294,247.311 13.003 C 245.941 12.712,244.342 12.098,243.757 11.637 C 243.107 11.127,242.109 10.800,241.196 10.800 C 240.374 10.800,239.003 10.556,238.150 10.258 C 234.991 9.154,226.464 9.635,223.723 11.072 L 221.385 12.297 219.566 11.345 C 217.914 10.479,217.550 10.431,215.574 10.816 C 214.378 11.049,212.210 11.125,210.756 10.985 C 208.396 10.757,207.884 10.845,205.996 11.802 C 203.914 12.857,203.791 12.870,198.240 12.632 C 190.393 12.296,190.006 12.300,189.473 12.717 C 186.054 15.391,181.595 14.736,177.600 10.973 C 175.807 9.283,174.583 9.002,172.376 9.770 C 171.399 10.110,169.763 10.391,168.740 10.394 C 167.197 10.399,166.518 10.672,164.751 12.000 C 162.219 13.903,160.800 14.109,160.800 12.574 C 160.800 9.986,156.899 9.166,152.516 10.832 C 151.986 11.033,149.358 11.237,146.676 11.284 C 142.077 11.365,141.757 11.424,141.045 12.318 C 140.350 13.191,140.103 13.244,137.915 12.990 C 135.028 12.655,135.189 13.508,138.351 15.306 C 141.440 17.063,142.670 18.413,141.777 19.066 C 140.724 19.836,139.765 19.729,137.871 18.630 C 135.147 17.048,130.250 16.213,128.292 16.997 C 126.431 17.741,125.479 17.531,124.895 16.248 C 124.416 15.197,120.841 14.531,118.271 15.013 C 117.219 15.210,116.600 15.040,115.395 14.222 C 113.665 13.049,113.211 12.924,109.716 12.664 C 107.834 12.524,107.113 12.623,106.739 13.074 C 106.382 13.504,105.848 13.595,104.822 13.403 C 102.417 12.952,100.590 13.081,99.199 13.801 C 97.830 14.508,96.653 14.477,92.800 13.630 C 91.810 13.413,89.706 13.227,88.124 13.217 C 86.542 13.208,85.136 13.020,85.000 12.800 C 84.603 12.158,82.733 12.339,82.198 13.071 C 81.327 14.262,77.345 14.263,73.898 13.072 C 69.962 11.713,66.554 12.487,64.932 15.108 C 63.464 17.480,62.058 17.741,58.162 16.366 C 53.086 14.574,51.190 15.532,53.350 18.797 C 54.923 21.173,54.565 22.400,52.300 22.400 C 50.750 22.400,49.566 19.943,50.577 18.826 C 51.511 17.794,51.365 16.800,50.280 16.800 C 49.152 16.800,48.400 17.499,48.400 18.549 C 48.400 18.982,48.136 19.629,47.813 19.986 C 46.585 21.343,46.848 23.315,48.298 23.623 C 49.837 23.949,50.800 24.670,50.800 25.495 C 50.800 25.823,51.452 26.689,52.249 27.419 C 53.608 28.664,53.670 28.824,53.253 30.019 C 52.906 31.016,52.932 31.521,53.373 32.346 C 53.683 32.926,54.036 33.715,54.156 34.100 C 54.467 35.094,55.811 34.966,56.682 33.859 C 57.211 33.186,57.987 32.850,59.411 32.675 C 60.505 32.541,62.228 32.313,63.239 32.170 C 64.694 31.964,65.739 32.143,68.239 33.028 C 70.237 33.736,72.356 34.178,74.000 34.230 C 80.011 34.421,81.478 35.294,79.216 37.338 C 77.410 38.970,77.310 38.998,75.726 38.313 C 75.107 38.045,72.710 37.806,70.400 37.780 C 68.090 37.755,65.608 37.593,64.884 37.420 C 63.909 37.186,63.388 37.267,62.872 37.735 C 62.381 38.179,61.179 38.399,58.788 38.482 L 55.400 38.600 54.130 40.992 C 52.652 43.775,51.544 44.800,50.013 44.800 C 48.003 44.800,45.200 47.359,45.200 49.195 C 45.200 50.052,45.010 50.870,44.777 51.014 C 43.868 51.576,40.800 56.207,40.800 57.018 C 40.800 58.427,39.563 59.200,37.307 59.200 L 35.276 59.200 34.061 61.353 C 32.495 64.129,31.126 65.206,29.252 65.137 C 27.515 65.072,24.294 67.072,23.423 68.755 C 23.113 69.354,22.396 70.055,21.830 70.314 C 20.444 70.945,20.538 71.861,22.204 73.956 C 23.869 76.050,23.888 76.254,22.600 78.000 C 22.050 78.745,21.599 79.725,21.599 80.178 C 21.598 80.630,21.269 81.540,20.869 82.200 C 19.550 84.375,19.210 85.842,19.714 87.179 C 20.177 88.404,19.327 90.607,16.910 94.453 C 16.294 95.434,16.295 95.650,16.924 97.599 C 18.282 101.804,17.624 107.404,15.163 112.593 C 13.904 115.246,13.834 115.635,13.756 120.393 C 13.702 123.722,13.450 126.137,13.004 127.600 C 11.681 131.946,11.410 134.211,11.998 135.995 C 12.430 137.302,12.446 138.026,12.077 139.520 C 11.822 140.554,11.595 143.110,11.574 145.200 C 11.552 147.290,11.339 149.839,11.101 150.864 C 10.745 152.395,10.798 153.217,11.400 155.464 C 12.246 158.625,12.258 158.876,11.881 165.800 C 11.725 168.660,11.611 173.520,11.627 176.600 C 11.643 179.680,11.647 183.550,11.637 185.200 C 11.627 186.850,11.872 188.920,12.183 189.800 C 12.493 190.680,12.955 193.200,13.209 195.400 C 13.463 197.600,14.050 200.652,14.512 202.183 C 15.727 206.201,15.564 208.732,14.166 207.572 C 12.553 206.233,11.862 210.045,13.015 213.927 C 13.690 216.199,13.958 216.400,14.707 215.200 C 15.384 214.117,15.933 214.194,16.240 215.416 C 16.413 216.108,16.268 216.683,15.785 217.216 C 14.912 218.181,14.499 218.209,14.326 217.313 C 14.212 216.719,14.071 216.757,13.291 217.595 C 12.188 218.778,12.345 219.436,13.695 219.292 C 15.056 219.147,15.620 222.621,14.623 225.006 C 14.281 225.826,13.994 227.061,13.987 227.749 C 13.980 228.437,13.705 229.356,13.376 229.792 C 11.212 232.655,9.745 241.797,10.645 246.810 C 11.143 249.584,11.303 249.832,13.221 250.811 C 15.253 251.847,15.857 252.867,16.178 255.800 C 16.322 257.120,16.721 259.396,17.064 260.857 C 18.123 265.371,16.490 272.311,13.641 275.402 C 11.225 278.023,10.532 280.819,10.373 288.600 C 10.126 300.625,10.101 300.344,11.714 303.576 C 13.641 307.435,13.600 309.965,11.600 310.600 C 9.978 311.115,9.391 315.269,10.442 318.786 C 10.782 319.922,10.703 320.820,10.038 323.353 C 9.085 326.989,8.456 339.481,9.089 342.200 C 9.308 343.143,9.339 347.412,9.163 352.600 C 8.916 359.895,8.972 361.878,9.487 364.198 C 9.995 366.486,10.029 367.542,9.669 369.998 C 9.401 371.831,9.362 373.681,9.570 374.749 C 9.958 376.741,9.529 381.037,8.809 382.383 C 7.212 385.366,6.691 396.957,7.972 401.000 C 8.633 403.086,8.659 403.514,8.176 404.271 C 6.196 407.372,5.697 413.020,6.981 417.800 C 7.276 418.900,7.630 420.454,7.768 421.253 C 7.906 422.052,8.542 423.429,9.182 424.312 C 10.743 426.466,10.883 427.400,9.646 427.400 C 9.121 427.400,8.551 427.670,8.378 428.000 C 6.363 431.848,6.296 432.122,6.555 435.522 C 6.718 437.667,7.156 439.670,7.791 441.178 L 8.773 443.512 7.950 446.456 C 6.602 451.273,6.339 453.922,7.069 455.333 C 7.604 456.368,7.622 456.842,7.192 458.631 C 6.766 460.409,6.786 461.010,7.327 462.660 C 7.677 463.727,8.346 465.860,8.813 467.400 C 9.279 468.940,10.128 471.100,10.699 472.200 C 11.269 473.300,12.054 475.280,12.443 476.600 C 13.286 479.457,15.000 484.577,16.094 487.506 C 16.527 488.664,16.771 489.898,16.637 490.249 C 16.102 491.641,17.705 495.211,20.589 499.053 C 20.864 499.420,20.661 499.902,19.889 500.707 C 17.613 503.082,18.544 506.498,21.934 508.214 C 23.180 508.845,24.810 509.775,25.556 510.281 C 27.151 511.362,29.793 511.511,30.825 510.577 C 31.669 509.813,33.545 509.563,34.537 510.082 C 35.375 510.521,37.200 510.185,37.200 509.592 C 37.200 509.377,36.862 509.200,36.449 509.200 C 35.224 509.200,34.603 508.151,35.135 506.983 C 35.536 506.103,35.434 505.817,34.248 504.494 C 30.993 500.862,31.012 498.307,34.283 499.716 C 35.117 500.076,36.556 500.561,37.479 500.795 C 38.571 501.071,39.549 501.690,40.279 502.567 C 40.896 503.308,42.245 504.309,43.278 504.791 C 44.311 505.273,45.613 506.266,46.171 506.997 C 46.936 508.000,47.605 508.395,48.893 508.602 C 49.832 508.753,51.590 509.296,52.800 509.809 C 57.862 511.955,60.365 512.446,63.000 511.809 C 66.127 511.053,68.081 511.056,69.913 511.821 C 70.730 512.163,72.933 512.784,74.807 513.202 C 76.681 513.619,78.801 514.207,79.517 514.508 C 80.989 515.127,84.949 514.397,86.829 513.161 C 88.290 512.200,92.486 511.941,94.402 512.694 C 95.833 513.256,96.288 513.253,99.290 512.666 C 102.430 512.051,111.628 512.275,112.792 512.995 C 112.980 513.111,114.003 513.020,115.067 512.794 C 116.381 512.514,118.922 512.509,123.000 512.780 C 136.641 513.684,152.494 513.992,166.400 513.621 C 171.825 513.477,177.272 513.903,178.326 514.554 C 180.405 515.839,214.019 516.050,227.200 514.861 C 229.730 514.633,233.150 514.321,234.800 514.168 C 236.450 514.014,238.319 513.599,238.952 513.244 C 239.586 512.890,240.468 512.390,240.913 512.133 C 241.478 511.807,242.034 511.785,242.761 512.063 C 243.485 512.339,244.249 512.312,245.279 511.972 C 246.404 511.602,247.027 511.595,247.879 511.944 C 249.376 512.556,250.359 512.573,254.542 512.061 C 257.024 511.756,258.665 511.751,260.027 512.043 C 261.249 512.305,262.830 512.331,264.285 512.113 C 265.629 511.912,267.355 511.919,268.400 512.129 C 269.797 512.411,270.665 512.335,272.277 511.789 C 273.913 511.235,275.000 511.144,277.393 511.361 C 280.651 511.656,282.352 511.287,289.383 508.761 L 292.566 507.617 294.583 508.747 C 295.692 509.369,297.421 509.987,298.425 510.121 C 299.429 510.255,301.109 510.732,302.159 511.182 C 305.172 512.474,309.066 512.688,310.973 511.665 C 312.137 511.042,312.946 510.890,314.198 511.062 C 315.665 511.263,316.042 511.139,317.287 510.045 C 318.963 508.574,318.987 508.570,320.092 509.600 C 321.087 510.526,322.112 510.629,322.746 509.865 C 324.076 508.262,338.671 507.764,340.270 509.266 C 341.169 510.110,341.222 510.114,342.503 509.424 C 343.776 508.739,343.931 508.746,347.807 509.694 C 352.593 510.864,352.742 510.837,354.121 508.553 C 355.850 505.691,357.637 505.158,359.363 506.988 C 360.095 507.765,360.883 508.400,361.114 508.400 C 362.113 508.400,365.359 506.706,366.054 505.822 C 367.791 503.614,372.825 504.167,373.444 506.634 C 373.701 507.657,374.954 508.400,376.420 508.400 C 377.298 508.400,380.799 504.181,380.800 503.123 C 380.800 502.090,379.211 501.200,377.364 501.200 C 375.868 501.200,375.601 501.041,374.629 499.572 C 374.037 498.677,372.942 497.585,372.196 497.145 C 370.957 496.413,369.600 493.551,369.600 491.667 C 369.600 489.930,372.559 489.512,374.327 491.000 C 376.287 492.649,377.286 492.099,376.187 489.976 C 375.429 488.509,375.604 487.797,376.799 487.484 C 377.496 487.302,377.772 487.514,378.213 488.570 C 379.608 491.907,381.954 491.221,380.900 487.785 C 380.676 487.054,380.584 485.638,380.697 484.639 C 380.880 483.017,380.763 482.663,379.614 481.354 C 378.551 480.144,378.369 479.670,378.575 478.644 C 378.712 477.960,378.967 475.820,379.143 473.889 C 379.420 470.828,379.632 470.136,380.793 468.489 C 382.231 466.449,383.188 463.502,383.195 461.087 C 383.198 460.255,383.453 458.968,383.763 458.228 C 384.508 456.444,384.666 449.632,384.032 446.625 C 383.411 443.675,383.769 441.050,385.016 439.415 C 386.102 437.990,385.927 431.621,384.723 428.800 C 382.837 424.379,382.933 420.708,385.094 414.600 C 385.694 412.904,386.222 410.223,386.434 407.800 C 386.626 405.600,386.935 402.080,387.120 399.978 C 387.305 397.876,387.589 395.941,387.752 395.678 C 388.065 395.171,388.547 373.884,388.338 369.800 C 388.145 366.023,388.198 362.396,388.573 353.917 C 388.883 346.906,388.846 345.836,388.238 344.244 C 387.668 342.752,387.631 342.171,388.013 340.752 C 388.396 339.329,388.337 338.459,387.653 335.425 C 387.203 333.431,386.635 330.450,386.392 328.800 C 386.149 327.150,385.759 324.776,385.525 323.524 C 385.019 320.811,385.273 319.588,386.831 317.231 C 388.123 315.276,388.302 313.639,387.450 311.549 C 385.370 306.443,385.359 302.580,387.406 295.800 C 390.102 286.873,390.030 287.292,389.912 281.170 L 389.800 275.400 387.814 274.400 C 385.677 273.324,385.309 272.654,385.240 269.708 C 385.218 268.778,384.947 267.338,384.639 266.508 C 382.617 261.078,382.368 258.875,383.600 257.309 C 384.132 256.633,384.400 255.686,384.400 254.484 C 384.400 252.832,384.571 252.516,386.375 250.838 C 387.876 249.440,388.416 248.617,388.627 247.400 C 388.780 246.520,389.084 245.455,389.302 245.033 C 390.828 242.088,389.317 222.778,387.329 219.811 C 386.328 218.317,386.668 216.429,388.188 215.037 C 390.170 213.221,390.697 210.687,390.096 205.866 C 389.689 202.603,389.723 201.902,390.397 199.490 C 391.098 196.985,391.145 195.488,391.020 179.690 L 390.885 162.600 389.881 160.464 C 389.034 158.662,388.942 158.130,389.297 157.064 C 389.529 156.369,389.847 153.820,390.005 151.400 C 390.162 148.980,390.667 145.650,391.127 144.000 C 392.934 137.517,393.151 130.791,391.722 125.517 C 391.359 124.175,391.213 122.691,391.367 121.917 C 391.512 121.193,391.772 119.741,391.945 118.690 C 392.118 117.640,392.471 116.569,392.730 116.310 C 393.514 115.526,393.263 114.127,391.976 112.114 C 390.832 110.324,390.770 110.031,391.007 107.596 C 391.199 105.631,391.096 104.550,390.585 103.196 C 390.212 102.208,389.820 100.680,389.713 99.800 C 389.606 98.920,389.356 98.029,389.159 97.820 C 388.710 97.345,388.695 91.185,389.141 90.481 C 389.873 89.328,390.563 91.078,390.051 92.788 C 389.446 94.808,389.859 97.686,390.731 97.518 C 391.620 97.347,392.892 92.920,392.346 91.899 C 392.108 91.455,392.048 90.304,392.203 89.176 C 392.499 87.025,391.181 83.701,389.270 81.783 C 387.899 80.406,387.920 77.861,389.320 75.844 C 390.342 74.372,390.638 73.042,390.436 70.828 C 390.387 70.293,390.636 67.857,390.989 65.415 C 391.688 60.583,391.251 56.803,389.807 55.208 C 389.452 54.816,388.972 53.798,388.739 52.947 C 388.507 52.096,387.367 50.140,386.206 48.600 C 382.362 43.502,380.703 39.820,380.980 37.000 C 381.153 35.237,380.993 33.750,380.379 31.400 C 379.918 29.640,379.293 27.123,378.989 25.806 C 378.685 24.489,378.126 22.723,377.747 21.881 C 377.173 20.610,377.136 20.132,377.528 19.047 C 378.243 17.072,378.103 15.667,377.100 14.739 C 375.545 13.301,371.870 11.202,370.813 11.149 C 368.533 11.034,367.146 11.212,365.735 11.801 C 364.664 12.249,363.613 12.351,361.976 12.165 C 360.476 11.996,359.610 12.060,359.428 12.354 C 358.964 13.106,358.092 12.857,356.596 11.543 C 354.837 9.998,352.580 9.509,350.756 10.275 C 349.560 10.778,349.336 10.755,348.354 10.029 C 347.339 9.279,346.980 9.253,342.735 9.613 C 340.241 9.825,334.420 9.974,329.800 9.944 C 325.180 9.914,319.060 9.901,316.200 9.915 C 297.325 10.008,296.380 9.976,294.860 9.197 C 293.686 8.596,293.048 8.517,291.600 8.793 C 290.574 8.988,288.424 8.979,286.600 8.771 C 282.888 8.348,282.209 8.324,281.926 8.607 M132.023 12.172 C 131.644 12.629,131.709 12.830,132.348 13.172 C 134.227 14.178,135.777 13.437,134.103 12.333 C 132.770 11.454,132.628 11.443,132.023 12.172 M125.811 13.342 C 124.395 14.378,125.326 15.257,127.696 15.121 C 129.659 15.008,129.808 14.926,129.927 13.900 C 130.072 12.632,127.297 12.256,125.811 13.342 M116.366 17.255 C 117.006 17.942,117.453 18.064,118.638 17.871 C 120.265 17.607,121.600 18.116,121.600 19.000 C 121.600 20.011,119.885 20.600,116.944 20.600 C 113.742 20.600,112.637 21.211,112.195 23.225 C 111.733 25.325,109.523 26.800,106.837 26.800 C 105.430 26.800,103.285 27.197,101.439 27.800 C 99.754 28.350,97.922 28.800,97.367 28.800 C 96.591 28.800,96.223 29.126,95.767 30.217 C 95.347 31.224,94.456 32.087,92.688 33.200 C 91.319 34.062,89.586 35.224,88.836 35.783 C 87.360 36.883,86.042 37.082,85.280 36.320 C 84.481 35.521,84.733 34.855,86.100 34.149 C 86.815 33.780,88.210 32.805,89.200 31.983 C 90.190 31.162,91.630 30.175,92.400 29.790 C 93.170 29.405,94.430 28.596,95.200 27.992 C 97.036 26.552,103.533 23.142,106.721 21.946 C 108.108 21.426,110.246 20.190,111.474 19.200 C 113.358 17.680,115.154 16.429,115.484 16.406 C 115.531 16.403,115.927 16.785,116.366 17.255 M266.895 19.700 C 267.252 19.975,267.601 20.639,267.672 21.176 C 267.769 21.914,268.143 22.241,269.200 22.512 C 271.332 23.060,271.713 23.535,271.431 25.295 C 271.220 26.616,271.363 27.049,272.460 28.415 C 274.021 30.358,274.292 30.381,274.626 28.600 C 274.931 26.976,275.416 26.875,278.262 27.842 C 279.996 28.430,280.241 28.430,281.237 27.842 C 282.612 27.030,283.768 27.025,284.571 27.829 C 284.917 28.174,285.200 28.302,285.200 28.112 C 285.200 27.769,288.287 26.800,289.378 26.800 C 289.690 26.800,290.452 27.817,291.072 29.061 C 292.788 32.502,295.640 32.756,296.751 29.568 C 297.022 28.793,297.432 28.400,297.973 28.400 C 298.422 28.400,299.567 28.192,300.518 27.937 C 302.864 27.310,304.400 27.723,304.400 28.980 C 304.400 30.907,306.400 31.767,308.987 30.951 C 310.797 30.381,311.352 30.346,312.116 30.755 C 313.788 31.650,315.630 33.650,315.865 34.827 C 316.270 36.848,316.926 37.045,319.834 36.018 C 321.756 35.340,322.996 35.150,324.630 35.286 C 325.842 35.386,326.927 35.318,327.041 35.134 C 327.470 34.440,328.800 34.792,328.800 35.600 C 328.800 36.187,328.533 36.400,327.800 36.400 C 326.483 36.400,326.535 36.957,327.945 37.961 C 329.209 38.861,329.600 38.720,329.600 37.364 C 329.600 36.683,329.953 36.346,331.040 35.987 C 333.499 35.175,338.582 41.052,336.966 42.838 C 335.407 44.560,337.180 46.657,339.191 45.469 L 340.400 44.755 341.225 46.152 C 341.679 46.921,342.697 47.966,343.487 48.475 C 347.498 51.055,347.795 51.187,349.066 50.955 C 350.069 50.772,350.421 50.891,350.764 51.532 C 351.002 51.977,352.098 52.925,353.200 53.639 C 354.313 54.360,355.633 55.664,356.167 56.569 C 357.294 58.480,359.053 60.206,360.239 60.563 C 361.837 61.044,362.606 64.148,361.218 64.511 C 360.758 64.632,360.341 65.185,360.204 65.858 C 360.077 66.486,359.798 67.553,359.586 68.228 C 359.009 70.063,359.102 70.622,360.200 71.927 C 360.750 72.581,361.200 73.287,361.200 73.497 C 361.200 73.706,361.567 74.300,362.015 74.817 C 362.592 75.482,362.760 76.073,362.590 76.845 C 362.052 79.296,362.996 81.019,364.891 81.043 C 367.212 81.072,369.326 81.978,371.110 83.709 C 371.929 84.504,373.095 85.607,373.700 86.159 C 374.551 86.937,374.810 87.552,374.846 88.882 C 374.871 89.827,374.916 91.626,374.946 92.881 C 374.995 94.943,375.144 95.309,376.500 96.697 C 378.269 98.509,378.330 98.919,377.000 100.075 C 374.960 101.849,378.165 108.396,380.470 107.162 C 381.408 106.660,382.000 107.008,382.000 108.061 C 382.000 108.538,381.669 108.961,381.200 109.084 C 380.145 109.360,380.190 110.087,381.346 111.469 C 382.362 112.684,383.598 116.404,383.603 118.262 C 383.604 118.888,383.952 119.926,384.376 120.569 C 384.971 121.472,385.095 122.165,384.922 123.626 C 384.765 124.956,384.895 125.908,385.362 126.844 C 386.261 128.646,385.867 130.242,384.326 131.038 C 383.291 131.573,383.159 131.815,383.400 132.731 C 384.633 137.413,383.610 142.209,381.323 142.471 C 379.752 142.651,379.732 144.146,381.299 144.326 C 383.215 144.547,383.168 147.576,381.239 148.188 C 380.820 148.321,380.195 149.025,379.849 149.753 C 379.214 151.091,376.954 152.896,375.300 153.387 C 373.313 153.976,375.059 157.067,377.126 156.619 C 378.047 156.420,378.448 156.676,379.943 158.417 C 381.841 160.629,381.870 161.174,380.049 160.420 C 379.249 160.089,378.127 160.033,376.537 160.246 C 375.251 160.418,374.031 160.568,373.825 160.579 C 373.472 160.599,373.230 162.456,373.084 166.271 C 373.031 167.651,373.207 168.091,374.096 168.790 C 375.339 169.767,376.036 171.865,375.735 173.721 C 375.577 174.696,375.730 175.193,376.363 175.767 C 377.717 176.992,376.209 179.884,373.725 180.829 C 372.325 181.361,372.390 184.449,373.827 185.698 C 374.392 186.189,375.305 187.493,375.857 188.596 C 376.409 189.698,377.174 190.960,377.559 191.400 C 379.138 193.207,379.813 196.517,379.072 198.813 C 378.235 201.403,378.231 202.299,379.049 204.251 C 379.544 205.435,379.650 206.625,379.499 209.300 C 379.304 212.742,379.322 212.831,380.593 214.619 C 382.628 217.481,382.813 221.281,381.141 225.922 C 379.862 229.473,379.757 230.274,380.221 232.891 C 380.442 234.139,380.315 234.586,379.443 235.622 C 378.204 237.094,378.139 238.187,379.154 240.489 C 380.819 244.267,381.016 245.405,380.394 247.647 C 380.061 248.844,379.694 249.208,378.271 249.752 C 376.244 250.526,374.925 252.787,375.536 254.438 C 375.760 255.044,375.707 255.811,375.388 256.590 C 374.867 257.861,375.261 265.570,375.986 268.290 C 376.175 269.000,376.232 269.957,376.112 270.417 C 375.991 270.876,376.084 271.646,376.319 272.126 C 377.714 274.991,378.094 278.697,377.114 279.896 C 376.891 280.169,376.801 280.979,376.914 281.696 C 377.055 282.585,376.791 283.746,376.085 285.346 L 375.049 287.692 376.125 289.605 C 376.716 290.657,377.200 291.862,377.200 292.283 C 377.200 292.703,377.464 293.396,377.787 293.824 C 378.800 295.163,378.151 300.039,376.715 301.875 C 376.472 302.186,376.760 303.249,377.552 304.959 C 379.823 309.867,380.545 313.450,379.445 314.362 C 379.139 314.617,378.764 316.026,378.608 317.511 C 378.150 321.877,377.339 324.343,375.608 326.636 C 373.623 329.265,373.587 330.243,375.411 332.011 C 376.742 333.300,376.806 333.482,376.540 335.189 C 376.385 336.185,376.275 337.630,376.297 338.400 C 376.350 340.278,375.367 343.696,373.973 346.481 L 372.832 348.761 372.959 355.881 C 373.057 361.403,373.233 363.334,373.743 364.487 C 374.597 366.420,374.571 367.284,373.600 369.294 C 373.160 370.205,372.800 371.428,372.800 372.011 C 372.800 372.740,372.502 373.207,371.848 373.505 C 371.139 373.828,370.684 374.638,370.062 376.687 C 369.258 379.332,368.195 380.800,366.700 381.328 C 364.932 381.952,366.778 384.500,368.999 384.500 C 370.972 384.500,371.016 386.097,369.171 390.711 C 368.408 392.619,363.660 391.192,362.478 388.700 C 362.191 388.095,361.692 387.600,361.370 387.600 C 361.047 387.600,360.570 388.095,360.310 388.700 C 360.049 389.305,359.509 390.126,359.109 390.524 C 358.709 390.922,358.501 391.440,358.646 391.675 C 358.816 391.949,359.042 391.868,359.275 391.451 C 360.124 389.934,361.781 391.382,361.317 393.235 C 361.184 393.766,360.474 394.794,359.738 395.519 C 357.910 397.321,358.006 398.434,360.032 398.929 C 361.547 399.299,362.707 401.608,362.075 402.996 C 361.744 403.721,361.720 404.277,361.997 404.794 C 362.514 405.761,362.178 406.591,360.940 407.402 C 360.126 407.936,359.994 408.263,360.205 409.224 C 360.493 410.533,359.543 412.057,357.676 413.282 C 356.720 413.908,356.598 414.261,356.492 416.690 C 356.426 418.181,356.334 419.940,356.287 420.600 C 356.212 421.635,356.324 421.783,357.100 421.675 C 357.595 421.606,358.000 421.726,358.000 421.942 C 358.000 422.796,357.485 423.600,356.937 423.600 C 356.500 423.600,356.382 424.082,356.452 425.598 C 356.524 427.181,356.362 427.789,355.671 428.524 C 354.614 429.650,354.604 430.139,355.600 432.200 C 356.928 434.950,355.718 436.800,352.590 436.800 C 349.962 436.800,349.004 437.857,350.076 439.573 C 351.000 441.053,349.825 441.724,346.699 441.500 C 344.203 441.321,343.914 441.383,343.242 442.238 C 342.352 443.369,338.927 444.679,336.200 444.932 C 332.517 445.274,332.094 445.737,334.214 447.109 C 335.275 447.797,335.798 447.922,336.356 447.623 C 337.161 447.192,337.600 447.425,337.600 448.283 C 337.600 449.035,335.957 451.200,335.387 451.200 C 333.360 451.200,333.194 454.112,335.205 454.400 C 337.878 454.783,337.355 458.223,334.437 459.442 C 333.653 459.770,332.648 460.365,332.205 460.765 C 331.762 461.165,330.770 461.610,330.000 461.754 C 329.230 461.898,328.308 462.400,327.951 462.870 C 327.302 463.725,326.912 463.698,325.475 462.703 C 324.747 462.198,323.880 462.856,322.854 464.689 C 322.681 464.998,322.244 465.294,321.882 465.347 C 320.721 465.517,320.636 465.982,321.542 467.207 C 323.014 469.198,321.679 470.771,319.696 469.382 C 318.512 468.553,317.327 469.197,316.885 470.909 C 316.573 472.120,316.417 472.215,314.376 472.446 C 313.179 472.581,311.570 472.909,310.800 473.174 C 310.006 473.448,307.494 473.641,305.000 473.620 C 301.613 473.592,300.100 473.760,298.429 474.351 C 297.016 474.850,296.039 474.994,295.629 474.762 C 294.961 474.384,288.771 471.600,288.599 471.600 C 288.543 471.600,288.273 472.140,288.000 472.800 C 287.342 474.388,285.162 474.508,283.794 473.032 C 283.038 472.216,282.638 472.098,281.260 472.283 C 280.176 472.428,279.160 472.282,278.251 471.851 C 276.479 471.010,276.119 471.031,275.600 472.000 C 275.023 473.078,273.519 473.015,272.131 471.855 C 268.912 469.165,265.146 469.458,262.194 472.628 C 260.630 474.307,260.333 474.460,258.742 474.396 C 254.662 474.232,253.673 474.391,252.473 475.400 C 250.978 476.658,248.809 476.718,246.926 475.554 C 245.950 474.951,245.205 474.779,244.330 474.954 C 243.654 475.089,241.909 475.005,240.451 474.767 C 238.993 474.529,237.080 474.277,236.200 474.207 C 230.809 473.780,230.017 473.431,230.006 471.480 C 229.997 469.751,228.931 468.043,227.693 467.772 C 227.092 467.641,225.803 467.278,224.829 466.967 C 222.168 466.115,221.360 466.258,219.537 467.900 C 216.592 470.554,214.181 477.870,215.316 480.708 C 216.150 482.790,215.417 484.203,213.195 484.801 C 211.334 485.302,211.067 486.415,212.400 488.109 C 213.687 489.746,213.032 490.849,210.445 491.399 C 209.576 491.584,208.395 492.405,207.149 493.691 C 205.470 495.424,205.059 495.659,204.104 495.431 C 200.509 494.571,199.406 494.661,198.852 495.858 C 198.561 496.486,198.112 497.450,197.853 498.000 C 197.051 499.706,189.653 502.800,186.374 502.800 C 184.490 502.800,180.937 502.125,177.504 501.115 C 176.121 500.708,175.933 500.755,175.023 501.737 C 174.049 502.788,172.656 503.138,172.224 502.439 C 172.101 502.240,169.757 502.117,167.015 502.165 C 161.955 502.253,160.763 501.915,162.440 500.868 C 164.659 499.482,160.696 495.897,155.709 494.780 C 154.179 494.437,150.582 492.190,146.200 488.839 C 142.805 486.243,137.704 484.426,138.104 485.955 C 138.235 486.454,138.136 486.803,137.863 486.806 C 137.567 486.810,137.592 486.934,137.934 487.151 C 138.340 487.408,138.268 487.541,137.634 487.707 C 137.175 487.827,136.800 487.762,136.800 487.563 C 136.800 487.363,136.530 487.200,136.200 487.200 C 135.870 487.200,135.600 487.020,135.600 486.800 C 135.600 485.456,132.490 486.630,130.189 488.843 L 128.578 490.392 126.017 489.742 C 123.986 489.226,123.195 489.186,122.199 489.546 C 120.116 490.299,119.227 490.116,118.481 488.779 C 118.065 488.033,117.369 487.468,116.692 487.327 C 115.192 487.015,115.011 486.584,115.614 484.759 C 116.055 483.423,116.039 483.104,115.503 482.502 C 114.985 481.920,114.257 477.320,114.763 477.829 C 114.989 478.056,117.600 475.327,117.600 474.863 C 117.600 474.195,116.474 474.029,115.980 474.624 C 115.400 475.323,114.291 475.357,112.553 474.728 C 110.957 474.152,108.358 475.144,106.864 476.900 C 106.350 477.505,105.573 478.000,105.138 478.000 C 103.396 478.000,102.053 479.170,100.777 481.800 C 98.648 486.187,95.003 487.180,92.493 484.055 C 90.241 481.254,82.750 479.728,77.701 481.042 C 74.976 481.752,74.421 481.743,73.568 480.971 C 73.013 480.469,72.584 480.422,71.440 480.738 C 68.913 481.436,67.920 479.392,69.550 476.848 C 70.125 475.951,70.095 475.841,69.041 474.934 C 67.539 473.642,65.200 474.305,65.200 476.022 C 65.200 478.288,62.679 477.037,61.380 474.126 C 59.700 470.364,58.236 469.016,56.769 469.882 C 55.202 470.807,53.602 470.309,53.593 468.892 C 53.582 467.187,50.792 465.053,48.683 465.136 C 47.539 465.181,46.441 464.848,44.938 464.000 C 42.666 462.718,41.254 462.510,40.024 463.278 C 39.431 463.648,39.023 463.648,38.211 463.278 C 35.858 462.206,34.400 462.897,34.400 465.086 C 34.400 468.288,31.581 471.600,28.855 471.600 C 27.328 471.600,26.000 472.370,26.000 473.256 C 26.000 474.140,24.208 473.309,23.068 471.897 L 21.855 470.394 22.533 467.497 C 22.905 465.904,23.208 464.118,23.205 463.528 C 23.202 462.856,23.702 461.924,24.548 461.027 C 25.313 460.216,26.123 458.776,26.421 457.699 C 26.709 456.654,27.284 455.336,27.697 454.768 C 28.735 453.345,28.560 449.876,27.440 449.663 C 27.022 449.583,26.241 448.997,25.704 448.359 C 25.032 447.561,24.360 447.200,23.544 447.200 C 22.594 447.200,22.243 446.942,21.774 445.900 C 21.452 445.185,21.015 444.330,20.803 444.000 C 20.591 443.670,20.227 442.637,19.994 441.704 C 19.762 440.771,19.146 439.582,18.626 439.063 C 16.081 436.517,15.944 434.565,18.148 432.228 C 19.872 430.400,20.582 430.356,20.223 432.100 C 19.378 436.198,19.720 438.254,20.971 436.598 C 21.760 435.554,21.772 432.029,20.997 429.051 C 20.417 426.825,20.637 422.834,21.409 421.585 C 21.548 421.360,21.181 420.355,20.593 419.351 L 19.523 417.527 20.767 416.310 C 22.405 414.709,22.700 413.419,21.808 411.762 C 21.152 410.545,21.148 410.395,21.749 409.794 C 22.555 408.987,22.565 408.635,21.800 408.000 C 21.018 407.351,21.033 405.824,21.829 405.029 C 23.026 403.831,23.915 404.285,25.601 406.955 C 27.282 409.617,28.354 410.282,29.661 409.475 C 31.881 408.104,30.012 404.000,27.167 404.000 C 26.745 404.000,26.400 403.835,26.400 403.633 C 26.400 403.431,25.603 402.962,24.629 402.590 C 22.475 401.767,21.381 400.653,20.907 398.801 C 20.444 396.989,19.522 396.846,18.159 398.375 C 16.350 400.406,14.737 398.964,16.360 396.768 C 16.822 396.144,17.200 395.040,17.201 394.316 C 17.201 393.592,17.471 391.470,17.800 389.600 C 18.613 384.983,18.564 384.055,17.370 381.446 C 16.492 379.529,16.403 379.003,16.767 377.898 C 17.313 376.238,17.496 369.799,17.045 368.100 C 16.470 365.932,17.716 366.496,19.456 369.191 C 22.886 374.501,25.839 373.222,26.362 366.200 L 26.600 363.000 28.387 362.800 C 30.876 362.521,31.774 361.056,30.472 359.400 C 29.887 358.656,29.600 357.733,29.600 356.591 C 29.600 352.942,26.389 349.724,22.400 349.376 C 17.805 348.975,18.197 349.432,18.225 344.500 C 18.239 342.116,18.390 339.940,18.560 339.665 C 18.734 339.384,18.576 338.718,18.201 338.145 C 17.756 337.466,17.624 336.770,17.806 336.062 C 17.957 335.478,18.141 332.853,18.215 330.229 C 18.319 326.580,18.521 325.141,19.074 324.114 C 19.765 322.832,19.766 322.715,19.099 321.553 C 18.059 319.741,18.709 317.120,20.832 314.561 C 21.144 314.185,21.139 313.388,20.813 311.719 C 20.563 310.444,20.189 308.532,19.980 307.470 C 19.670 305.895,19.747 305.093,20.400 303.104 C 21.439 299.938,21.409 298.709,20.245 296.891 C 18.776 294.598,18.504 290.694,19.765 290.019 C 20.462 289.646,20.755 289.075,20.897 287.817 C 21.002 286.883,21.486 285.581,21.972 284.924 C 22.839 283.751,22.843 283.683,22.208 281.231 C 21.584 278.824,21.591 278.672,22.384 277.034 C 22.945 275.875,23.128 274.940,22.960 274.098 C 22.783 273.216,23.014 272.204,23.767 270.559 C 25.468 266.845,25.410 260.722,23.643 257.337 C 22.427 255.007,22.388 254.803,22.922 253.524 C 23.233 252.781,23.404 251.612,23.304 250.926 C 23.144 249.837,23.405 249.396,25.360 247.457 C 26.592 246.235,27.600 244.985,27.600 244.679 C 27.600 244.374,27.978 243.782,28.441 243.363 C 30.330 241.654,31.449 236.760,30.399 234.799 C 30.124 234.284,29.921 232.848,29.949 231.608 C 29.982 230.174,29.787 229.071,29.413 228.577 C 28.687 227.618,28.633 226.523,29.300 226.299 C 29.656 226.180,29.800 224.969,29.800 222.094 C 29.800 218.172,29.834 218.021,30.975 216.828 C 32.429 215.308,32.627 215.305,33.397 216.794 C 33.740 217.458,34.467 218.102,35.033 218.244 C 35.879 218.456,36.037 218.711,35.967 219.750 C 35.575 225.611,37.376 225.982,39.434 220.463 C 40.401 217.871,41.193 217.479,42.669 218.864 C 43.275 219.432,44.158 219.800,44.914 219.800 C 46.316 219.800,47.864 221.729,46.932 222.314 C 45.582 223.161,45.928 224.588,47.681 225.402 C 48.790 225.917,49.347 226.413,49.251 226.800 C 49.169 227.130,49.013 227.715,48.905 228.100 C 48.248 230.423,50.344 228.629,51.147 226.180 C 52.260 222.791,53.009 221.690,54.678 220.993 C 59.970 218.782,61.415 212.215,57.476 208.276 C 56.926 207.726,56.840 207.400,57.160 207.080 C 58.318 205.922,57.671 205.088,55.779 205.301 C 54.135 205.486,53.894 205.404,53.310 204.453 C 52.954 203.874,52.061 202.822,51.326 202.116 C 50.056 200.895,50.001 200.725,50.226 198.716 C 50.640 195.010,48.342 190.921,46.145 191.456 C 45.603 191.588,45.018 191.373,44.545 190.870 C 43.827 190.104,43.157 189.852,42.100 189.953 C 41.403 190.019,41.474 191.398,42.207 192.005 C 42.667 192.388,42.752 192.968,42.560 194.420 C 42.318 196.244,42.361 196.359,43.503 196.950 C 45.378 197.920,45.572 200.924,43.913 203.300 C 42.958 204.668,42.096 204.706,41.600 203.400 C 41.161 202.244,40.178 202.120,38.849 203.051 C 37.976 203.662,37.818 203.646,36.260 202.792 C 33.690 201.382,33.200 200.818,33.200 199.266 C 33.200 198.166,32.893 197.575,31.800 196.574 C 30.933 195.780,30.400 194.921,30.400 194.316 C 30.400 192.964,28.968 191.800,26.600 191.225 C 22.628 190.261,20.639 188.582,21.282 186.736 C 21.580 185.883,21.570 185.253,21.250 184.550 C 20.674 183.286,20.674 181.382,21.251 180.305 C 21.499 179.842,21.677 178.385,21.647 177.067 C 21.608 175.339,21.778 174.466,22.256 173.938 C 23.313 172.770,23.706 169.302,22.930 167.989 C 22.078 166.547,22.401 165.433,24.609 162.208 C 26.677 159.187,26.695 159.115,26.264 155.528 C 25.984 153.205,26.069 152.501,26.917 150.128 C 27.453 148.628,28.019 146.680,28.175 145.800 C 28.660 143.070,29.320 142.389,30.987 142.901 C 31.764 143.139,32.507 143.226,32.638 143.095 C 33.026 142.707,30.888 137.763,29.211 135.168 C 26.701 131.285,26.450 129.167,28.199 126.627 C 29.942 124.097,29.816 122.624,27.698 120.764 C 26.165 119.418,26.142 119.072,27.230 113.800 C 28.228 108.961,28.505 105.950,28.045 104.940 C 27.494 103.731,27.755 103.208,28.924 103.177 C 32.168 103.094,33.988 100.138,35.684 92.200 C 36.111 90.201,37.313 88.400,38.221 88.400 C 38.906 88.400,39.698 87.350,40.449 85.446 C 40.885 84.342,41.379 83.758,41.949 83.672 C 42.417 83.602,42.811 83.512,42.824 83.472 C 42.837 83.432,42.937 82.154,43.047 80.631 C 43.157 79.108,43.506 77.241,43.823 76.482 C 44.141 75.723,44.406 74.719,44.413 74.251 C 44.446 72.013,47.272 70.275,48.447 71.769 C 50.349 74.187,55.995 71.844,56.195 68.554 C 56.340 66.156,60.100 65.639,61.815 67.782 C 63.417 69.783,65.160 68.959,64.197 66.655 C 63.376 64.691,63.447 63.704,64.500 62.408 C 64.995 61.799,65.691 60.765,66.047 60.111 C 66.487 59.302,67.113 58.837,68.008 58.658 C 69.730 58.314,70.400 57.720,70.400 56.537 C 70.400 55.767,70.784 55.407,72.300 54.755 C 74.140 53.965,74.605 53.954,77.869 54.622 C 78.992 54.852,79.208 54.744,79.759 53.679 C 81.188 50.916,82.039 50.655,83.296 52.595 C 84.425 54.337,85.038 54.362,85.735 52.694 C 86.243 51.477,87.257 50.471,90.447 48.019 C 91.149 47.479,92.073 46.444,92.501 45.719 C 92.929 44.993,93.540 44.400,93.860 44.400 C 94.179 44.400,94.703 43.773,95.023 43.007 C 95.397 42.112,95.962 41.524,96.602 41.364 C 97.151 41.226,97.600 40.863,97.600 40.557 C 97.600 40.185,98.075 40.000,99.026 40.000 C 100.696 40.000,101.749 39.519,103.400 38.001 C 105.565 36.011,111.200 36.171,111.200 38.223 C 111.200 39.162,112.389 38.881,112.781 37.849 C 113.200 36.748,115.020 36.000,117.279 36.000 C 118.453 36.000,119.056 35.748,119.719 34.981 C 120.204 34.421,121.058 33.926,121.617 33.881 C 123.971 33.693,128.000 29.783,128.000 27.687 C 128.000 26.162,129.199 25.027,129.793 25.989 C 130.190 26.631,131.583 26.693,132.674 26.118 C 133.293 25.791,134.201 25.476,134.690 25.418 C 135.180 25.360,135.932 24.882,136.361 24.356 L 137.140 23.400 138.870 24.312 C 139.822 24.813,141.140 25.207,141.800 25.187 C 142.460 25.167,143.561 25.269,144.247 25.413 C 145.061 25.584,145.923 25.454,146.727 25.038 C 148.399 24.173,149.574 24.236,150.652 25.249 C 152.356 26.850,154.846 25.825,155.386 23.300 C 155.538 22.585,155.784 21.980,155.932 21.955 C 157.988 21.613,159.206 21.496,160.200 21.546 C 160.860 21.579,162.222 21.602,163.226 21.596 C 165.304 21.583,167.813 23.137,168.241 24.700 C 168.492 25.620,170.000 26.001,170.000 25.144 C 170.000 24.832,170.637 24.764,172.029 24.929 C 173.949 25.156,174.132 25.095,175.442 23.785 C 176.562 22.665,177.134 22.400,178.432 22.400 C 179.800 22.400,180.138 22.222,180.719 21.195 C 181.260 20.238,181.606 20.029,182.400 20.179 C 182.950 20.283,184.419 20.484,185.664 20.625 C 187.318 20.814,188.144 21.131,188.727 21.803 C 189.167 22.308,190.542 23.017,191.782 23.378 C 193.023 23.738,194.141 24.302,194.267 24.631 C 194.393 24.959,195.319 25.794,196.325 26.486 L 198.154 27.744 201.040 26.219 C 203.276 25.037,204.184 24.754,205.064 24.964 C 205.689 25.114,206.830 25.384,207.600 25.565 C 208.370 25.745,209.248 25.962,209.550 26.047 C 209.853 26.131,210.183 25.975,210.283 25.700 C 210.384 25.425,210.182 25.200,209.833 25.200 C 208.221 25.200,209.407 24.068,211.700 23.418 C 213.075 23.029,214.685 22.533,215.277 22.316 C 215.869 22.099,217.044 22.038,217.887 22.181 C 219.271 22.415,219.508 22.321,220.322 21.220 C 222.019 18.925,226.461 19.650,227.604 22.409 C 228.177 23.793,230.271 23.840,232.355 22.516 C 233.593 21.730,235.811 22.022,238.526 23.330 C 241.516 24.770,241.707 24.809,245.960 24.834 C 248.664 24.850,250.361 24.654,251.612 24.180 C 252.595 23.808,253.940 23.527,254.600 23.554 C 255.260 23.582,256.430 23.316,257.200 22.962 C 265.728 19.045,265.950 18.971,266.895 19.700 M46.243 27.033 C 46.109 27.381,46.000 27.972,46.000 28.346 C 46.000 29.325,41.663 32.874,40.802 32.601 C 39.608 32.222,39.080 33.378,39.374 35.731 L 39.641 37.867 38.521 37.722 C 37.038 37.530,35.928 38.222,36.800 38.794 C 38.531 39.930,42.023 38.711,42.513 36.800 C 42.973 35.008,43.488 34.400,44.549 34.399 C 47.043 34.394,49.171 32.061,49.187 29.314 C 49.203 26.786,46.994 25.075,46.243 27.033 M41.033 27.457 C 40.895 27.819,40.863 28.197,40.964 28.297 C 41.282 28.615,42.000 27.977,42.000 27.376 C 42.000 26.592,41.344 26.647,41.033 27.457 M36.011 28.587 C 35.402 29.320,35.784 31.142,36.613 31.460 C 37.612 31.844,39.266 31.235,39.127 30.536 C 38.887 29.330,36.588 27.892,36.011 28.587 M39.800 47.801 C 39.360 48.109,37.968 48.522,36.706 48.719 C 34.929 48.996,34.218 49.323,33.553 50.168 C 33.081 50.769,32.314 51.425,31.847 51.626 C 31.381 51.828,30.510 52.386,29.912 52.866 C 28.988 53.607,28.670 53.669,27.814 53.279 C 26.925 52.874,26.730 52.935,26.170 53.790 C 25.820 54.323,24.919 55.123,24.167 55.566 C 22.482 56.561,22.177 59.377,23.600 60.800 C 24.559 61.759,24.700 61.768,26.538 61.000 C 27.328 60.670,28.617 60.400,29.403 60.400 C 30.932 60.400,33.656 59.208,35.057 57.925 C 35.529 57.494,36.506 56.839,37.229 56.470 C 38.409 55.868,38.632 55.461,39.412 52.480 C 39.890 50.654,40.487 48.953,40.740 48.700 C 41.876 47.564,41.142 46.863,39.800 47.801 M82.545 49.800 C 82.680 50.152,82.550 50.400,82.230 50.400 C 81.931 50.400,81.582 50.130,81.455 49.800 C 81.320 49.448,81.450 49.200,81.770 49.200 C 82.069 49.200,82.418 49.470,82.545 49.800 M56.800 73.293 C 55.590 73.475,53.610 73.754,52.400 73.912 L 50.200 74.200 50.235 75.911 C 50.262 77.208,50.540 77.903,51.386 78.785 C 51.999 79.425,52.707 80.365,52.960 80.874 C 54.125 83.225,57.996 81.785,58.830 78.690 C 59.076 77.773,59.531 76.663,59.839 76.223 C 61.392 74.006,60.132 72.791,56.800 73.293 M369.200 76.200 C 369.200 76.530,369.020 76.800,368.800 76.800 C 368.580 76.800,368.400 76.530,368.400 76.200 C 368.400 75.870,368.580 75.600,368.800 75.600 C 369.020 75.600,369.200 75.870,369.200 76.200 M52.015 86.385 C 50.919 87.481,51.095 88.803,52.437 89.553 C 54.162 90.518,54.823 89.965,54.253 88.033 C 53.565 85.703,53.065 85.335,52.015 86.385 M51.600 95.833 C 51.600 96.540,52.461 96.417,52.708 95.675 C 52.795 95.414,52.582 95.200,52.233 95.200 C 51.885 95.200,51.600 95.485,51.600 95.833 M2.249 139.015 C 2.112 139.373,2.018 140.146,2.040 140.733 C 2.073 141.591,2.152 141.495,2.446 140.240 C 2.822 138.639,2.695 137.853,2.249 139.015 M40.800 187.429 C 40.800 187.802,41.072 188.006,41.467 187.929 C 42.470 187.735,42.608 186.800,41.633 186.800 C 41.142 186.800,40.800 187.058,40.800 187.429 M39.418 208.182 C 40.068 208.831,40.398 209.610,40.394 210.482 C 40.384 212.504,39.900 212.983,38.957 211.904 C 36.349 208.921,36.769 205.533,39.418 208.182 M42.400 229.511 C 42.400 229.902,42.772 230.541,43.228 230.931 C 43.683 231.321,44.235 232.154,44.454 232.783 C 44.866 233.966,46.212 234.600,47.368 234.157 C 48.708 233.643,47.818 232.038,45.409 230.626 C 44.414 230.043,43.600 229.394,43.600 229.183 C 43.600 228.972,43.330 228.800,43.000 228.800 C 42.670 228.800,42.400 229.120,42.400 229.511 M53.668 233.268 C 53.756 233.889,54.067 234.200,54.600 234.200 C 55.791 234.200,55.672 232.639,54.468 232.468 C 53.692 232.358,53.558 232.492,53.668 233.268 M52.000 237.800 C 52.000 238.130,52.251 238.400,52.557 238.400 C 52.864 238.400,53.218 238.130,53.345 237.800 C 53.501 237.392,53.323 237.200,52.787 237.200 C 52.354 237.200,52.000 237.470,52.000 237.800 M46.684 335.450 C 46.528 335.606,46.400 335.895,46.400 336.093 C 46.400 336.581,48.402 336.304,48.512 335.800 C 48.616 335.329,47.096 335.038,46.684 335.450 M31.590 399.826 C 31.376 400.390,31.200 400.930,31.200 401.026 C 31.200 401.122,32.100 401.200,33.200 401.200 C 34.859 401.200,35.200 401.077,35.200 400.480 C 35.200 398.604,32.257 398.071,31.590 399.826 M27.239 412.558 C 26.095 413.777,26.192 415.800,27.395 415.800 C 28.393 415.800,29.359 413.890,29.028 412.571 C 28.723 411.353,28.373 411.351,27.239 412.558 M53.444 429.029 C 53.147 429.803,53.898 431.310,54.420 430.988 C 55.031 430.610,54.879 428.400,54.243 428.400 C 53.936 428.400,53.577 428.683,53.444 429.029 M46.991 430.015 C 46.850 430.243,46.852 431.124,46.996 431.974 C 47.155 432.918,47.090 433.621,46.828 433.783 C 45.935 434.335,46.389 435.938,47.700 436.860 C 48.415 437.362,49.238 438.005,49.529 438.287 C 50.164 438.904,50.205 438.905,52.099 438.379 C 54.249 437.782,55.814 434.295,54.791 432.383 L 54.328 431.519 53.204 432.596 C 51.310 434.411,49.432 434.221,49.280 432.200 C 49.133 430.249,47.695 428.876,46.991 430.015 M21.083 432.895 C 20.987 433.393,20.905 433.080,20.901 432.200 C 20.896 431.320,20.975 430.913,21.075 431.295 C 21.175 431.678,21.179 432.398,21.083 432.895 M55.442 442.520 C 54.452 443.244,54.707 445.358,55.803 445.515 C 57.362 445.739,58.213 444.681,57.622 443.254 C 57.058 441.891,56.540 441.717,55.442 442.520 M60.883 444.670 C 60.489 444.829,60.476 445.009,60.829 445.434 C 61.359 446.074,62.000 445.824,62.000 444.976 C 62.000 444.380,61.767 444.316,60.883 444.670 M331.795 450.159 C 331.218 450.585,331.120 450.868,331.437 451.190 C 331.756 451.515,332.009 451.472,332.375 451.030 C 333.148 450.099,332.729 449.470,331.795 450.159 M34.157 454.300 C 33.025 456.121,32.618 459.136,33.389 459.988 C 34.315 461.011,35.600 461.059,35.600 460.070 C 35.600 459.668,36.050 458.917,36.600 458.400 C 37.817 457.257,37.862 456.292,36.773 454.762 C 35.837 453.448,34.801 453.265,34.157 454.300 M340.506 458.239 C 340.866 458.600,340.370 459.629,339.958 459.374 C 339.761 459.252,339.600 458.893,339.600 458.576 C 339.600 457.987,340.077 457.810,340.506 458.239 M61.771 466.531 C 61.659 466.823,61.762 467.575,62.001 468.203 L 62.435 469.343 63.256 468.522 C 64.053 467.725,64.056 467.675,63.350 466.850 C 62.511 465.870,62.060 465.779,61.771 466.531 M210.243 467.033 C 209.397 469.238,210.109 470.947,212.455 472.343 C 215.102 473.919,216.035 472.782,213.700 470.828 C 211.355 468.865,211.261 468.800,210.774 468.800 C 210.521 468.800,210.424 468.530,210.557 468.200 C 210.691 467.870,210.909 467.330,211.043 467.000 C 211.176 466.670,211.106 466.400,210.886 466.400 C 210.666 466.400,210.376 466.685,210.243 467.033 M69.292 469.675 C 69.539 470.417,70.400 470.540,70.400 469.833 C 70.400 469.485,70.115 469.200,69.767 469.200 C 69.418 469.200,69.205 469.414,69.292 469.675 M141.532 495.741 C 141.633 496.269,141.469 496.433,140.941 496.332 C 140.538 496.254,140.146 495.862,140.068 495.459 C 139.967 494.931,140.131 494.767,140.659 494.868 C 141.062 494.946,141.454 495.338,141.532 495.741 M146.400 496.833 C 146.400 497.808,145.465 497.670,145.271 496.667 C 145.194 496.272,145.398 496.000,145.771 496.000 C 146.142 496.000,146.400 496.342,146.400 496.833 M242.900 522.276 C 243.285 522.376,243.915 522.376,244.300 522.276 C 244.685 522.175,244.370 522.093,243.600 522.093 C 242.830 522.093,242.515 522.175,242.900 522.276 " stroke="none" fill="#c8813d" fill-rule="evenodd"></path></g></svg>